<!-- Generated by readme-aura https://github.com/collectioneur/readme-aura -->
<svg width="860" height="138" viewBox="0 0 860 138" xmlns="http://www.w3.org/2000/svg"><defs><clipPath id="satori_bc-id"><path x="0" y="0" width="860" height="138" d="M16,0 h828 a16,16 0 0 1 16,16 v106 a16,16 0 0 1 -16,16 h-828 a16,16 0 0 1 -16,-16 v-106 a16,16 0 0 1 16,-16"/></clipPath></defs><clipPath id="satori_cp-id"><path x="0" y="0" width="860" height="138" d="M16,0 h828 a16,16 0 0 1 16,16 v106 a16,16 0 0 1 -16,16 h-828 a16,16 0 0 1 -16,-16 v-106 a16,16 0 0 1 16,-16"/></clipPath><mask id="satori_om-id"><rect x="1" y="1" width="858" height="136" fill="#fff"/><path width="860" height="138" fill="none" stroke="#000" stroke-width="2" d="M4.686,4.686 A16,16 0 0 1 16,0 h828 a16,16 0 0 1 16,16 v106 a16,16 0 0 1 -16,16 h-828 a16,16 0 0 1 -16,-16 v-106 A16,16 0 0 1 4.686,4.686"/></mask><path x="0" y="0" width="860" height="138" fill="#08080c" d="M16,0 h828 a16,16 0 0 1 16,16 v106 a16,16 0 0 1 -16,16 h-828 a16,16 0 0 1 -16,-16 v-106 a16,16 0 0 1 16,-16"/><path width="860" height="138" clip-path="url(#satori_bc-id)" fill="none" stroke="rgba(255,255,255,0.14)" stroke-width="2" d="M4.686,4.686 A16,16 0 0 1 16,0 h828 a16,16 0 0 1 16,16 v106 a16,16 0 0 1 -16,16 h-828 a16,16 0 0 1 -16,-16 v-106 A16,16 0 0 1 4.686,4.686"/><clipPath id="satori_cp-id-0" clip-path="url(#satori_cp-id)"><rect x="1" y="1" width="860" height="138"/></clipPath><mask id="satori_om-id-0"><rect x="1" y="1" width="860" height="138" fill="#fff" mask="url(#satori_om-id)"/></mask><svg x="1" y="1" width="860" height="138" preserveAspectRatio="none" clip-path="url(#satori_cp-id-0)" mask="url(#satori_om-id-0)"><defs><radialGradient id="g1" cx="50%" cy="50%" r="50%"><stop offset="0%" stop-color="rgba(255,255,255,0.22)"></stop><stop offset="42%" stop-color="rgba(180,180,180,0.10)"></stop><stop offset="70%" stop-color="rgba(180,180,180,0)"></stop></radialGradient><radialGradient id="g2" cx="50%" cy="50%" r="50%"><stop offset="0%" stop-color="rgba(220,220,220,0.18)"></stop><stop offset="45%" stop-color="rgba(160,160,160,0.08)"></stop><stop offset="70%" stop-color="rgba(160,160,160,0)"></stop></radialGradient><radialGradient id="g3" cx="50%" cy="50%" r="50%"><stop offset="0%" stop-color="rgba(230,230,230,0.14)"></stop><stop offset="50%" stop-color="rgba(170,170,170,0.06)"></stop><stop offset="70%" stop-color="rgba(170,170,170,0)"></stop></radialGradient><radialGradient id="g4" cx="50%" cy="50%" r="50%"><stop offset="0%" stop-color="rgba(200,200,200,0.10)"></stop><stop offset="70%" stop-color="rgba(200,200,200,0)"></stop></radialGradient><radialGradient id="g5" cx="50%" cy="50%" r="50%"><stop offset="0%" stop-color="rgba(160,160,160,0.12)"></stop><stop offset="70%" stop-color="rgba(160,160,160,0)"></stop></radialGradient><radialGradient id="g6" cx="50%" cy="50%" r="50%"><stop offset="0%" stop-color="rgba(190,190,190,0.10)"></stop><stop offset="70%" stop-color="rgba(190,190,190,0)"></stop></radialGradient></defs><ellipse id="glow-1" cx="170" cy="168" rx="260" ry="170" fill="url(#g1)"></ellipse><ellipse id="glow-2" cx="320" cy="178" rx="220" ry="140" fill="url(#g2)"></ellipse><ellipse id="glow-3" cx="460" cy="178" rx="190" ry="130" fill="url(#g3)"></ellipse><ellipse id="glow-4" cx="590" cy="188" rx="160" ry="110" fill="url(#g4)"></ellipse><ellipse id="glow-5" cx="750" cy="188" rx="140" ry="100" fill="url(#g5)"></ellipse><ellipse id="glow-6" cx="420" cy="138" rx="100" ry="80" fill="url(#g6)"></ellipse><style>

         @keyframes float-slow {
           0%, 100% { transform: translateX(0px); opacity: 0.8; }
           50% { transform: translateX(350px); opacity: 1.2; }
         }
         @keyframes float-medium {
           0%, 100% { transform: translateX(0px); opacity: 0.7; }
           50% { transform: translateX(-250px); opacity: 1.1; }
         }
         @keyframes float-fast {
           0%, 100% { transform: translateX(0px); opacity: 0.9; }
           50% { transform: translateX(200px); opacity: 0.6; }
         }
         @keyframes float-diagonal {
           0%, 100% { transform: translateX(0px); opacity: 0.75; }
           50% { transform: translateX(300px); opacity: 1.0; }
         }
         @keyframes float-wave {
           0%, 100% { transform: translateX(0px); opacity: 0.65; }
           33% { transform: translateX(-160px); opacity: 0.9; }
           66% { transform: translateX(80px); opacity: 1.0; }
         }
         @keyframes float-pulse {
           0%, 100% { transform: scale(1); opacity: 0.8; }
           50% { transform: scale(1.3); opacity: 0.4; }
         }
         #glow-1 { animation: float-slow 9s ease-in-out infinite; }
         #glow-2 { animation: float-medium 12s ease-in-out infinite; }
         #glow-3 { animation: float-fast 8s ease-in-out infinite; }
         #glow-4 { animation: float-diagonal 11s ease-in-out infinite reverse; }
         #glow-5 { animation: float-wave 14s ease-in-out infinite reverse; }
         #glow-6 { animation: float-pulse 6s ease-in-out infinite; }
       
</style>
</svg><mask id="satori_om-id-0-0"><rect x="1" y="1" width="0" height="138" fill="#fff" mask="url(#satori_om-id)"/></mask><mask id="satori_om-id-0-0-0"><rect x="1" y="1" width="0" height="138" fill="#fff" mask="url(#satori_om-id)"/></mask><mask id="satori_om-id-0-0-0-0"><rect x="1" y="1" width="0" height="138" fill="#fff" mask="url(#satori_om-id)"/></mask><mask id="satori_om-id-0-0-0-1"><rect x="1" y="1" width="0" height="138" fill="#fff" mask="url(#satori_om-id)"/></mask><mask id="satori_om-id-0-0-0-2"><rect x="1" y="1" width="0" height="138" fill="#fff" mask="url(#satori_om-id)"/></mask><mask id="satori_om-id-0-0-1"><rect x="1" y="1" width="0" height="138" fill="#fff" mask="url(#satori_om-id)"/></mask><mask id="satori_om-id-0-0-1-0"><rect x="1" y="1" width="0" height="138" fill="#fff" mask="url(#satori_om-id)"/></mask><mask id="satori_om-id-0-0-1-1"><rect x="1" y="1" width="0" height="138" fill="#fff" mask="url(#satori_om-id)"/></mask><mask id="satori_om-id-0-0-1-2"><rect x="1" y="1" width="0" height="138" fill="#fff" mask="url(#satori_om-id)"/></mask><mask id="satori_om-id-0-0-2"><rect x="1" y="1" width="0" height="138" fill="#fff" mask="url(#satori_om-id)"/></mask><mask id="satori_om-id-0-0-2-0"><rect x="1" y="1" width="0" height="138" fill="#fff" mask="url(#satori_om-id)"/></mask><mask id="satori_om-id-0-0-2-1"><rect x="1" y="1" width="0" height="138" fill="#fff" mask="url(#satori_om-id)"/></mask><mask id="satori_om-id-0-0-2-2"><rect x="1" y="1" width="0" height="138" fill="#fff" mask="url(#satori_om-id)"/></mask><mask id="satori_om-id-0-0-3"><rect x="1" y="1" width="0" height="138" fill="#fff" mask="url(#satori_om-id)"/></mask><mask id="satori_om-id-0-0-3-0"><rect x="1" y="1" width="0" height="138" fill="#fff" mask="url(#satori_om-id)"/></mask><mask id="satori_om-id-0-0-3-1"><rect x="1" y="1" width="0" height="138" fill="#fff" mask="url(#satori_om-id)"/></mask><mask id="satori_om-id-0-0-4"><rect x="1" y="1" width="0" height="138" fill="#fff" mask="url(#satori_om-id)"/></mask><mask id="satori_om-id-0-0-4-0"><rect x="1" y="1" width="0" height="138" fill="#fff" mask="url(#satori_om-id)"/></mask><mask id="satori_om-id-0-0-4-1"><rect x="1" y="1" width="0" height="138" fill="#fff" mask="url(#satori_om-id)"/></mask><mask id="satori_om-id-0-0-5"><rect x="1" y="1" width="0" height="138" fill="#fff" mask="url(#satori_om-id)"/></mask><mask id="satori_om-id-0-0-5-0"><rect x="1" y="1" width="0" height="138" fill="#fff" mask="url(#satori_om-id)"/></mask><mask id="satori_om-id-0-0-5-1"><rect x="1" y="1" width="0" height="138" fill="#fff" mask="url(#satori_om-id)"/></mask><mask id="satori_om-id-0-1"><rect x="1" y="1" width="0" height="138" fill="#fff" mask="url(#satori_om-id)"/></mask><mask id="satori_om-id-0-2"><rect x="1" y="1" width="0" height="138" fill="#fff" mask="url(#satori_om-id)"/></mask><mask id="satori_om-id-0-3"><rect x="1" y="1" width="0" height="138" fill="#fff" mask="url(#satori_om-id)"/></mask><mask id="satori_om-id-0-4"><rect x="1" y="1" width="0" height="138" fill="#fff" mask="url(#satori_om-id)"/></mask><mask id="satori_om-id-0-5"><rect x="1" y="1" width="0" height="138" fill="#fff" mask="url(#satori_om-id)"/></mask><mask id="satori_om-id-0-6"><rect x="1" y="1" width="0" height="138" fill="#fff" mask="url(#satori_om-id)"/></mask><mask id="satori_om-id-1"><rect x="33" y="19" width="794" height="12" fill="#fff" mask="url(#satori_om-id)"/></mask><g mask="url(#satori_om-id)" clip-path="url(#satori_cp-id)"><path fill="rgba(210,210,210,0.5)" d="M35.6 23.0L33.4 23.0L33.4 21.7L39.3 21.7L39.3 23.0L37.1 23.0L37.1 29L35.6 29L35.6 23.0ZM48.2 29L43.3 29L43.3 21.7L48.2 21.7L48.2 23.0L44.8 23.0L44.8 24.7L47.9 24.7L47.9 25.9L44.8 25.9L44.8 27.8L48.2 27.8L48.2 29ZM55.6 29.1L55.6 29.1Q54.6 29.1 53.9 28.7Q53.1 28.2 52.6 27.4Q52.2 26.5 52.2 25.4L52.2 25.4Q52.2 24.2 52.7 23.3Q53.1 22.5 53.9 22.1Q54.6 21.6 55.6 21.6L55.6 21.6Q56.2 21.6 56.7 21.8Q57.3 22.0 57.7 22.3Q58.1 22.6 58.4 23.1Q58.6 23.6 58.7 24.2L58.7 24.2L57.2 24.2Q57.2 23.9 57.0 23.7Q56.9 23.4 56.7 23.3Q56.5 23.1 56.2 23.0Q55.9 23.0 55.6 23.0L55.6 23.0Q55.0 23.0 54.6 23.2Q54.2 23.5 54.0 24.1Q53.7 24.6 53.7 25.4L53.7 25.4Q53.7 26.2 54.0 26.7Q54.2 27.2 54.6 27.5Q55.0 27.8 55.6 27.8L55.6 27.8Q55.9 27.8 56.2 27.7Q56.5 27.6 56.7 27.4Q56.9 27.3 57.0 27.0Q57.2 26.8 57.2 26.5L57.2 26.5L58.7 26.5Q58.7 27.0 58.4 27.5Q58.2 27.9 57.8 28.3Q57.4 28.7 56.8 28.9Q56.3 29.1 55.6 29.1ZM64.3 29L62.8 29L62.8 21.7L64.3 21.7L64.3 24.7L67.5 24.7L67.5 21.7L69.0 21.7L69.0 29L67.5 29L67.5 25.9L64.3 25.9L64.3 29Z M81.3 29.1L81.3 29.1Q80.4 29.1 79.8 28.8Q79.1 28.6 78.8 28.0Q78.4 27.5 78.4 26.7L78.4 26.7L79.9 26.7Q79.9 27.1 80.1 27.4Q80.3 27.6 80.6 27.7Q80.9 27.8 81.3 27.8L81.3 27.8Q81.7 27.8 82.0 27.7Q82.3 27.6 82.5 27.4Q82.6 27.2 82.6 26.9L82.6 26.9Q82.6 26.7 82.5 26.5Q82.3 26.3 82.0 26.2Q81.8 26.1 81.4 26.0L81.4 26.0L80.6 25.8Q79.6 25.6 79.1 25.1Q78.6 24.6 78.6 23.8L78.6 23.8Q78.6 23.2 78.9 22.7Q79.3 22.2 79.9 21.9Q80.5 21.6 81.3 21.6L81.3 21.6Q82.1 21.6 82.7 21.9Q83.3 22.2 83.7 22.7Q84.0 23.2 84.0 23.8L84.0 23.8L82.6 23.8Q82.5 23.4 82.2 23.1Q81.9 22.9 81.3 22.9L81.3 22.9Q80.9 22.9 80.7 23.0Q80.4 23.1 80.3 23.3Q80.1 23.5 80.1 23.7L80.1 23.7Q80.1 24.0 80.3 24.2Q80.4 24.3 80.7 24.5Q81.0 24.6 81.3 24.6L81.3 24.6L81.9 24.8Q82.4 24.9 82.8 25.1Q83.2 25.3 83.5 25.5Q83.8 25.8 84.0 26.1Q84.1 26.5 84.1 26.9L84.1 26.9Q84.1 27.6 83.8 28.1Q83.5 28.6 82.8 28.8Q82.2 29.1 81.3 29.1ZM90.1 23.0L87.9 23.0L87.9 21.7L93.8 21.7L93.8 23.0L91.6 23.0L91.6 29L90.1 29L90.1 23.0ZM99.1 29L97.4 29L99.9 21.7L101.9 21.7L104.4 29L102.8 29L102.2 27.3L99.6 27.3L99.1 29ZM100.0 26.1L101.8 26.1L101.6 25.5Q101.4 24.8 101.2 24L101.2 24Q101.0 23.5 100.9 22.9L100.9 22.9Q100.7 23.5 100.6 24.0L100.6 24.0Q100.4 24.8 100.2 25.5L100.2 25.5L100.0 26.1ZM111.5 29.1L111.5 29.1Q110.5 29.1 109.8 28.7Q109.0 28.2 108.6 27.4Q108.1 26.5 108.1 25.4L108.1 25.4Q108.1 24.2 108.6 23.3Q109.0 22.5 109.8 22.1Q110.6 21.6 111.5 21.6L111.5 21.6Q112.1 21.6 112.7 21.8Q113.2 22.0 113.6 22.3Q114.0 22.6 114.3 23.1Q114.6 23.6 114.6 24.2L114.6 24.2L113.1 24.2Q113.1 23.9 112.9 23.7Q112.8 23.4 112.6 23.3Q112.4 23.1 112.1 23.0Q111.9 23.0 111.5 23.0L111.5 23.0Q111.0 23.0 110.5 23.2Q110.1 23.5 109.9 24.1Q109.6 24.6 109.6 25.4L109.6 25.4Q109.6 26.2 109.9 26.7Q110.1 27.2 110.5 27.5Q111.0 27.8 111.5 27.8L111.5 27.8Q111.8 27.8 112.1 27.7Q112.4 27.6 112.6 27.4Q112.8 27.3 112.9 27.0Q113.1 26.8 113.1 26.5L113.1 26.5L114.6 26.5Q114.6 27.0 114.3 27.5Q114.1 27.9 113.7 28.3Q113.3 28.7 112.8 28.9Q112.2 29.1 111.5 29.1ZM120.2 29L118.7 29L118.7 21.7L120.2 21.7L120.2 23.7L120.2 25.4Q120.2 25.3 120.3 25.3L120.3 25.3Q120.5 24.9 120.7 24.6Q121.0 24.2 121.3 23.8L121.3 23.8L123.1 21.7L124.9 21.7L122.2 24.9L125.0 29L123.3 29L121.2 25.9L120.2 26.9L120.2 29Z "/></g><mask id="satori_om-id-2"><rect x="33" y="45" width="794" height="64" fill="#fff" mask="url(#satori_om-id)"/></mask><mask id="satori_om-id-2-0"><rect x="33" y="45" width="794" height="25" fill="#fff" mask="url(#satori_om-id)"/></mask><mask id="satori_om-id-2-0-0"><rect x="33" y="52" width="80" height="12" fill="#fff" mask="url(#satori_om-id)"/></mask><g mask="url(#satori_om-id)" clip-path="url(#satori_cp-id)"><path fill="#f5f5f5" d="M38.3 62L33.7 62L33.7 54.7L35.1 54.7L35.1 60.8L38.3 60.8L38.3 62ZM41.5 62L39.9 62L42.4 54.7L44.3 54.7L46.9 62L45.2 62L44.7 60.3L42.1 60.3L41.5 62ZM42.5 59.1L44.3 59.1L44.1 58.5Q43.8 57.8 43.6 57L43.6 57Q43.5 56.5 43.3 55.9L43.3 55.9Q43.2 56.5 43.1 57.0L43.1 57.0Q42.9 57.8 42.7 58.5L42.7 58.5L42.5 59.1ZM50.3 62L48.8 62L48.8 54.7L50.4 54.7L52.7 58.4Q52.9 58.7 53.1 59.0Q53.3 59.4 53.5 59.8L53.5 59.8Q53.6 60.0 53.6 60.2L53.6 60.2Q53.6 60.0 53.6 59.8L53.6 59.8Q53.6 59.3 53.6 58.9Q53.6 58.5 53.6 58.2L53.6 58.2L53.6 54.7L55.1 54.7L55.1 62L53.4 62L51.3 58.7Q51.1 58.3 50.9 57.9Q50.7 57.6 50.5 57.1L50.5 57.1Q50.4 56.9 50.2 56.6L50.2 56.6Q50.2 56.9 50.2 57.1L50.2 57.1Q50.3 57.6 50.3 58.0Q50.3 58.4 50.3 58.7L50.3 58.7L50.3 62ZM60.6 62.1L60.6 62.1Q59.6 62.1 58.8 61.6Q58.1 61.2 57.6 60.4Q57.2 59.5 57.2 58.4L57.2 58.4Q57.2 57.2 57.7 56.4Q58.1 55.5 58.9 55.1Q59.6 54.6 60.6 54.6L60.6 54.6Q61.2 54.6 61.7 54.8Q62.3 55.0 62.7 55.3Q63.1 55.6 63.4 56.1Q63.6 56.5 63.7 57.1L63.7 57.1L62.2 57.1Q62.1 56.8 62.0 56.6Q61.8 56.4 61.6 56.2Q61.4 56.1 61.2 56.0Q60.9 56.0 60.6 56.0L60.6 56.0Q60.1 56.0 59.6 56.2Q59.2 56.5 59.0 57.0Q58.7 57.6 58.7 58.4Q58.7 59.1 59.0 59.7Q59.2 60.2 59.6 60.5Q60.0 60.8 60.6 60.8L60.6 60.8Q61.2 60.8 61.5 60.6Q61.9 60.4 62.1 60.0L62.1 60.0Q62.3 59.7 62.3 59.3L62.3 59.3L60.7 59.3L60.7 58.1L63.8 58.1L63.8 59.0Q63.8 60.0 63.4 60.7Q63.0 61.4 62.2 61.7Q61.5 62.1 60.6 62.1ZM68.9 62.1L68.9 62.1Q68.0 62.1 67.3 61.8Q66.7 61.4 66.3 60.8Q65.9 60.2 65.9 59.4L65.9 59.4L65.9 54.7L67.4 54.7L67.4 59.3Q67.4 59.7 67.6 60.1Q67.8 60.4 68.1 60.6Q68.5 60.8 68.9 60.8L68.9 60.8Q69.4 60.8 69.7 60.6Q70.0 60.4 70.2 60.1Q70.4 59.7 70.4 59.3L70.4 59.3L70.4 54.7L71.9 54.7L71.9 59.4Q71.9 60.2 71.5 60.8Q71.2 61.4 70.5 61.8Q69.8 62.1 68.9 62.1ZM75.5 62L73.8 62L76.3 54.7L78.2 54.7L80.8 62L79.1 62L78.6 60.3L76.0 60.3L75.5 62ZM76.4 59.1L78.2 59.1L78.0 58.5Q77.8 57.8 77.5 57L77.5 57Q77.4 56.5 77.3 55.9L77.3 55.9Q77.1 56.5 77.0 57.0L77.0 57.0Q76.8 57.8 76.6 58.5L76.6 58.5L76.4 59.1ZM85.9 62.1L85.9 62.1Q84.9 62.1 84.1 61.6Q83.4 61.2 82.9 60.4Q82.5 59.5 82.5 58.4L82.5 58.4Q82.5 57.2 82.9 56.4Q83.4 55.5 84.2 55.1Q84.9 54.6 85.9 54.6L85.9 54.6Q86.5 54.6 87.0 54.8Q87.6 55.0 88.0 55.3Q88.4 55.6 88.6 56.1Q88.9 56.5 89.0 57.1L89.0 57.1L87.5 57.1Q87.4 56.8 87.2 56.6Q87.1 56.4 86.9 56.2Q86.7 56.1 86.5 56.0Q86.2 56.0 85.9 56.0L85.9 56.0Q85.3 56.0 84.9 56.2Q84.5 56.5 84.2 57.0Q84.0 57.6 84.0 58.4Q84.0 59.1 84.2 59.7Q84.5 60.2 84.9 60.5Q85.3 60.8 85.9 60.8L85.9 60.8Q86.5 60.8 86.8 60.6Q87.2 60.4 87.4 60.0L87.4 60.0Q87.6 59.7 87.6 59.3L87.6 59.3L86.0 59.3L86.0 58.1L89.1 58.1L89.1 59.0Q89.1 60.0 88.6 60.7Q88.2 61.4 87.5 61.7Q86.8 62.1 85.9 62.1ZM96.1 62L91.2 62L91.2 54.7L96.1 54.7L96.1 56.0L92.7 56.0L92.7 57.7L95.8 57.7L95.8 58.9L92.7 58.9L92.7 60.8L96.1 60.8L96.1 62ZM100.9 62.1L100.9 62.1Q100.1 62.1 99.4 61.8Q98.8 61.6 98.4 61.0Q98.0 60.5 98.0 59.7L98.0 59.7L99.5 59.7Q99.5 60.1 99.7 60.4Q99.9 60.6 100.2 60.7Q100.5 60.8 100.9 60.8L100.9 60.8Q101.3 60.8 101.6 60.7Q101.9 60.6 102.1 60.4Q102.2 60.2 102.2 59.9L102.2 59.9Q102.2 59.7 102.1 59.5Q101.9 59.3 101.7 59.2Q101.4 59.1 101.0 59.0L101.0 59.0L100.2 58.8Q99.3 58.6 98.7 58.1Q98.2 57.6 98.2 56.8L98.2 56.8Q98.2 56.2 98.6 55.7Q98.9 55.2 99.5 54.9Q100.2 54.6 101.0 54.6L101.0 54.6Q101.8 54.6 102.4 54.9Q103.0 55.2 103.3 55.7Q103.6 56.2 103.6 56.8L103.6 56.8L102.2 56.8Q102.2 56.4 101.8 56.1Q101.5 55.9 100.9 55.9L100.9 55.9Q100.6 55.9 100.3 56.0Q100.0 56.1 99.9 56.3Q99.8 56.5 99.8 56.7L99.8 56.7Q99.8 57.0 99.9 57.2Q100.1 57.3 100.3 57.5Q100.6 57.6 100.9 57.6L100.9 57.6L101.6 57.8Q102.0 57.9 102.4 58.1Q102.8 58.3 103.1 58.5Q103.4 58.8 103.6 59.1Q103.7 59.5 103.7 59.9L103.7 59.9Q103.7 60.6 103.4 61.1Q103.1 61.6 102.5 61.8Q101.8 62.1 100.9 62.1Z "/></g><mask id="satori_om-id-2-0-1"><rect x="129" y="45" width="669" height="25" fill="#fff" mask="url(#satori_om-id)"/></mask><defs><clipPath id="satori_bc-id-2-0-1-0" clip-path="url(#satori_cp-id)"><path x="129" y="45" width="57" height="25" d="M135,45 h45 a6,6 0 0 1 6,6 v13 a6,6 0 0 1 -6,6 h-45 a6,6 0 0 1 -6,-6 v-13 a6,6 0 0 1 6,-6"/></clipPath></defs><mask id="satori_om-id-2-0-1-0"><rect x="130" y="46" width="55" height="23" fill="#fff" mask="url(#satori_om-id)"/><path width="57" height="25" fill="none" stroke="#000" stroke-width="2" d="M130.757,46.757 A6,6 0 0 1 135,45 h45 a6,6 0 0 1 6,6 v13 a6,6 0 0 1 -6,6 h-45 a6,6 0 0 1 -6,-6 v-13 A6,6 0 0 1 130.757,46.757"/></mask><path x="129" y="45" width="57" height="25" fill="rgba(255,255,255,0.05)" d="M135,45 h45 a6,6 0 0 1 6,6 v13 a6,6 0 0 1 -6,6 h-45 a6,6 0 0 1 -6,-6 v-13 a6,6 0 0 1 6,-6" clip-path="url(#satori_cp-id)" mask="url(#satori_om-id)"/><path width="57" height="25" clip-path="url(#satori_bc-id-2-0-1-0)" fill="none" stroke="rgba(255,255,255,0.12)" stroke-width="2" d="M130.757,46.757 A6,6 0 0 1 135,45 h45 a6,6 0 0 1 6,6 v13 a6,6 0 0 1 -6,6 h-45 a6,6 0 0 1 -6,-6 v-13 A6,6 0 0 1 130.757,46.757"/><g mask="url(#satori_om-id)" clip-path="url(#satori_cp-id)"><path fill="rgba(235,235,235,0.82)" d="M146.3 62.1L146.3 62.1Q145.0 62.1 144.2 61.4Q143.4 60.7 143.4 59.4L143.4 59.4L143.4 58.9L145.2 58.9L145.2 59.4Q145.2 60.0 145.5 60.4Q145.8 60.7 146.3 60.7L146.3 60.7Q146.8 60.7 147.1 60.4Q147.5 60.0 147.5 59.4L147.5 59.4L147.5 53.3L149.2 53.3L149.2 59.4Q149.2 60.7 148.4 61.4Q147.7 62.1 146.3 62.1ZM152.6 62.1L152.6 62.1Q152.0 62.1 151.5 61.9Q151.0 61.7 150.7 61.3Q150.4 60.8 150.4 60.2L150.4 60.2Q150.4 59.6 150.6 59.3Q150.8 58.9 151.2 58.7Q151.5 58.4 152.0 58.3Q152.4 58.2 152.9 58.2L152.9 58.2Q153.5 58.1 153.8 58.0Q154.2 58.0 154.3 57.9Q154.5 57.8 154.5 57.6L154.5 57.6L154.5 57.5Q154.5 57.3 154.4 57.1Q154.2 56.9 154.0 56.8Q153.8 56.7 153.4 56.7L153.4 56.7Q153.1 56.7 152.9 56.8Q152.6 56.9 152.4 57.0Q152.3 57.2 152.2 57.4L152.2 57.4L150.6 57.2Q150.8 56.6 151.2 56.2Q151.6 55.8 152.1 55.6Q152.7 55.4 153.5 55.4L153.5 55.4Q154.0 55.4 154.5 55.5Q155.0 55.6 155.4 55.9Q155.8 56.1 156.0 56.6Q156.2 57.0 156.2 57.6L156.2 57.6L156.2 62L154.6 62L154.6 61.1L154.5 61.1Q154.3 61.4 154.1 61.6Q153.8 61.9 153.5 62.0Q153.1 62.1 152.6 62.1ZM153.1 60.9L153.1 60.9Q153.5 60.9 153.8 60.7Q154.1 60.6 154.3 60.3Q154.5 60.0 154.5 59.7L154.5 59.7L154.5 58.9Q154.4 59.0 154.3 59.1Q154.1 59.1 153.9 59.1Q153.7 59.2 153.5 59.2Q153.3 59.2 153.2 59.2L153.2 59.2Q152.9 59.3 152.6 59.4Q152.4 59.5 152.2 59.7Q152.1 59.8 152.1 60.1L152.1 60.1Q152.1 60.4 152.2 60.5Q152.4 60.7 152.6 60.8Q152.8 60.9 153.1 60.9ZM161.6 62L159.6 62L157.2 55.4L159.0 55.4L160.1 58.8Q160.3 59.5 160.5 60.1L160.5 60.1Q160.5 60.4 160.6 60.6L160.6 60.6Q160.7 60.4 160.7 60.1L160.7 60.1Q160.9 59.5 161.1 58.8L161.1 58.8L162.1 55.4L164.0 55.4L161.6 62ZM166.8 62.1L166.8 62.1Q166.1 62.1 165.6 61.9Q165.1 61.7 164.9 61.3Q164.6 60.8 164.6 60.2L164.6 60.2Q164.6 59.6 164.8 59.3Q165.0 58.9 165.3 58.7Q165.7 58.4 166.1 58.3Q166.6 58.2 167.0 58.2L167.0 58.2Q167.6 58.1 168.0 58.0Q168.3 58.0 168.5 57.9Q168.6 57.8 168.6 57.6L168.6 57.6L168.6 57.5Q168.6 57.3 168.5 57.1Q168.4 56.9 168.2 56.8Q167.9 56.7 167.6 56.7L167.6 56.7Q167.3 56.7 167.0 56.8Q166.8 56.9 166.6 57.0Q166.4 57.2 166.4 57.4L166.4 57.4L164.8 57.2Q164.9 56.6 165.3 56.2Q165.7 55.8 166.3 55.6Q166.9 55.4 167.6 55.4L167.6 55.4Q168.1 55.4 168.6 55.5Q169.1 55.6 169.5 55.9Q169.9 56.1 170.2 56.6Q170.4 57.0 170.4 57.6L170.4 57.6L170.4 62L168.7 62L168.7 61.1L168.7 61.1Q168.5 61.4 168.2 61.6Q168.0 61.9 167.6 62.0Q167.2 62.1 166.8 62.1ZM167.3 60.9L167.3 60.9Q167.7 60.9 168.0 60.7Q168.3 60.6 168.5 60.3Q168.6 60.0 168.6 59.7L168.6 59.7L168.6 58.9Q168.6 59.0 168.4 59.1Q168.3 59.1 168.1 59.1Q167.9 59.2 167.7 59.2Q167.5 59.2 167.3 59.2L167.3 59.2Q167.0 59.3 166.8 59.4Q166.5 59.5 166.4 59.7Q166.3 59.8 166.3 60.1L166.3 60.1Q166.3 60.4 166.4 60.5Q166.5 60.7 166.7 60.8Q167.0 60.9 167.3 60.9Z "/></g><defs><clipPath id="satori_bc-id-2-0-1-1" clip-path="url(#satori_cp-id)"><path x="193" y="45" width="37" height="25" d="M199,45 h25 a6,6 0 0 1 6,6 v13 a6,6 0 0 1 -6,6 h-25 a6,6 0 0 1 -6,-6 v-13 a6,6 0 0 1 6,-6"/></clipPath></defs><mask id="satori_om-id-2-0-1-1"><rect x="194" y="46" width="35" height="23" fill="#fff" mask="url(#satori_om-id)"/><path width="37" height="25" fill="none" stroke="#000" stroke-width="2" d="M194.757,46.757 A6,6 0 0 1 199,45 h25 a6,6 0 0 1 6,6 v13 a6,6 0 0 1 -6,6 h-25 a6,6 0 0 1 -6,-6 v-13 A6,6 0 0 1 194.757,46.757"/></mask><path x="193" y="45" width="37" height="25" fill="rgba(255,255,255,0.05)" d="M199,45 h25 a6,6 0 0 1 6,6 v13 a6,6 0 0 1 -6,6 h-25 a6,6 0 0 1 -6,-6 v-13 a6,6 0 0 1 6,-6" clip-path="url(#satori_cp-id)" mask="url(#satori_om-id)"/><path width="37" height="25" clip-path="url(#satori_bc-id-2-0-1-1)" fill="none" stroke="rgba(255,255,255,0.12)" stroke-width="2" d="M194.757,46.757 A6,6 0 0 1 199,45 h25 a6,6 0 0 1 6,6 v13 a6,6 0 0 1 -6,6 h-25 a6,6 0 0 1 -6,-6 v-13 A6,6 0 0 1 194.757,46.757"/><g mask="url(#satori_om-id)" clip-path="url(#satori_cp-id)"><path fill="rgba(235,235,235,0.82)" d="M211.6 62.1L211.6 62.1Q210.4 62.1 209.5 61.6Q208.6 61.1 208.1 60.1Q207.6 59.1 207.6 57.6L207.6 57.6Q207.6 56.2 208.1 55.2Q208.6 54.2 209.5 53.7Q210.5 53.2 211.6 53.2L211.6 53.2Q212.3 53.2 213.0 53.4Q213.6 53.6 214.1 54.0Q214.6 54.4 214.9 54.9Q215.3 55.5 215.4 56.3L215.4 56.3L213.6 56.3Q213.5 55.9 213.3 55.6Q213.2 55.3 212.9 55.1Q212.7 54.9 212.3 54.8Q212.0 54.7 211.6 54.7L211.6 54.7Q211.0 54.7 210.4 55.1Q209.9 55.4 209.7 56.1Q209.4 56.7 209.4 57.6L209.4 57.6Q209.4 58.6 209.7 59.2Q209.9 59.9 210.5 60.2Q211.0 60.5 211.6 60.5L211.6 60.5Q212.0 60.5 212.3 60.4Q212.6 60.3 212.9 60.1Q213.2 59.9 213.3 59.7Q213.5 59.4 213.6 59.0L213.6 59.0L215.4 59.0Q215.3 59.6 215.0 60.2Q214.7 60.7 214.2 61.2Q213.8 61.6 213.1 61.9Q212.4 62.1 211.6 62.1Z "/></g><defs><clipPath id="satori_bc-id-2-0-1-2" clip-path="url(#satori_cp-id)"><path x="237" y="45" width="52" height="25" d="M243,45 h40 a6,6 0 0 1 6,6 v13 a6,6 0 0 1 -6,6 h-40 a6,6 0 0 1 -6,-6 v-13 a6,6 0 0 1 6,-6"/></clipPath></defs><mask id="satori_om-id-2-0-1-2"><rect x="238" y="46" width="50" height="23" fill="#fff" mask="url(#satori_om-id)"/><path width="52" height="25" fill="none" stroke="#000" stroke-width="2" d="M238.757,46.757 A6,6 0 0 1 243,45 h40 a6,6 0 0 1 6,6 v13 a6,6 0 0 1 -6,6 h-40 a6,6 0 0 1 -6,-6 v-13 A6,6 0 0 1 238.757,46.757"/></mask><path x="237" y="45" width="52" height="25" fill="rgba(255,255,255,0.05)" d="M243,45 h40 a6,6 0 0 1 6,6 v13 a6,6 0 0 1 -6,6 h-40 a6,6 0 0 1 -6,-6 v-13 a6,6 0 0 1 6,-6" clip-path="url(#satori_cp-id)" mask="url(#satori_om-id)"/><path width="52" height="25" clip-path="url(#satori_bc-id-2-0-1-2)" fill="none" stroke="rgba(255,255,255,0.12)" stroke-width="2" d="M238.757,46.757 A6,6 0 0 1 243,45 h40 a6,6 0 0 1 6,6 v13 a6,6 0 0 1 -6,6 h-40 a6,6 0 0 1 -6,-6 v-13 A6,6 0 0 1 238.757,46.757"/><g mask="url(#satori_om-id)" clip-path="url(#satori_cp-id)"><path fill="rgba(235,235,235,0.82)" d="M255.0 62.1L255.0 62.1Q253.9 62.1 253.2 61.8Q252.4 61.5 252.0 60.9Q251.5 60.2 251.5 59.3L251.5 59.3L253.2 59.3Q253.3 59.7 253.5 60.0Q253.7 60.3 254.1 60.5Q254.5 60.6 255.0 60.6L255.0 60.6Q255.5 60.6 255.8 60.5Q256.2 60.3 256.4 60.1Q256.6 59.8 256.6 59.5L256.6 59.5Q256.6 59.2 256.4 59.0Q256.2 58.8 255.9 58.7Q255.5 58.5 255.1 58.4L255.1 58.4L254.1 58.2Q253.0 57.9 252.4 57.3Q251.7 56.7 251.7 55.8L251.7 55.8Q251.7 55.0 252.2 54.4Q252.6 53.8 253.3 53.5Q254.1 53.2 255.0 53.2L255.0 53.2Q256.0 53.2 256.7 53.5Q257.4 53.8 257.8 54.4Q258.2 55.0 258.2 55.8L258.2 55.8L256.5 55.8Q256.5 55.2 256.1 54.9Q255.7 54.7 255.0 54.7L255.0 54.7Q254.5 54.7 254.2 54.8Q253.9 54.9 253.7 55.1Q253.6 55.4 253.6 55.7L253.6 55.7Q253.6 56.0 253.8 56.2Q254.0 56.4 254.3 56.5Q254.6 56.7 255.0 56.8L255.0 56.8L255.8 57.0Q256.3 57.1 256.8 57.3Q257.3 57.5 257.6 57.8Q258.0 58.1 258.2 58.5Q258.4 59.0 258.4 59.5L258.4 59.5Q258.4 60.3 258.0 60.9Q257.6 61.5 256.8 61.8Q256.1 62.1 255.0 62.1ZM263.5 62.1L263.5 62.1Q262.3 62.1 261.4 61.6Q260.5 61.1 259.9 60.1Q259.4 59.1 259.4 57.6L259.4 57.6Q259.4 56.2 259.9 55.2Q260.5 54.2 261.4 53.7Q262.3 53.2 263.5 53.2L263.5 53.2Q264.6 53.2 265.6 53.7Q266.5 54.2 267.0 55.2Q267.6 56.2 267.6 57.6L267.6 57.6Q267.6 59.1 267.0 60.1L267.0 60.1Q266.7 60.7 266.2 61.1L266.2 61.1L267.4 62.7L265.8 62.7L265.1 61.8Q264.3 62.1 263.5 62.1ZM264.0 60.5L262.9 59L264.5 59L265.1 59.8Q265.3 59.6 265.5 59.2L265.5 59.2Q265.7 58.6 265.7 57.6L265.7 57.6Q265.7 56.7 265.5 56.0Q265.2 55.4 264.7 55.1Q264.2 54.7 263.5 54.7L263.5 54.7Q262.8 54.7 262.3 55.1Q261.8 55.4 261.5 56.1Q261.2 56.7 261.2 57.6L261.2 57.6Q261.2 58.6 261.5 59.2Q261.8 59.9 262.3 60.2Q262.8 60.5 263.5 60.5L263.5 60.5Q263.8 60.5 264.0 60.5L264.0 60.5ZM274.5 62L269.0 62L269.0 53.3L270.8 53.3L270.8 60.5L274.5 60.5L274.5 62Z "/></g><defs><clipPath id="satori_bc-id-2-0-1-3" clip-path="url(#satori_cp-id)"><path x="296" y="45" width="87" height="25" d="M302,45 h75 a6,6 0 0 1 6,6 v13 a6,6 0 0 1 -6,6 h-75 a6,6 0 0 1 -6,-6 v-13 a6,6 0 0 1 6,-6"/></clipPath></defs><mask id="satori_om-id-2-0-1-3"><rect x="297" y="46" width="85" height="23" fill="#fff" mask="url(#satori_om-id)"/><path width="87" height="25" fill="none" stroke="#000" stroke-width="2" d="M297.757,46.757 A6,6 0 0 1 302,45 h75 a6,6 0 0 1 6,6 v13 a6,6 0 0 1 -6,6 h-75 a6,6 0 0 1 -6,-6 v-13 A6,6 0 0 1 297.757,46.757"/></mask><path x="296" y="45" width="87" height="25" fill="rgba(255,255,255,0.05)" d="M302,45 h75 a6,6 0 0 1 6,6 v13 a6,6 0 0 1 -6,6 h-75 a6,6 0 0 1 -6,-6 v-13 a6,6 0 0 1 6,-6" clip-path="url(#satori_cp-id)" mask="url(#satori_om-id)"/><path width="87" height="25" clip-path="url(#satori_bc-id-2-0-1-3)" fill="none" stroke="rgba(255,255,255,0.12)" stroke-width="2" d="M297.757,46.757 A6,6 0 0 1 302,45 h75 a6,6 0 0 1 6,6 v13 a6,6 0 0 1 -6,6 h-75 a6,6 0 0 1 -6,-6 v-13 A6,6 0 0 1 297.757,46.757"/><g mask="url(#satori_om-id)" clip-path="url(#satori_cp-id)"><path fill="rgba(235,235,235,0.82)" d="M312.3 62L310.3 62L313.3 53.3L315.6 53.3L318.7 62L316.7 62L316.0 60.0L312.9 60.0L312.3 62ZM313.4 58.6L315.5 58.6L315.3 57.8Q315.0 57.0 314.8 56L314.8 56Q314.6 55.4 314.4 54.7L314.4 54.7Q314.2 55.4 314.1 56.0L314.1 56.0Q313.8 57.0 313.6 57.8L313.6 57.8L313.4 58.6ZM322.3 62.1L322.3 62.1Q321.5 62.1 320.9 61.9Q320.3 61.7 319.9 61.2Q319.5 60.8 319.4 60.2L319.4 60.2L321.1 59.9Q321.2 60.4 321.5 60.6Q321.8 60.8 322.4 60.8L322.4 60.8Q322.9 60.8 323.2 60.6Q323.4 60.5 323.4 60.2L323.4 60.2Q323.4 59.9 323.2 59.7Q323.0 59.6 322.6 59.5L322.6 59.5L321.5 59.3Q320.5 59.1 320.1 58.6Q319.6 58.1 319.6 57.4L319.6 57.4Q319.6 56.8 319.9 56.3Q320.3 55.9 320.9 55.6Q321.5 55.4 322.3 55.4L322.3 55.4Q323.1 55.4 323.7 55.6Q324.3 55.8 324.6 56.2Q325.0 56.6 325.1 57.1L325.1 57.1L323.5 57.4Q323.4 57.1 323.1 56.8Q322.8 56.6 322.4 56.6L322.4 56.6Q321.9 56.6 321.6 56.8Q321.3 57.0 321.3 57.3L321.3 57.3Q321.3 57.5 321.5 57.7Q321.7 57.9 322.2 58.0L322.2 58.0L323.4 58.2Q324.3 58.4 324.8 58.8Q325.2 59.3 325.2 60.0L325.2 60.0Q325.2 60.6 324.9 61.1Q324.5 61.6 323.8 61.9Q323.2 62.1 322.3 62.1ZM329.0 62.1L329.0 62.1Q328.2 62.1 327.6 61.9Q327.0 61.7 326.6 61.2Q326.2 60.8 326.1 60.2L326.1 60.2L327.8 59.9Q327.9 60.4 328.2 60.6Q328.5 60.8 329.1 60.8L329.1 60.8Q329.6 60.8 329.9 60.6Q330.2 60.5 330.2 60.2L330.2 60.2Q330.2 59.9 330.0 59.7Q329.8 59.6 329.3 59.5L329.3 59.5L328.2 59.3Q327.2 59.1 326.8 58.6Q326.3 58.1 326.3 57.4L326.3 57.4Q326.3 56.8 326.7 56.3Q327.0 55.9 327.6 55.6Q328.2 55.4 329.1 55.4L329.1 55.4Q329.8 55.4 330.4 55.6Q331.0 55.8 331.3 56.2Q331.7 56.6 331.8 57.1L331.8 57.1L330.2 57.4Q330.1 57.1 329.8 56.8Q329.6 56.6 329.1 56.6L329.1 56.6Q328.7 56.6 328.4 56.8Q328.1 57.0 328.1 57.3L328.1 57.3Q328.1 57.5 328.3 57.7Q328.4 57.9 328.9 58.0L328.9 58.0L330.1 58.2Q331.0 58.4 331.5 58.8Q332.0 59.3 332.0 60.0L332.0 60.0Q332.0 60.6 331.6 61.1Q331.2 61.6 330.6 61.9Q329.9 62.1 329.0 62.1ZM336.1 62.1L336.1 62.1Q335.1 62.1 334.4 61.7Q333.7 61.3 333.3 60.6Q332.9 59.8 332.9 58.8L332.9 58.8Q332.9 57.7 333.3 57.0Q333.6 56.2 334.4 55.8Q335.1 55.4 336.0 55.4L336.0 55.4Q336.7 55.4 337.2 55.6Q337.8 55.8 338.2 56.2Q338.6 56.6 338.9 57.2Q339.1 57.8 339.1 58.7L339.1 58.7L339.1 59.2L334.6 59.2Q334.6 59.7 334.8 60.0L334.8 60.0Q335.0 60.4 335.3 60.6Q335.7 60.8 336.1 60.8L336.1 60.8Q336.4 60.8 336.7 60.7Q337.0 60.6 337.1 60.5Q337.3 60.3 337.4 60.0L337.4 60.0L339.0 60.3Q338.8 60.9 338.4 61.3Q338.1 61.7 337.5 61.9Q336.9 62.1 336.1 62.1ZM334.6 58.1L334.6 58.1L337.4 58.1Q337.4 57.8 337.3 57.5L337.3 57.5Q337.1 57.1 336.8 56.9Q336.5 56.7 336.0 56.7L336.0 56.7Q335.6 56.7 335.3 56.9Q334.9 57.1 334.8 57.5L334.8 57.5Q334.7 57.7 334.6 58.1ZM342.1 62L340.3 62L340.3 55.4L341.9 55.4L342.0 56.7Q342.1 56.4 342.3 56.1L342.3 56.1Q342.6 55.7 343.0 55.5Q343.4 55.3 343.9 55.3L343.9 55.3Q344.6 55.3 345.0 55.8L345.0 55.8Q345.4 56.2 345.6 56.8L345.6 56.8Q345.7 56.4 345.9 56.1L345.9 56.1Q346.3 55.7 346.7 55.5Q347.2 55.3 347.7 55.3L347.7 55.3Q348.3 55.3 348.7 55.6Q349.2 55.9 349.5 56.4Q349.8 56.9 349.8 57.6L349.8 57.6L349.8 62L348.0 62L348.0 57.9Q348.0 57.4 347.7 57.1Q347.4 56.8 346.9 56.8L346.9 56.8Q346.6 56.8 346.4 57.0Q346.1 57.1 346.0 57.4Q345.9 57.6 345.9 58.0L345.9 58.0L345.9 62L344.2 62L344.2 57.9Q344.2 57.4 343.9 57.1Q343.6 56.8 343.2 56.8L343.2 56.8Q342.8 56.8 342.6 57.0Q342.3 57.1 342.2 57.4Q342.1 57.6 342.1 58.0L342.1 58.0L342.1 62ZM354.9 62.1L354.9 62.1Q354.4 62.1 354.0 61.9Q353.6 61.7 353.4 61.5Q353.2 61.2 353.1 61.0L353.1 61.0L353.0 61.0L353.0 62L351.3 62L351.3 53.3L353.0 53.3L353.0 56.6L353.1 56.6Q353.2 56.3 353.4 56.0Q353.6 55.7 354.0 55.6Q354.4 55.4 354.9 55.4L354.9 55.4Q355.7 55.4 356.3 55.7Q356.9 56.1 357.2 56.9Q357.6 57.6 357.6 58.7L357.6 58.7Q357.6 59.8 357.2 60.6Q356.9 61.3 356.3 61.7Q355.7 62.1 354.9 62.1ZM354.4 60.7L354.4 60.7Q354.8 60.7 355.1 60.4Q355.5 60.2 355.6 59.8Q355.8 59.3 355.8 58.7L355.8 58.7Q355.8 58.2 355.6 57.7Q355.5 57.3 355.2 57.0Q354.8 56.8 354.4 56.8L354.4 56.8Q353.9 56.8 353.6 57.0Q353.3 57.3 353.1 57.7Q353.0 58.1 353.0 58.7L353.0 58.7Q353.0 59.3 353.1 59.8Q353.3 60.2 353.6 60.5Q353.9 60.7 354.4 60.7ZM358.8 53.3L360.6 53.3L360.6 62L358.8 62L358.8 53.3ZM362.0 64.3L362.0 64.3L362.4 63.0L362.6 63.0Q363.0 63.1 363.3 63.1Q363.5 63.1 363.7 62.9Q363.9 62.7 363.9 62.4L363.9 62.4L364.0 62.0L361.5 55.4L363.4 55.4L364.5 58.8Q364.7 59.5 364.8 60.1L364.8 60.1Q364.8 60.4 364.9 60.6L364.9 60.6Q364.9 60.4 365.0 60.1L365.0 60.1Q365.1 59.5 365.4 58.8L365.4 58.8L366.5 55.4L368.4 55.4L365.6 62.8Q365.4 63.3 365.1 63.7Q364.8 64.1 364.3 64.3Q363.8 64.5 363.2 64.5L363.2 64.5Q362.8 64.5 362.5 64.4Q362.2 64.4 362.0 64.3Z "/></g><defs><clipPath id="satori_bc-id-2-0-1-4" clip-path="url(#satori_cp-id)"><path x="390" y="45" width="67" height="25" d="M396,45 h55 a6,6 0 0 1 6,6 v13 a6,6 0 0 1 -6,6 h-55 a6,6 0 0 1 -6,-6 v-13 a6,6 0 0 1 6,-6"/></clipPath></defs><mask id="satori_om-id-2-0-1-4"><rect x="391" y="46" width="65" height="23" fill="#fff" mask="url(#satori_om-id)"/><path width="67" height="25" fill="none" stroke="#000" stroke-width="2" d="M391.757,46.757 A6,6 0 0 1 396,45 h55 a6,6 0 0 1 6,6 v13 a6,6 0 0 1 -6,6 h-55 a6,6 0 0 1 -6,-6 v-13 A6,6 0 0 1 391.757,46.757"/></mask><path x="390" y="45" width="67" height="25" fill="rgba(255,255,255,0.05)" d="M396,45 h55 a6,6 0 0 1 6,6 v13 a6,6 0 0 1 -6,6 h-55 a6,6 0 0 1 -6,-6 v-13 a6,6 0 0 1 6,-6" clip-path="url(#satori_cp-id)" mask="url(#satori_om-id)"/><path width="67" height="25" clip-path="url(#satori_bc-id-2-0-1-4)" fill="none" stroke="rgba(255,255,255,0.12)" stroke-width="2" d="M391.757,46.757 A6,6 0 0 1 396,45 h55 a6,6 0 0 1 6,6 v13 a6,6 0 0 1 -6,6 h-55 a6,6 0 0 1 -6,-6 v-13 A6,6 0 0 1 391.757,46.757"/><g mask="url(#satori_om-id)" clip-path="url(#satori_cp-id)"><path fill="rgba(235,235,235,0.82)" d="M406.6 62L404.8 62L404.8 53.3L408.2 53.3Q409.2 53.3 409.9 53.6Q410.6 54.0 411.0 54.7Q411.3 55.4 411.3 56.2L411.3 56.2Q411.3 57.1 410.9 57.7Q410.6 58.4 409.9 58.8Q409.2 59.1 408.2 59.1L408.2 59.1L406.6 59.1L406.6 62ZM406.6 54.7L406.6 57.7L407.9 57.7Q408.4 57.7 408.8 57.5Q409.1 57.3 409.3 57.0Q409.5 56.7 409.5 56.2Q409.5 55.8 409.3 55.4Q409.1 55.1 408.8 54.9Q408.4 54.7 407.9 54.7L407.9 54.7L406.6 54.7ZM414.3 62L412.5 62L412.5 55.4L414.2 55.4L414.2 56.6L414.3 56.6Q414.5 56.0 414.9 55.7Q415.3 55.4 415.9 55.4L415.9 55.4Q416.0 55.4 416.2 55.4Q416.3 55.4 416.4 55.4L416.4 55.4L416.4 57.0Q416.3 56.9 416.1 56.9Q415.9 56.9 415.7 56.9L415.7 56.9Q415.3 56.9 415.0 57.1Q414.6 57.2 414.5 57.6Q414.3 57.9 414.3 58.3L414.3 58.3L414.3 62ZM420.3 62.1L420.3 62.1Q419.4 62.1 418.6 61.7Q417.9 61.3 417.5 60.5Q417.1 59.8 417.1 58.8L417.1 58.8Q417.1 57.7 417.5 57.0Q417.9 56.2 418.6 55.8Q419.4 55.4 420.3 55.4L420.3 55.4Q421.3 55.4 422.0 55.8Q422.8 56.2 423.2 57.0Q423.5 57.7 423.5 58.8L423.5 58.8Q423.5 59.8 423.2 60.5Q422.8 61.3 422.0 61.7Q421.3 62.1 420.3 62.1ZM420.3 60.7L420.3 60.7Q420.8 60.7 421.1 60.5Q421.4 60.2 421.6 59.8Q421.8 59.3 421.8 58.7L421.8 58.7Q421.8 58.2 421.6 57.7Q421.4 57.3 421.1 57.0Q420.8 56.8 420.3 56.8L420.3 56.8Q419.9 56.8 419.6 57.0Q419.2 57.3 419.1 57.7Q418.9 58.2 418.9 58.7L418.9 58.7Q418.9 59.3 419.1 59.8Q419.2 60.2 419.6 60.5Q419.9 60.7 420.3 60.7ZM424.8 53.3L426.5 53.3L426.5 62L424.8 62L424.8 53.3ZM431.0 62.1L431.0 62.1Q430.0 62.1 429.2 61.7Q428.5 61.3 428.1 60.5Q427.7 59.8 427.7 58.8L427.7 58.8Q427.7 57.7 428.1 57.0Q428.5 56.2 429.2 55.8Q430.0 55.4 431.0 55.4L431.0 55.4Q431.9 55.4 432.7 55.8Q433.4 56.2 433.8 57.0Q434.2 57.7 434.2 58.8L434.2 58.8Q434.2 59.8 433.8 60.5Q433.4 61.3 432.7 61.7Q431.9 62.1 431.0 62.1ZM431.0 60.7L431.0 60.7Q431.4 60.7 431.7 60.5Q432.1 60.2 432.2 59.8Q432.4 59.3 432.4 58.7L432.4 58.7Q432.4 58.2 432.2 57.7Q432.1 57.3 431.7 57.0Q431.4 56.8 431.0 56.8L431.0 56.8Q430.5 56.8 430.2 57.0Q429.9 57.3 429.7 57.7Q429.5 58.2 429.5 58.7L429.5 58.7Q429.5 59.3 429.7 59.8Q429.9 60.2 430.2 60.5Q430.5 60.7 431.0 60.7ZM438.3 64.6L438.3 64.6Q437.5 64.6 436.9 64.4Q436.3 64.2 435.9 63.8Q435.5 63.4 435.3 63.0L435.3 63.0L436.9 62.6Q436.9 62.7 437.1 62.9Q437.3 63.1 437.6 63.2Q437.9 63.3 438.3 63.3L438.3 63.3Q439.0 63.3 439.3 63.0Q439.7 62.7 439.7 62.0L439.7 62.0L439.7 60.8L439.6 60.8Q439.5 61.1 439.3 61.3Q439.0 61.6 438.7 61.8Q438.3 61.9 437.8 61.9L437.8 61.9Q437.0 61.9 436.4 61.6Q435.8 61.2 435.5 60.5Q435.1 59.8 435.1 58.7L435.1 58.7Q435.1 57.6 435.5 56.9Q435.8 56.1 436.4 55.7Q437.1 55.4 437.8 55.4L437.8 55.4Q438.3 55.4 438.7 55.6Q439.1 55.7 439.3 56.0Q439.5 56.3 439.7 56.6L439.7 56.6L439.7 56.6L439.7 55.4L441.5 55.4L441.5 61.9Q441.5 62.8 441.1 63.4Q440.7 64.0 439.9 64.3Q439.2 64.6 438.3 64.6ZM438.3 60.6L438.3 60.6Q438.8 60.6 439.1 60.3Q439.4 60.1 439.6 59.7Q439.7 59.3 439.7 58.7L439.7 58.7Q439.7 58.1 439.6 57.7Q439.4 57.3 439.1 57.0Q438.8 56.8 438.3 56.8L438.3 56.8Q437.9 56.8 437.5 57.0Q437.2 57.3 437.1 57.7Q436.9 58.1 436.9 58.7L436.9 58.7Q436.9 59.3 437.1 59.7Q437.2 60.1 437.6 60.3Q437.9 60.6 438.3 60.6Z "/></g><defs><clipPath id="satori_bc-id-2-0-1-5" clip-path="url(#satori_cp-id)"><path x="464" y="45" width="115" height="25" d="M470,45 h103 a6,6 0 0 1 6,6 v13 a6,6 0 0 1 -6,6 h-103 a6,6 0 0 1 -6,-6 v-13 a6,6 0 0 1 6,-6"/></clipPath></defs><mask id="satori_om-id-2-0-1-5"><rect x="465" y="46" width="113" height="23" fill="#fff" mask="url(#satori_om-id)"/><path width="115" height="25" fill="none" stroke="#000" stroke-width="2" d="M465.757,46.757 A6,6 0 0 1 470,45 h103 a6,6 0 0 1 6,6 v13 a6,6 0 0 1 -6,6 h-103 a6,6 0 0 1 -6,-6 v-13 A6,6 0 0 1 465.757,46.757"/></mask><path x="464" y="45" width="115" height="25" fill="rgba(255,255,255,0.05)" d="M470,45 h103 a6,6 0 0 1 6,6 v13 a6,6 0 0 1 -6,6 h-103 a6,6 0 0 1 -6,-6 v-13 a6,6 0 0 1 6,-6" clip-path="url(#satori_cp-id)" mask="url(#satori_om-id)"/><path width="115" height="25" clip-path="url(#satori_bc-id-2-0-1-5)" fill="none" stroke="rgba(255,255,255,0.12)" stroke-width="2" d="M465.757,46.757 A6,6 0 0 1 470,45 h103 a6,6 0 0 1 6,6 v13 a6,6 0 0 1 -6,6 h-103 a6,6 0 0 1 -6,-6 v-13 A6,6 0 0 1 465.757,46.757"/><g mask="url(#satori_om-id)" clip-path="url(#satori_cp-id)"><path fill="rgba(235,235,235,0.82)" d="M482.0 62.1L482.0 62.1Q480.9 62.1 480.2 61.8Q479.4 61.5 479.0 60.9Q478.5 60.2 478.5 59.3L478.5 59.3L480.2 59.3Q480.3 59.7 480.5 60.0Q480.7 60.3 481.1 60.5Q481.5 60.6 482.0 60.6L482.0 60.6Q482.5 60.6 482.8 60.5Q483.2 60.3 483.4 60.1Q483.6 59.8 483.6 59.5L483.6 59.5Q483.6 59.2 483.4 59.0Q483.2 58.8 482.9 58.7Q482.5 58.5 482.1 58.4L482.1 58.4L481.1 58.2Q480.0 57.9 479.4 57.3Q478.7 56.7 478.7 55.8L478.7 55.8Q478.7 55.0 479.2 54.4Q479.6 53.8 480.3 53.5Q481.1 53.2 482.0 53.2L482.0 53.2Q483.0 53.2 483.7 53.5Q484.4 53.8 484.8 54.4Q485.2 55.0 485.2 55.8L485.2 55.8L483.5 55.8Q483.5 55.2 483.1 54.9Q482.7 54.7 482.0 54.7L482.0 54.7Q481.5 54.7 481.2 54.8Q480.9 54.9 480.7 55.1Q480.6 55.4 480.6 55.7L480.6 55.7Q480.6 56.0 480.8 56.2Q481.0 56.4 481.3 56.5Q481.6 56.7 482.0 56.8L482.0 56.8L482.8 57.0Q483.3 57.1 483.8 57.3Q484.3 57.5 484.6 57.8Q485.0 58.1 485.2 58.5Q485.4 59.0 485.4 59.5L485.4 59.5Q485.4 60.3 485.0 60.9Q484.6 61.5 483.8 61.8Q483.1 62.1 482.0 62.1ZM486.6 64.3L486.6 64.3L487.0 63.0L487.2 63.0Q487.5 63.1 487.8 63.1Q488.1 63.1 488.3 62.9Q488.4 62.7 488.5 62.4L488.5 62.4L488.5 62.0L486.0 55.4L487.9 55.4L489.0 58.8Q489.2 59.5 489.3 60.1L489.3 60.1Q489.4 60.4 489.4 60.6L489.4 60.6Q489.5 60.4 489.5 60.1L489.5 60.1Q489.7 59.5 489.9 58.8L489.9 58.8L491.0 55.4L492.9 55.4L490.1 62.8Q489.9 63.3 489.6 63.7Q489.3 64.1 488.8 64.3Q488.4 64.5 487.7 64.5L487.7 64.5Q487.4 64.5 487.1 64.4Q486.7 64.4 486.6 64.3ZM496.4 62.1L496.4 62.1Q495.6 62.1 495.0 61.9Q494.4 61.7 494.0 61.2Q493.7 60.8 493.5 60.2L493.5 60.2L495.2 59.9Q495.3 60.4 495.6 60.6Q495.9 60.8 496.5 60.8L496.5 60.8Q497.0 60.8 497.3 60.6Q497.6 60.5 497.6 60.2L497.6 60.2Q497.6 59.9 497.4 59.7Q497.2 59.6 496.7 59.5L496.7 59.5L495.6 59.3Q494.6 59.1 494.2 58.6Q493.7 58.1 493.7 57.4L493.7 57.4Q493.7 56.8 494.1 56.3Q494.4 55.9 495.0 55.6Q495.6 55.4 496.5 55.4L496.5 55.4Q497.2 55.4 497.8 55.6Q498.4 55.8 498.7 56.2Q499.1 56.6 499.2 57.1L499.2 57.1L497.6 57.4Q497.5 57.1 497.3 56.8Q497.0 56.6 496.5 56.6L496.5 56.6Q496.1 56.6 495.8 56.8Q495.5 57.0 495.5 57.3L495.5 57.3Q495.5 57.5 495.7 57.7Q495.8 57.9 496.3 58.0L496.3 58.0L497.5 58.2Q498.4 58.4 498.9 58.8Q499.4 59.3 499.4 60.0L499.4 60.0Q499.4 60.6 499.0 61.1Q498.6 61.6 498.0 61.9Q497.3 62.1 496.4 62.1ZM502.6 55.4L503.8 55.4L503.8 56.8L502.6 56.8L502.6 60.1Q502.6 60.4 502.7 60.5Q502.9 60.7 503.2 60.7L503.2 60.7Q503.3 60.7 503.5 60.7Q503.6 60.6 503.7 60.6L503.7 60.6L504.0 61.9Q503.7 62.0 503.4 62.1Q503.1 62.1 502.8 62.1L502.8 62.1Q501.9 62.1 501.3 61.6Q500.8 61.1 500.8 60.2L500.8 60.2L500.8 56.8L499.9 56.8L499.9 55.4L500.8 55.4L500.8 53.9L502.6 53.9L502.6 55.4ZM507.9 62.1L507.9 62.1Q506.9 62.1 506.2 61.7Q505.5 61.3 505.1 60.6Q504.7 59.8 504.7 58.8L504.7 58.8Q504.7 57.7 505.1 57.0Q505.4 56.2 506.2 55.8Q506.9 55.4 507.8 55.4L507.8 55.4Q508.5 55.4 509.0 55.6Q509.6 55.8 510.0 56.2Q510.4 56.6 510.7 57.2Q510.9 57.8 510.9 58.7L510.9 58.7L510.9 59.2L506.4 59.2Q506.4 59.7 506.6 60.0L506.6 60.0Q506.8 60.4 507.1 60.6Q507.5 60.8 507.9 60.8L507.9 60.8Q508.2 60.8 508.5 60.7Q508.8 60.6 508.9 60.5Q509.1 60.3 509.2 60.0L509.2 60.0L510.8 60.3Q510.6 60.9 510.2 61.3Q509.9 61.7 509.3 61.9Q508.7 62.1 507.9 62.1ZM506.4 58.1L506.4 58.1L509.2 58.1Q509.2 57.8 509.1 57.5L509.1 57.5Q508.9 57.1 508.6 56.9Q508.3 56.7 507.8 56.7L507.8 56.7Q507.4 56.7 507.1 56.9Q506.7 57.1 506.6 57.5L506.6 57.5Q506.5 57.7 506.4 58.1ZM513.9 62L512.1 62L512.1 55.4L513.7 55.4L513.8 56.7Q513.9 56.4 514.1 56.1L514.1 56.1Q514.4 55.7 514.8 55.5Q515.2 55.3 515.7 55.3L515.7 55.3Q516.4 55.3 516.8 55.8L516.8 55.8Q517.2 56.2 517.4 56.8L517.4 56.8Q517.5 56.4 517.7 56.1L517.7 56.1Q518.0 55.7 518.5 55.5Q519.0 55.3 519.5 55.3L519.5 55.3Q520.1 55.3 520.5 55.6Q521.0 55.9 521.3 56.4Q521.5 56.9 521.5 57.6L521.5 57.6L521.5 62L519.8 62L519.8 57.9Q519.8 57.4 519.5 57.1Q519.2 56.8 518.7 56.8L518.7 56.8Q518.4 56.8 518.2 57.0Q517.9 57.1 517.8 57.4Q517.7 57.6 517.7 58.0L517.7 58.0L517.7 62L516.0 62L516.0 57.9Q516.0 57.4 515.7 57.1Q515.4 56.8 514.9 56.8L514.9 56.8Q514.6 56.8 514.4 57.0Q514.1 57.1 514.0 57.4Q513.9 57.6 513.9 58.0L513.9 58.0L513.9 62ZM528.0 62L525.6 62L522.6 53.3L524.6 53.3L526.0 57.5Q526.2 58.3 526.5 59.2L526.5 59.2Q526.6 59.9 526.8 60.6L526.8 60.6Q527.0 59.9 527.2 59.2L527.2 59.2Q527.4 58.3 527.6 57.5L527.6 57.5L529.0 53.3L531.0 53.3L528.0 62ZM535.0 62.1L535.0 62.1Q534.0 62.1 533.2 61.7Q532.5 61.3 532.1 60.6Q531.7 59.8 531.7 58.8L531.7 58.8Q531.7 57.7 532.1 57.0Q532.5 56.2 533.2 55.8Q533.9 55.4 534.9 55.4L534.9 55.4Q535.5 55.4 536.1 55.6Q536.6 55.8 537.1 56.2Q537.5 56.6 537.7 57.2Q538.0 57.8 538.0 58.7L538.0 58.7L538.0 59.2L533.5 59.2Q533.5 59.7 533.7 60.0L533.7 60.0Q533.9 60.4 534.2 60.6Q534.5 60.8 535.0 60.8L535.0 60.8Q535.3 60.8 535.6 60.7Q535.8 60.6 536.0 60.5Q536.2 60.3 536.3 60.0L536.3 60.0L537.9 60.3Q537.7 60.9 537.3 61.3Q536.9 61.7 536.3 61.9Q535.7 62.1 535.0 62.1ZM533.5 58.1L533.5 58.1L536.3 58.1Q536.2 57.8 536.1 57.5L536.1 57.5Q536.0 57.1 535.7 56.9Q535.3 56.7 534.9 56.7L534.9 56.7Q534.4 56.7 534.1 56.9Q533.8 57.1 533.6 57.5L533.6 57.5Q533.5 57.7 533.5 58.1ZM540.9 62L539.2 62L539.2 55.4L540.9 55.4L540.9 56.6L540.9 56.6Q541.1 56.0 541.5 55.7Q542.0 55.4 542.5 55.4L542.5 55.4Q542.6 55.4 542.8 55.4Q543.0 55.4 543.1 55.4L543.1 55.4L543.1 57.0Q543.0 56.9 542.7 56.9Q542.5 56.9 542.3 56.9L542.3 56.9Q541.9 56.9 541.6 57.1Q541.3 57.2 541.1 57.6Q540.9 57.9 540.9 58.3L540.9 58.3L540.9 62ZM545.8 62L544.0 62L544.0 55.4L545.8 55.4L545.8 62ZM544.9 54.6L544.9 54.6Q544.5 54.6 544.2 54.3Q544.0 54.1 544.0 53.7L544.0 53.7Q544.0 53.3 544.2 53.1Q544.5 52.8 544.9 52.8L544.9 52.8Q545.3 52.8 545.6 53.0Q545.9 53.3 545.9 53.7L545.9 53.7Q545.9 54.1 545.6 54.3Q545.3 54.6 544.9 54.6ZM547.3 53.3L549.1 53.3L549.1 62L547.3 62L547.3 53.3ZM553.5 62.1L553.5 62.1Q552.5 62.1 551.8 61.7Q551.0 61.3 550.7 60.5Q550.3 59.8 550.3 58.8L550.3 58.8Q550.3 57.7 550.7 57.0Q551.0 56.2 551.8 55.8Q552.5 55.4 553.5 55.4L553.5 55.4Q554.5 55.4 555.2 55.8Q555.9 56.2 556.3 57.0Q556.7 57.7 556.7 58.8L556.7 58.8Q556.7 59.8 556.3 60.5Q555.9 61.3 555.2 61.7Q554.5 62.1 553.5 62.1ZM553.5 60.7L553.5 60.7Q553.9 60.7 554.3 60.5Q554.6 60.2 554.7 59.8Q554.9 59.3 554.9 58.7L554.9 58.7Q554.9 58.2 554.7 57.7Q554.6 57.3 554.3 57.0Q553.9 56.8 553.5 56.8L553.5 56.8Q553.0 56.8 552.7 57.0Q552.4 57.3 552.2 57.7Q552.1 58.2 552.1 58.7L552.1 58.7Q552.1 59.3 552.2 59.8Q552.4 60.2 552.7 60.5Q553.0 60.7 553.5 60.7ZM560.8 64.6L560.8 64.6Q560.0 64.6 559.4 64.4Q558.8 64.2 558.4 63.8Q558.0 63.4 557.9 63.0L557.9 63.0L559.4 62.6Q559.5 62.7 559.6 62.9Q559.8 63.1 560.1 63.2Q560.4 63.3 560.8 63.3L560.8 63.3Q561.5 63.3 561.9 63.0Q562.2 62.7 562.2 62.0L562.2 62.0L562.2 60.8L562.1 60.8Q562.0 61.1 561.8 61.3Q561.5 61.6 561.2 61.8Q560.8 61.9 560.3 61.9L560.3 61.9Q559.6 61.9 559.0 61.6Q558.3 61.2 558.0 60.5Q557.6 59.8 557.6 58.7L557.6 58.7Q557.6 57.6 558.0 56.9Q558.4 56.1 559.0 55.7Q559.6 55.4 560.3 55.4L560.3 55.4Q560.9 55.4 561.2 55.6Q561.6 55.7 561.8 56.0Q562.1 56.3 562.2 56.6L562.2 56.6L562.3 56.6L562.3 55.4L564.0 55.4L564.0 61.9Q564.0 62.8 563.6 63.4Q563.2 64.0 562.5 64.3Q561.7 64.6 560.8 64.6ZM560.8 60.6L560.8 60.6Q561.3 60.6 561.6 60.3Q561.9 60.1 562.1 59.7Q562.3 59.3 562.3 58.7L562.3 58.7Q562.3 58.1 562.1 57.7Q561.9 57.3 561.6 57.0Q561.3 56.8 560.8 56.8L560.8 56.8Q560.4 56.8 560.1 57.0Q559.8 57.3 559.6 57.7Q559.4 58.1 559.4 58.7L559.4 58.7Q559.4 59.3 559.6 59.7Q559.8 60.1 560.1 60.3Q560.4 60.6 560.8 60.6Z "/></g><defs><clipPath id="satori_bc-id-2-0-1-6" clip-path="url(#satori_cp-id)"><path x="586" y="45" width="54" height="25" d="M592,45 h42 a6,6 0 0 1 6,6 v13 a6,6 0 0 1 -6,6 h-42 a6,6 0 0 1 -6,-6 v-13 a6,6 0 0 1 6,-6"/></clipPath></defs><mask id="satori_om-id-2-0-1-6"><rect x="587" y="46" width="52" height="23" fill="#fff" mask="url(#satori_om-id)"/><path width="54" height="25" fill="none" stroke="#000" stroke-width="2" d="M587.757,46.757 A6,6 0 0 1 592,45 h42 a6,6 0 0 1 6,6 v13 a6,6 0 0 1 -6,6 h-42 a6,6 0 0 1 -6,-6 v-13 A6,6 0 0 1 587.757,46.757"/></mask><path x="586" y="45" width="54" height="25" fill="rgba(255,255,255,0.05)" d="M592,45 h42 a6,6 0 0 1 6,6 v13 a6,6 0 0 1 -6,6 h-42 a6,6 0 0 1 -6,-6 v-13 a6,6 0 0 1 6,-6" clip-path="url(#satori_cp-id)" mask="url(#satori_om-id)"/><path width="54" height="25" clip-path="url(#satori_bc-id-2-0-1-6)" fill="none" stroke="rgba(255,255,255,0.12)" stroke-width="2" d="M587.757,46.757 A6,6 0 0 1 592,45 h42 a6,6 0 0 1 6,6 v13 a6,6 0 0 1 -6,6 h-42 a6,6 0 0 1 -6,-6 v-13 A6,6 0 0 1 587.757,46.757"/><g mask="url(#satori_om-id)" clip-path="url(#satori_cp-id)"><path fill="rgba(235,235,235,0.82)" d="M604.6 62.1L604.6 62.1Q603.4 62.1 602.5 61.6Q601.6 61.1 601.1 60.1Q600.6 59.1 600.6 57.6L600.6 57.6Q600.6 56.2 601.1 55.2Q601.6 54.2 602.5 53.7Q603.5 53.2 604.6 53.2L604.6 53.2Q605.3 53.2 606.0 53.4Q606.6 53.6 607.1 54.0Q607.6 54.4 607.9 54.9Q608.3 55.5 608.4 56.3L608.4 56.3L606.6 56.3Q606.5 55.9 606.3 55.6Q606.2 55.3 605.9 55.1Q605.7 54.9 605.3 54.8Q605.0 54.7 604.6 54.7L604.6 54.7Q604.0 54.7 603.4 55.1Q602.9 55.4 602.7 56.1Q602.4 56.7 602.4 57.6L602.4 57.6Q602.4 58.6 602.7 59.2Q602.9 59.9 603.5 60.2Q604.0 60.5 604.6 60.5L604.6 60.5Q605.0 60.5 605.3 60.4Q605.6 60.3 605.9 60.1Q606.2 59.9 606.3 59.7Q606.5 59.4 606.6 59.0L606.6 59.0L608.4 59.0Q608.3 59.6 608.0 60.2Q607.7 60.7 607.2 61.2Q606.8 61.6 606.1 61.9Q605.4 62.1 604.6 62.1ZM613.7 61.5L612.2 61.5L612.2 59.2L609.9 59.2L609.9 57.8L612.2 57.8L612.2 55.5L613.7 55.5L613.7 57.8L616.0 57.8L616.0 59.2L613.7 59.2L613.7 61.5ZM621.8 61.5L620.3 61.5L620.3 59.2L618.1 59.2L618.1 57.8L620.3 57.8L620.3 55.5L621.8 55.5L621.8 57.8L624.1 57.8L624.1 59.2L621.8 59.2L621.8 61.5Z "/></g><defs><clipPath id="satori_bc-id-2-0-1-7" clip-path="url(#satori_cp-id)"><path x="647" y="45" width="70" height="25" d="M653,45 h58 a6,6 0 0 1 6,6 v13 a6,6 0 0 1 -6,6 h-58 a6,6 0 0 1 -6,-6 v-13 a6,6 0 0 1 6,-6"/></clipPath></defs><mask id="satori_om-id-2-0-1-7"><rect x="648" y="46" width="68" height="23" fill="#fff" mask="url(#satori_om-id)"/><path width="70" height="25" fill="none" stroke="#000" stroke-width="2" d="M648.757,46.757 A6,6 0 0 1 653,45 h58 a6,6 0 0 1 6,6 v13 a6,6 0 0 1 -6,6 h-58 a6,6 0 0 1 -6,-6 v-13 A6,6 0 0 1 648.757,46.757"/></mask><path x="647" y="45" width="70" height="25" fill="rgba(255,255,255,0.05)" d="M653,45 h58 a6,6 0 0 1 6,6 v13 a6,6 0 0 1 -6,6 h-58 a6,6 0 0 1 -6,-6 v-13 a6,6 0 0 1 6,-6" clip-path="url(#satori_cp-id)" mask="url(#satori_om-id)"/><path width="70" height="25" clip-path="url(#satori_bc-id-2-0-1-7)" fill="none" stroke="rgba(255,255,255,0.12)" stroke-width="2" d="M648.757,46.757 A6,6 0 0 1 653,45 h58 a6,6 0 0 1 6,6 v13 a6,6 0 0 1 -6,6 h-58 a6,6 0 0 1 -6,-6 v-13 A6,6 0 0 1 648.757,46.757"/><g mask="url(#satori_om-id)" clip-path="url(#satori_cp-id)"><path fill="rgba(235,235,235,0.82)" d="M663.6 62L661.8 62L661.8 53.3L665.2 53.3Q666.2 53.3 666.9 53.6Q667.6 54.0 668.0 54.7Q668.3 55.4 668.3 56.2L668.3 56.2Q668.3 57.1 667.9 57.7Q667.6 58.4 666.9 58.8Q666.2 59.1 665.2 59.1L665.2 59.1L663.6 59.1L663.6 62ZM663.6 54.7L663.6 57.7L664.9 57.7Q665.4 57.7 665.8 57.5Q666.1 57.3 666.3 57.0Q666.5 56.7 666.5 56.2Q666.5 55.8 666.3 55.4Q666.1 55.1 665.8 54.9Q665.4 54.7 664.9 54.7L664.9 54.7L663.6 54.7ZM669.5 64.3L669.5 64.3L669.9 63.0L670.1 63.0Q670.5 63.1 670.7 63.1Q671.0 63.1 671.2 62.9Q671.3 62.7 671.4 62.4L671.4 62.4L671.4 62.0L669.0 55.4L670.8 55.4L671.9 58.8Q672.1 59.5 672.3 60.1L672.3 60.1Q672.3 60.4 672.3 60.6L672.3 60.6Q672.4 60.4 672.4 60.1L672.4 60.1Q672.6 59.5 672.8 58.8L672.8 58.8L674.0 55.4L675.8 55.4L673.0 62.8Q672.8 63.3 672.5 63.7Q672.2 64.1 671.7 64.3Q671.3 64.5 670.6 64.5L670.6 64.5Q670.3 64.5 670.0 64.4Q669.7 64.4 669.5 64.3ZM678.8 55.4L680.0 55.4L680.0 56.8L678.8 56.8L678.8 60.1Q678.8 60.4 678.9 60.5Q679.1 60.7 679.4 60.7L679.4 60.7Q679.5 60.7 679.7 60.7Q679.8 60.6 679.9 60.6L679.9 60.6L680.2 61.9Q679.9 62.0 679.6 62.1Q679.3 62.1 679.0 62.1L679.0 62.1Q678.1 62.1 677.5 61.6Q677.0 61.1 677.0 60.2L677.0 60.2L677.0 56.8L676.1 56.8L676.1 55.4L677.0 55.4L677.0 53.9L678.8 53.9L678.8 55.4ZM682.9 58.2L682.9 58.2L682.9 62L681.1 62L681.1 53.3L682.9 53.3L682.9 56.7Q683.1 56.2 683.5 55.8L683.5 55.8Q684.0 55.4 684.9 55.4L684.9 55.4Q685.5 55.4 686.1 55.7Q686.6 56.0 686.8 56.5Q687.1 57.1 687.1 57.8L687.1 57.8L687.1 62L685.4 62L685.4 58.1Q685.4 57.5 685.0 57.2Q684.7 56.8 684.2 56.8L684.2 56.8Q683.8 56.8 683.5 57.0Q683.2 57.2 683.1 57.5Q682.9 57.8 682.9 58.2ZM691.5 62.1L691.5 62.1Q690.6 62.1 689.8 61.7Q689.1 61.3 688.7 60.5Q688.3 59.8 688.3 58.8L688.3 58.8Q688.3 57.7 688.7 57.0Q689.1 56.2 689.8 55.8Q690.6 55.4 691.5 55.4L691.5 55.4Q692.5 55.4 693.3 55.8Q694.0 56.2 694.4 57.0Q694.8 57.7 694.8 58.8L694.8 58.8Q694.8 59.8 694.4 60.5Q694.0 61.3 693.3 61.7Q692.5 62.1 691.5 62.1ZM691.5 60.7L691.5 60.7Q692.0 60.7 692.3 60.5Q692.6 60.2 692.8 59.8Q693.0 59.3 693.0 58.7L693.0 58.7Q693.0 58.2 692.8 57.7Q692.6 57.3 692.3 57.0Q692.0 56.8 691.5 56.8L691.5 56.8Q691.1 56.8 690.8 57.0Q690.4 57.3 690.3 57.7Q690.1 58.2 690.1 58.7L690.1 58.7Q690.1 59.3 690.3 59.8Q690.4 60.2 690.8 60.5Q691.1 60.7 691.5 60.7ZM697.7 58.2L697.7 58.2L697.7 62L696.0 62L696.0 55.4L697.6 55.4L697.7 56.8Q697.9 56.2 698.3 55.8L698.3 55.8Q698.9 55.4 699.7 55.4L699.7 55.4Q700.4 55.4 700.9 55.7Q701.4 56.0 701.7 56.5Q701.9 57.1 701.9 57.8L701.9 57.8L701.9 62L700.2 62L700.2 58.1Q700.2 57.5 699.9 57.2Q699.6 56.8 699.0 56.8L699.0 56.8Q698.6 56.8 698.3 57.0Q698.1 57.2 697.9 57.5Q697.7 57.8 697.7 58.2Z "/></g><defs><clipPath id="satori_bc-id-2-0-1-8" clip-path="url(#satori_cp-id)"><path x="724" y="45" width="74" height="25" d="M730,45 h62 a6,6 0 0 1 6,6 v13 a6,6 0 0 1 -6,6 h-62 a6,6 0 0 1 -6,-6 v-13 a6,6 0 0 1 6,-6"/></clipPath></defs><mask id="satori_om-id-2-0-1-8"><rect x="725" y="46" width="72" height="23" fill="#fff" mask="url(#satori_om-id)"/><path width="74" height="25" fill="none" stroke="#000" stroke-width="2" d="M725.757,46.757 A6,6 0 0 1 730,45 h62 a6,6 0 0 1 6,6 v13 a6,6 0 0 1 -6,6 h-62 a6,6 0 0 1 -6,-6 v-13 A6,6 0 0 1 725.757,46.757"/></mask><path x="724" y="45" width="74" height="25" fill="rgba(255,255,255,0.05)" d="M730,45 h62 a6,6 0 0 1 6,6 v13 a6,6 0 0 1 -6,6 h-62 a6,6 0 0 1 -6,-6 v-13 a6,6 0 0 1 6,-6" clip-path="url(#satori_cp-id)" mask="url(#satori_om-id)"/><path width="74" height="25" clip-path="url(#satori_bc-id-2-0-1-8)" fill="none" stroke="rgba(255,255,255,0.12)" stroke-width="2" d="M725.757,46.757 A6,6 0 0 1 730,45 h62 a6,6 0 0 1 6,6 v13 a6,6 0 0 1 -6,6 h-62 a6,6 0 0 1 -6,-6 v-13 A6,6 0 0 1 725.757,46.757"/><g mask="url(#satori_om-id)" clip-path="url(#satori_cp-id)"><path fill="rgba(235,235,235,0.82)" d="M741.3 62.1L741.3 62.1Q740.0 62.1 739.2 61.4Q738.4 60.7 738.4 59.4L738.4 59.4L738.4 58.9L740.2 58.9L740.2 59.4Q740.2 60.0 740.5 60.4Q740.8 60.7 741.3 60.7L741.3 60.7Q741.8 60.7 742.1 60.4Q742.5 60.0 742.5 59.4L742.5 59.4L742.5 53.3L744.2 53.3L744.2 59.4Q744.2 60.7 743.4 61.4Q742.7 62.1 741.3 62.1ZM748.0 62.1L748.0 62.1Q747.3 62.1 746.8 61.8Q746.3 61.5 746.0 60.9Q745.8 60.4 745.8 59.6L745.8 59.6L745.8 55.4L747.5 55.4L747.5 59.3Q747.5 59.9 747.8 60.3Q748.2 60.6 748.7 60.6L748.7 60.6Q749.1 60.6 749.4 60.5Q749.7 60.3 749.8 60.0Q750.0 59.7 750.0 59.2L750.0 59.2L750.0 55.4L751.7 55.4L751.7 62L750.1 62L750.1 60.6Q749.8 61.3 749.4 61.6L749.4 61.6Q748.8 62.1 748.0 62.1ZM755.0 64.4L753.2 64.4L753.2 55.4L755.0 55.4L755.0 56.6L755.0 56.6Q755.2 56.3 755.4 56.0Q755.6 55.7 756.0 55.6Q756.4 55.4 756.9 55.4L756.9 55.4Q757.6 55.4 758.2 55.7Q758.8 56.1 759.2 56.9Q759.6 57.6 759.6 58.7L759.6 58.7Q759.6 59.8 759.2 60.6Q758.9 61.3 758.3 61.7Q757.7 62.1 756.9 62.1L756.9 62.1Q756.4 62.1 756 61.9Q755.6 61.7 755.4 61.5Q755.2 61.2 755.0 61.0L755.0 61.0L755.0 61.0L755.0 64.4ZM756.4 60.7L756.4 60.7Q756.8 60.7 757.1 60.4Q757.4 60.2 757.6 59.8Q757.8 59.3 757.8 58.7L757.8 58.7Q757.8 58.2 757.6 57.7Q757.4 57.3 757.1 57.0Q756.8 56.8 756.4 56.8L756.4 56.8Q755.9 56.8 755.6 57.0Q755.3 57.3 755.1 57.7Q755.0 58.1 755.0 58.7L755.0 58.7Q755.0 59.3 755.1 59.8Q755.3 60.2 755.6 60.5Q755.9 60.7 756.4 60.7ZM760.8 64.3L760.8 64.3L761.2 63.0L761.4 63.0Q761.7 63.1 762 63.1Q762.3 63.1 762.4 62.9Q762.6 62.7 762.6 62.4L762.6 62.4L762.7 62.0L760.2 55.4L762.1 55.4L763.2 58.8Q763.4 59.5 763.5 60.1L763.5 60.1Q763.6 60.4 763.6 60.6L763.6 60.6Q763.7 60.4 763.7 60.1L763.7 60.1Q763.9 59.5 764.1 58.8L764.1 58.8L765.2 55.4L767.1 55.4L764.3 62.8Q764.1 63.3 763.8 63.7Q763.5 64.1 763.0 64.3Q762.6 64.5 761.9 64.5L761.9 64.5Q761.5 64.5 761.2 64.4Q760.9 64.4 760.8 64.3ZM770.1 55.4L771.3 55.4L771.3 56.8L770.1 56.8L770.1 60.1Q770.1 60.4 770.2 60.5Q770.3 60.7 770.6 60.7L770.6 60.7Q770.7 60.7 770.9 60.7Q771.1 60.6 771.2 60.6L771.2 60.6L771.5 61.9Q771.2 62.0 770.9 62.1Q770.6 62.1 770.3 62.1L770.3 62.1Q769.3 62.1 768.8 61.6Q768.3 61.1 768.3 60.2L768.3 60.2L768.3 56.8L767.4 56.8L767.4 55.4L768.3 55.4L768.3 53.9L770.1 53.9L770.1 55.4ZM775.4 62.1L775.4 62.1Q774.4 62.1 773.6 61.7Q772.9 61.3 772.5 60.6Q772.1 59.8 772.1 58.8L772.1 58.8Q772.1 57.7 772.5 57.0Q772.9 56.2 773.6 55.8Q774.3 55.4 775.3 55.4L775.3 55.4Q775.9 55.4 776.5 55.6Q777.0 55.8 777.5 56.2Q777.9 56.6 778.1 57.2Q778.4 57.8 778.4 58.7L778.4 58.7L778.4 59.2L773.9 59.2Q773.9 59.7 774.1 60.0L774.1 60.0Q774.3 60.4 774.6 60.6Q774.9 60.8 775.4 60.8L775.4 60.8Q775.7 60.8 776.0 60.7Q776.2 60.6 776.4 60.5Q776.6 60.3 776.7 60.0L776.7 60.0L778.3 60.3Q778.1 60.9 777.7 61.3Q777.3 61.7 776.7 61.9Q776.1 62.1 775.4 62.1ZM773.9 58.1L773.9 58.1L776.7 58.1Q776.6 57.8 776.5 57.5L776.5 57.5Q776.4 57.1 776.1 56.9Q775.8 56.7 775.3 56.7L775.3 56.7Q774.8 56.7 774.5 56.9Q774.2 57.1 774.0 57.5L774.0 57.5Q773.9 57.7 773.9 58.1ZM781.3 62L779.6 62L779.6 55.4L781.3 55.4L781.3 56.6L781.3 56.6Q781.5 56.0 781.9 55.7Q782.4 55.4 782.9 55.4L782.9 55.4Q783.1 55.4 783.2 55.4Q783.4 55.4 783.5 55.4L783.5 55.4L783.5 57.0Q783.4 56.9 783.1 56.9Q782.9 56.9 782.7 56.9L782.7 56.9Q782.3 56.9 782.0 57.1Q781.7 57.2 781.5 57.6Q781.3 57.9 781.3 58.3L781.3 58.3L781.3 62Z "/></g><mask id="satori_om-id-2-1"><rect x="33" y="84" width="794" height="25" fill="#fff" mask="url(#satori_om-id)"/></mask><mask id="satori_om-id-2-1-0"><rect x="33" y="91" width="40" height="12" fill="#fff" mask="url(#satori_om-id)"/></mask><g mask="url(#satori_om-id)" clip-path="url(#satori_cp-id)"><path fill="#b8b8b8" d="M35.6 95.0L33.4 95.0L33.4 93.7L39.3 93.7L39.3 95.0L37.1 95.0L37.1 101L35.6 101L35.6 95.0ZM44.5 101.1L44.5 101.1Q43.6 101.1 42.8 100.7Q42.0 100.2 41.6 99.4Q41.1 98.5 41.1 97.4L41.1 97.4Q41.1 96.2 41.6 95.3Q42.0 94.5 42.8 94.1Q43.6 93.6 44.5 93.6L44.5 93.6Q45.5 93.6 46.3 94.1Q47.0 94.5 47.5 95.3Q47.9 96.2 47.9 97.4L47.9 97.4Q47.9 98.5 47.5 99.4Q47.0 100.2 46.3 100.7Q45.5 101.1 44.5 101.1ZM44.5 99.8L44.5 99.8Q45.1 99.8 45.5 99.5Q45.9 99.2 46.2 98.7Q46.4 98.1 46.4 97.4L46.4 97.4Q46.4 96.6 46.2 96.0Q45.9 95.5 45.5 95.2Q45.1 95.0 44.5 95.0L44.5 95.0Q44.0 95.0 43.5 95.2Q43.1 95.5 42.9 96.0Q42.6 96.6 42.6 97.4L42.6 97.4Q42.6 98.1 42.9 98.7Q43.1 99.2 43.5 99.5Q44.0 99.8 44.5 99.8ZM53.2 101.1L53.2 101.1Q52.3 101.1 51.5 100.7Q50.7 100.2 50.3 99.4Q49.8 98.5 49.8 97.4L49.8 97.4Q49.8 96.2 50.3 95.3Q50.7 94.5 51.5 94.1Q52.3 93.6 53.2 93.6L53.2 93.6Q54.2 93.6 55.0 94.1Q55.7 94.5 56.2 95.3Q56.6 96.2 56.6 97.4L56.6 97.4Q56.6 98.5 56.2 99.4Q55.7 100.2 55.0 100.7Q54.2 101.1 53.2 101.1ZM53.2 99.8L53.2 99.8Q53.8 99.8 54.2 99.5Q54.6 99.2 54.9 98.7Q55.1 98.1 55.1 97.4L55.1 97.4Q55.1 96.6 54.9 96.0Q54.6 95.5 54.2 95.2Q53.8 95.0 53.2 95.0L53.2 95.0Q52.7 95.0 52.2 95.2Q51.8 95.5 51.6 96.0Q51.4 96.6 51.4 97.4L51.4 97.4Q51.4 98.1 51.6 98.7Q51.8 99.2 52.2 99.5Q52.7 99.8 53.2 99.8ZM63.4 101L58.7 101L58.7 93.7L60.2 93.7L60.2 99.8L63.4 99.8L63.4 101ZM68.1 101.1L68.1 101.1Q67.2 101.1 66.5 100.8Q65.9 100.6 65.5 100.0Q65.2 99.5 65.2 98.7L65.2 98.7L66.6 98.7Q66.6 99.1 66.8 99.4Q67.0 99.6 67.3 99.7Q67.6 99.8 68.0 99.8L68.0 99.8Q68.5 99.8 68.7 99.7Q69.0 99.6 69.2 99.4Q69.4 99.2 69.4 98.9L69.4 98.9Q69.4 98.7 69.2 98.5Q69.1 98.3 68.8 98.2Q68.5 98.1 68.1 98.0L68.1 98.0L67.3 97.8Q66.4 97.6 65.9 97.1Q65.3 96.6 65.3 95.8L65.3 95.8Q65.3 95.2 65.7 94.7Q66.1 94.2 66.7 93.9Q67.3 93.6 68.1 93.6L68.1 93.6Q68.9 93.6 69.5 93.9Q70.1 94.2 70.4 94.7Q70.8 95.2 70.8 95.8L70.8 95.8L69.3 95.8Q69.3 95.4 69.0 95.1Q68.6 94.9 68.1 94.9L68.1 94.9Q67.7 94.9 67.4 95.0Q67.2 95.1 67.0 95.3Q66.9 95.5 66.9 95.7L66.9 95.7Q66.9 96.0 67.0 96.2Q67.2 96.3 67.5 96.5Q67.7 96.6 68.0 96.6L68.0 96.6L68.7 96.8Q69.2 96.9 69.6 97.1Q69.9 97.3 70.2 97.5Q70.5 97.8 70.7 98.1Q70.9 98.5 70.9 98.9L70.9 98.9Q70.9 99.6 70.5 100.1Q70.2 100.6 69.6 100.8Q68.9 101.1 68.1 101.1Z "/></g><mask id="satori_om-id-2-1-1"><rect x="89" y="84" width="738" height="25" fill="#fff" mask="url(#satori_om-id)"/></mask><defs><clipPath id="satori_bc-id-2-1-1-0" clip-path="url(#satori_cp-id)"><path x="89" y="84" width="71" height="25" d="M95,84 h59 a6,6 0 0 1 6,6 v13 a6,6 0 0 1 -6,6 h-59 a6,6 0 0 1 -6,-6 v-13 a6,6 0 0 1 6,-6"/></clipPath></defs><mask id="satori_om-id-2-1-1-0"><rect x="90" y="85" width="69" height="23" fill="#fff" mask="url(#satori_om-id)"/><path width="71" height="25" fill="none" stroke="#000" stroke-width="2" d="M90.757,85.757 A6,6 0 0 1 95,84 h59 a6,6 0 0 1 6,6 v13 a6,6 0 0 1 -6,6 h-59 a6,6 0 0 1 -6,-6 v-13 A6,6 0 0 1 90.757,85.757"/></mask><path x="89" y="84" width="71" height="25" fill="rgba(255,255,255,0.05)" d="M95,84 h59 a6,6 0 0 1 6,6 v13 a6,6 0 0 1 -6,6 h-59 a6,6 0 0 1 -6,-6 v-13 a6,6 0 0 1 6,-6" clip-path="url(#satori_cp-id)" mask="url(#satori_om-id)"/><path width="71" height="25" clip-path="url(#satori_bc-id-2-1-1-0)" fill="none" stroke="rgba(255,255,255,0.12)" stroke-width="2" d="M90.757,85.757 A6,6 0 0 1 95,84 h59 a6,6 0 0 1 6,6 v13 a6,6 0 0 1 -6,6 h-59 a6,6 0 0 1 -6,-6 v-13 A6,6 0 0 1 90.757,85.757"/><g mask="url(#satori_om-id)" clip-path="url(#satori_cp-id)"><path fill="rgba(235,235,235,0.82)" d="M106.9 101L106.9 101L103.8 101L103.8 92.3L106.9 92.3Q108.2 92.3 109.1 92.8Q110.1 93.3 110.6 94.3Q111.1 95.3 111.1 96.6L111.1 96.6Q111.1 98.0 110.6 99.0Q110.1 100.0 109.1 100.5Q108.2 101 106.9 101ZM105.6 93.8L105.6 99.5L106.8 99.5Q107.6 99.5 108.2 99.2Q108.8 98.9 109.0 98.2Q109.3 97.6 109.3 96.6L109.3 96.6Q109.3 95.7 109.0 95.0Q108.8 94.4 108.2 94.1Q107.6 93.8 106.8 93.8L106.8 93.8L105.6 93.8ZM115.3 101.1L115.3 101.1Q114.4 101.1 113.6 100.7Q112.9 100.3 112.5 99.5Q112.1 98.8 112.1 97.8L112.1 97.8Q112.1 96.7 112.5 96.0Q112.9 95.2 113.6 94.8Q114.4 94.4 115.3 94.4L115.3 94.4Q116.3 94.4 117.1 94.8Q117.8 95.2 118.2 96.0Q118.6 96.7 118.6 97.8L118.6 97.8Q118.6 98.8 118.2 99.5Q117.8 100.3 117.1 100.7Q116.3 101.1 115.3 101.1ZM115.3 99.7L115.3 99.7Q115.8 99.7 116.1 99.5Q116.4 99.2 116.6 98.8Q116.8 98.3 116.8 97.7L116.8 97.7Q116.8 97.2 116.6 96.7Q116.4 96.3 116.1 96.0Q115.8 95.8 115.3 95.8L115.3 95.8Q114.9 95.8 114.6 96.0Q114.3 96.3 114.1 96.7Q113.9 97.2 113.9 97.7L113.9 97.7Q113.9 98.3 114.1 98.8Q114.3 99.2 114.6 99.5Q114.9 99.7 115.3 99.7ZM122.7 101.1L122.7 101.1Q121.7 101.1 121.0 100.7Q120.3 100.3 119.9 99.5Q119.5 98.8 119.5 97.8L119.5 97.8Q119.5 96.7 119.9 96.0Q120.3 95.2 121.0 94.8Q121.7 94.4 122.7 94.4L122.7 94.4Q123.3 94.4 123.8 94.5Q124.3 94.7 124.7 95.0Q125.0 95.2 125.3 95.6Q125.5 96.0 125.6 96.5L125.6 96.5L124.0 96.9Q123.9 96.6 123.8 96.4Q123.7 96.2 123.5 96.0Q123.4 95.9 123.2 95.8Q123.0 95.8 122.7 95.8L122.7 95.8Q122.3 95.8 121.9 96.0Q121.6 96.3 121.5 96.7Q121.3 97.2 121.3 97.7L121.3 97.7Q121.3 98.3 121.5 98.8Q121.6 99.2 121.9 99.5Q122.3 99.7 122.7 99.7L122.7 99.7Q123.0 99.7 123.2 99.7Q123.4 99.6 123.6 99.4Q123.7 99.3 123.8 99.1Q123.9 98.9 124.0 98.6L124.0 98.6L125.6 98.9Q125.5 99.4 125.3 99.8Q125.0 100.2 124.7 100.5Q124.3 100.8 123.8 101.0Q123.3 101.1 122.7 101.1ZM128.6 101L126.8 101L126.8 92.3L128.6 92.3L128.6 97.0L128.7 97.0L130.8 94.4L132.9 94.4L130.4 97.3L133.0 101L130.9 101L129.1 98.3L128.6 98.9L128.6 101ZM136.8 101.1L136.8 101.1Q135.8 101.1 135.0 100.7Q134.3 100.3 133.9 99.6Q133.5 98.8 133.5 97.8L133.5 97.8Q133.5 96.7 133.9 96.0Q134.3 95.2 135.0 94.8Q135.7 94.4 136.7 94.4L136.7 94.4Q137.3 94.4 137.9 94.6Q138.4 94.8 138.8 95.2Q139.3 95.6 139.5 96.2Q139.7 96.8 139.7 97.7L139.7 97.7L139.7 98.2L135.3 98.2Q135.3 98.7 135.5 99.0L135.5 99.0Q135.6 99.4 136.0 99.6Q136.3 99.8 136.8 99.8L136.8 99.8Q137.1 99.8 137.3 99.7Q137.6 99.6 137.8 99.5Q138.0 99.3 138.1 99.0L138.1 99.0L139.6 99.3Q139.5 99.9 139.1 100.3Q138.7 100.7 138.1 100.9Q137.5 101.1 136.8 101.1ZM135.3 97.1L135.3 97.1L138.1 97.1Q138.0 96.8 137.9 96.5L137.9 96.5Q137.8 96.1 137.4 95.9Q137.1 95.7 136.7 95.7L136.7 95.7Q136.2 95.7 135.9 95.9Q135.6 96.1 135.4 96.5L135.4 96.5Q135.3 96.7 135.3 97.1ZM142.7 101L140.9 101L140.9 94.4L142.6 94.4L142.6 95.6L142.7 95.6Q142.9 95.0 143.3 94.7Q143.7 94.4 144.3 94.4L144.3 94.4Q144.4 94.4 144.6 94.4Q144.7 94.4 144.9 94.4L144.9 94.4L144.9 96.0Q144.7 95.9 144.5 95.9Q144.3 95.9 144.1 95.9L144.1 95.9Q143.7 95.9 143.4 96.1Q143.1 96.2 142.9 96.6Q142.7 96.9 142.7 97.3L142.7 97.3L142.7 101Z "/></g><defs><clipPath id="satori_bc-id-2-1-1-1" clip-path="url(#satori_cp-id)"><path x="167" y="84" width="97" height="25" d="M173,84 h85 a6,6 0 0 1 6,6 v13 a6,6 0 0 1 -6,6 h-85 a6,6 0 0 1 -6,-6 v-13 a6,6 0 0 1 6,-6"/></clipPath></defs><mask id="satori_om-id-2-1-1-1"><rect x="168" y="85" width="95" height="23" fill="#fff" mask="url(#satori_om-id)"/><path width="97" height="25" fill="none" stroke="#000" stroke-width="2" d="M168.757,85.757 A6,6 0 0 1 173,84 h85 a6,6 0 0 1 6,6 v13 a6,6 0 0 1 -6,6 h-85 a6,6 0 0 1 -6,-6 v-13 A6,6 0 0 1 168.757,85.757"/></mask><path x="167" y="84" width="97" height="25" fill="rgba(255,255,255,0.05)" d="M173,84 h85 a6,6 0 0 1 6,6 v13 a6,6 0 0 1 -6,6 h-85 a6,6 0 0 1 -6,-6 v-13 a6,6 0 0 1 6,-6" clip-path="url(#satori_cp-id)" mask="url(#satori_om-id)"/><path width="97" height="25" clip-path="url(#satori_bc-id-2-1-1-1)" fill="none" stroke="rgba(255,255,255,0.12)" stroke-width="2" d="M168.757,85.757 A6,6 0 0 1 173,84 h85 a6,6 0 0 1 6,6 v13 a6,6 0 0 1 -6,6 h-85 a6,6 0 0 1 -6,-6 v-13 A6,6 0 0 1 168.757,85.757"/><g mask="url(#satori_om-id)" clip-path="url(#satori_cp-id)"><path fill="rgba(235,235,235,0.82)" d="M183.6 101L181.8 101L181.8 92.3L185.2 92.3Q186.2 92.3 186.9 92.6Q187.6 93.0 188.0 93.7Q188.3 94.4 188.3 95.2L188.3 95.2Q188.3 96.1 187.9 96.7Q187.6 97.4 186.9 97.8Q186.2 98.1 185.2 98.1L185.2 98.1L183.6 98.1L183.6 101ZM183.6 93.7L183.6 96.7L184.9 96.7Q185.4 96.7 185.8 96.5Q186.1 96.3 186.3 96.0Q186.5 95.7 186.5 95.2Q186.5 94.8 186.3 94.4Q186.1 94.1 185.8 93.9Q185.4 93.7 184.9 93.7L184.9 93.7L183.6 93.7ZM191.3 101L189.5 101L189.5 94.4L191.2 94.4L191.2 95.6L191.3 95.6Q191.5 95.0 191.9 94.7Q192.3 94.4 192.9 94.4L192.9 94.4Q193.0 94.4 193.2 94.4Q193.3 94.4 193.4 94.4L193.4 94.4L193.4 96.0Q193.3 95.9 193.1 95.9Q192.9 95.9 192.7 95.9L192.7 95.9Q192.3 95.9 192.0 96.1Q191.6 96.2 191.5 96.6Q191.3 96.9 191.3 97.3L191.3 97.3L191.3 101ZM197.3 101.1L197.3 101.1Q196.4 101.1 195.6 100.7Q194.9 100.3 194.5 99.5Q194.1 98.8 194.1 97.8L194.1 97.8Q194.1 96.7 194.5 96.0Q194.9 95.2 195.6 94.8Q196.4 94.4 197.3 94.4L197.3 94.4Q198.3 94.4 199.0 94.8Q199.8 95.2 200.2 96.0Q200.5 96.7 200.5 97.8L200.5 97.8Q200.5 98.8 200.2 99.5Q199.8 100.3 199.0 100.7Q198.3 101.1 197.3 101.1ZM197.3 99.7L197.3 99.7Q197.8 99.7 198.1 99.5Q198.4 99.2 198.6 98.8Q198.8 98.3 198.8 97.7L198.8 97.7Q198.8 97.2 198.6 96.7Q198.4 96.3 198.1 96.0Q197.8 95.8 197.3 95.8L197.3 95.8Q196.9 95.8 196.6 96.0Q196.2 96.3 196.1 96.7Q195.9 97.2 195.9 97.7L195.9 97.7Q195.9 98.3 196.1 98.8Q196.2 99.2 196.6 99.5Q196.9 99.7 197.3 99.7ZM203.1 101L201.3 101L203.4 97.6L201.4 94.4L203.3 94.4L203.9 95.5Q204.2 96.0 204.4 96.5L204.4 96.5Q204.5 96.6 204.5 96.8L204.5 96.8Q204.6 96.6 204.6 96.5L204.6 96.5Q204.9 96.0 205.2 95.5L205.2 95.5L205.8 94.4L207.6 94.4L205.6 97.7L207.7 101L205.8 101L205.1 99.8Q204.8 99.3 204.6 98.8L204.6 98.8Q204.5 98.6 204.5 98.5L204.5 98.5Q204.4 98.6 204.4 98.8L204.4 98.8Q204.1 99.3 203.9 99.8L203.9 99.8L203.1 101ZM210.5 101L208.7 101L208.7 94.4L210.4 94.4L210.4 95.7Q210.6 95.4 210.8 95.1L210.8 95.1Q211.1 94.7 211.5 94.5Q211.9 94.3 212.3 94.3L212.3 94.3Q213.0 94.3 213.4 94.8L213.4 94.8Q213.8 95.2 214.0 95.8L214.0 95.8Q214.1 95.4 214.4 95.1L214.4 95.1Q214.7 94.7 215.1 94.5Q215.6 94.3 216.1 94.3L216.1 94.3Q216.7 94.3 217.2 94.6Q217.6 94.9 217.9 95.4Q218.2 95.9 218.2 96.6L218.2 96.6L218.2 101L216.4 101L216.4 96.9Q216.4 96.4 216.1 96.1Q215.8 95.8 215.4 95.8L215.4 95.8Q215.1 95.8 214.8 96.0Q214.6 96.1 214.4 96.4Q214.3 96.6 214.3 97.0L214.3 97.0L214.3 101L212.6 101L212.6 96.9Q212.6 96.4 212.3 96.1Q212.0 95.8 211.6 95.8L211.6 95.8Q211.3 95.8 211.0 96.0Q210.8 96.1 210.6 96.4Q210.5 96.6 210.5 97.0L210.5 97.0L210.5 101ZM222.6 101.1L222.6 101.1Q221.6 101.1 220.9 100.7Q220.2 100.3 219.8 99.5Q219.4 98.8 219.4 97.8L219.4 97.8Q219.4 96.7 219.8 96.0Q220.2 95.2 220.9 94.8Q221.6 94.4 222.6 94.4L222.6 94.4Q223.6 94.4 224.3 94.8Q225.0 95.2 225.4 96.0Q225.8 96.7 225.8 97.8L225.8 97.8Q225.8 98.8 225.4 99.5Q225.0 100.3 224.3 100.7Q223.6 101.1 222.6 101.1ZM222.6 99.7L222.6 99.7Q223.1 99.7 223.4 99.5Q223.7 99.2 223.9 98.8Q224.0 98.3 224.0 97.7L224.0 97.7Q224.0 97.2 223.9 96.7Q223.7 96.3 223.4 96.0Q223.1 95.8 222.6 95.8L222.6 95.8Q222.1 95.8 221.8 96.0Q221.5 96.3 221.4 96.7Q221.2 97.2 221.2 97.7L221.2 97.7Q221.2 98.3 221.4 98.8Q221.5 99.2 221.8 99.5Q222.1 99.7 222.6 99.7ZM228.4 101L226.5 101L228.6 97.6L226.7 94.4L228.6 94.4L229.2 95.5Q229.4 96.0 229.7 96.5L229.7 96.5Q229.7 96.6 229.8 96.8L229.8 96.8Q229.9 96.6 229.9 96.5L229.9 96.5Q230.1 96.0 230.4 95.5L230.4 95.5L231.1 94.4L232.9 94.4L230.9 97.7L233.0 101L231.1 101L230.4 99.8Q230.1 99.3 229.9 98.8L229.9 98.8Q229.8 98.6 229.8 98.5L229.8 98.5Q229.7 98.6 229.6 98.8L229.6 98.8Q229.4 99.3 229.1 99.8L229.1 99.8L228.4 101ZM238.9 101L236.6 101L233.5 92.3L235.5 92.3L236.9 96.5Q237.2 97.3 237.4 98.2L237.4 98.2Q237.6 98.9 237.8 99.6L237.8 99.6Q238.0 98.9 238.1 98.2L238.1 98.2Q238.4 97.3 238.6 96.5L238.6 96.5L240.0 92.3L241.9 92.3L238.9 101ZM248.9 101L243.0 101L243.0 92.3L248.8 92.3L248.8 93.8L244.8 93.8L244.8 95.9L248.5 95.9L248.5 97.3L244.8 97.3L244.8 99.5L248.9 99.5L248.9 101Z "/></g><defs><clipPath id="satori_bc-id-2-1-1-2" clip-path="url(#satori_cp-id)"><path x="271" y="84" width="100" height="25" d="M277,84 h88 a6,6 0 0 1 6,6 v13 a6,6 0 0 1 -6,6 h-88 a6,6 0 0 1 -6,-6 v-13 a6,6 0 0 1 6,-6"/></clipPath></defs><mask id="satori_om-id-2-1-1-2"><rect x="272" y="85" width="98" height="23" fill="#fff" mask="url(#satori_om-id)"/><path width="100" height="25" fill="none" stroke="#000" stroke-width="2" d="M272.757,85.757 A6,6 0 0 1 277,84 h88 a6,6 0 0 1 6,6 v13 a6,6 0 0 1 -6,6 h-88 a6,6 0 0 1 -6,-6 v-13 A6,6 0 0 1 272.757,85.757"/></mask><path x="271" y="84" width="100" height="25" fill="rgba(255,255,255,0.05)" d="M277,84 h88 a6,6 0 0 1 6,6 v13 a6,6 0 0 1 -6,6 h-88 a6,6 0 0 1 -6,-6 v-13 a6,6 0 0 1 6,-6" clip-path="url(#satori_cp-id)" mask="url(#satori_om-id)"/><path width="100" height="25" clip-path="url(#satori_bc-id-2-1-1-2)" fill="none" stroke="rgba(255,255,255,0.12)" stroke-width="2" d="M272.757,85.757 A6,6 0 0 1 277,84 h88 a6,6 0 0 1 6,6 v13 a6,6 0 0 1 -6,6 h-88 a6,6 0 0 1 -6,-6 v-13 A6,6 0 0 1 272.757,85.757"/><g mask="url(#satori_om-id)" clip-path="url(#satori_cp-id)"><path fill="rgba(235,235,235,0.82)" d="M287.6 101L285.8 101L285.8 92.3L289.2 92.3Q290.2 92.3 290.9 92.6Q291.6 93.0 292.0 93.7Q292.3 94.4 292.3 95.2L292.3 95.2Q292.3 96.1 291.9 96.7Q291.6 97.4 290.9 97.8Q290.2 98.1 289.2 98.1L289.2 98.1L287.6 98.1L287.6 101ZM287.6 93.7L287.6 96.7L288.9 96.7Q289.4 96.7 289.8 96.5Q290.1 96.3 290.3 96.0Q290.5 95.7 290.5 95.2Q290.5 94.8 290.3 94.4Q290.1 94.1 289.8 93.9Q289.4 93.7 288.9 93.7L288.9 93.7L287.6 93.7ZM295.3 101L293.5 101L293.5 94.4L295.2 94.4L295.2 95.6L295.3 95.6Q295.5 95.0 295.9 94.7Q296.3 94.4 296.9 94.4L296.9 94.4Q297.0 94.4 297.2 94.4Q297.3 94.4 297.4 94.4L297.4 94.4L297.4 96.0Q297.3 95.9 297.1 95.9Q296.9 95.9 296.7 95.9L296.7 95.9Q296.3 95.9 296.0 96.1Q295.6 96.2 295.5 96.6Q295.3 96.9 295.3 97.3L295.3 97.3L295.3 101ZM301.3 101.1L301.3 101.1Q300.4 101.1 299.6 100.7Q298.9 100.3 298.5 99.5Q298.1 98.8 298.1 97.8L298.1 97.8Q298.1 96.7 298.5 96.0Q298.9 95.2 299.6 94.8Q300.4 94.4 301.3 94.4L301.3 94.4Q302.3 94.4 303.0 94.8Q303.8 95.2 304.2 96.0Q304.5 96.7 304.5 97.8L304.5 97.8Q304.5 98.8 304.2 99.5Q303.8 100.3 303.0 100.7Q302.3 101.1 301.3 101.1ZM301.3 99.7L301.3 99.7Q301.8 99.7 302.1 99.5Q302.4 99.2 302.6 98.8Q302.8 98.3 302.8 97.7L302.8 97.7Q302.8 97.2 302.6 96.7Q302.4 96.3 302.1 96.0Q301.8 95.8 301.3 95.8L301.3 95.8Q300.9 95.8 300.6 96.0Q300.2 96.3 300.1 96.7Q299.9 97.2 299.9 97.7L299.9 97.7Q299.9 98.3 300.1 98.8Q300.2 99.2 300.6 99.5Q300.9 99.7 301.3 99.7ZM307.5 101L305.8 101L305.8 94.4L307.4 94.4L307.5 95.7Q307.6 95.4 307.8 95.1L307.8 95.1Q308.1 94.7 308.5 94.5Q308.9 94.3 309.3 94.3L309.3 94.3Q310.0 94.3 310.5 94.8L310.5 94.8Q310.8 95.2 311.0 95.8L311.0 95.8Q311.2 95.4 311.4 95.1L311.4 95.1Q311.7 94.7 312.2 94.5Q312.6 94.3 313.1 94.3L313.1 94.3Q313.7 94.3 314.2 94.6Q314.7 94.9 315.0 95.4Q315.2 95.9 315.2 96.6L315.2 96.6L315.2 101L313.5 101L313.5 96.9Q313.5 96.4 313.2 96.1Q312.9 95.8 312.4 95.8L312.4 95.8Q312.1 95.8 311.9 96.0Q311.6 96.1 311.5 96.4Q311.3 96.6 311.3 97.0L311.3 97.0L311.3 101L309.6 101L309.6 96.9Q309.6 96.4 309.4 96.1Q309.1 95.8 308.6 95.8L308.6 95.8Q308.3 95.8 308.1 96.0Q307.8 96.1 307.7 96.4Q307.5 96.6 307.5 97.0L307.5 97.0L307.5 101ZM319.7 101.1L319.7 101.1Q318.7 101.1 318.0 100.7Q317.2 100.3 316.8 99.6Q316.4 98.8 316.4 97.8L316.4 97.8Q316.4 96.7 316.8 96.0Q317.2 95.2 317.9 94.8Q318.6 94.4 319.6 94.4L319.6 94.4Q320.2 94.4 320.8 94.6Q321.4 94.8 321.8 95.2Q322.2 95.6 322.4 96.2Q322.7 96.8 322.7 97.7L322.7 97.7L322.7 98.2L318.2 98.2Q318.2 98.7 318.4 99.0L318.4 99.0Q318.6 99.4 318.9 99.6Q319.3 99.8 319.7 99.8L319.7 99.8Q320.0 99.8 320.3 99.7Q320.5 99.6 320.7 99.5Q320.9 99.3 321.0 99.0L321.0 99.0L322.6 99.3Q322.4 99.9 322.0 100.3Q321.6 100.7 321.0 100.9Q320.4 101.1 319.7 101.1ZM318.2 97.1L318.2 97.1L321.0 97.1Q320.9 96.8 320.8 96.5L320.8 96.5Q320.7 96.1 320.4 95.9Q320.1 95.7 319.6 95.7L319.6 95.7Q319.2 95.7 318.8 95.9Q318.5 96.1 318.4 96.5L318.4 96.5Q318.2 96.7 318.2 97.1ZM325.9 94.4L327.1 94.4L327.1 95.8L325.9 95.8L325.9 99.1Q325.9 99.4 326.0 99.5Q326.2 99.7 326.5 99.7L326.5 99.7Q326.6 99.7 326.8 99.7Q327.0 99.6 327.1 99.6L327.1 99.6L327.3 100.9Q327.0 101.0 326.7 101.1Q326.4 101.1 326.2 101.1L326.2 101.1Q325.2 101.1 324.7 100.6Q324.1 100.1 324.1 99.2L324.1 99.2L324.1 95.8L323.2 95.8L323.2 94.4L324.1 94.4L324.1 92.9L325.9 92.9L325.9 94.4ZM330.0 97.2L330.0 97.2L330.0 101L328.3 101L328.3 92.3L330.0 92.3L330.0 95.7Q330.2 95.2 330.6 94.8L330.6 94.8Q331.2 94.4 332.0 94.4L332.0 94.4Q332.7 94.4 333.2 94.7Q333.7 95.0 334.0 95.5Q334.2 96.1 334.2 96.8L334.2 96.8L334.2 101L332.5 101L332.5 97.1Q332.5 96.5 332.2 96.2Q331.9 95.8 331.3 95.8L331.3 95.8Q330.9 95.8 330.6 96.0Q330.3 96.2 330.2 96.5Q330.0 96.8 330.0 97.2ZM338.7 101.1L338.7 101.1Q337.7 101.1 337.0 100.7Q336.2 100.3 335.9 99.6Q335.5 98.8 335.5 97.8L335.5 97.8Q335.5 96.7 335.8 96.0Q336.2 95.2 336.9 94.8Q337.7 94.4 338.6 94.4L338.6 94.4Q339.3 94.4 339.8 94.6Q340.4 94.8 340.8 95.2Q341.2 95.6 341.4 96.2Q341.7 96.8 341.7 97.7L341.7 97.7L341.7 98.2L337.2 98.2Q337.2 98.7 337.4 99.0L337.4 99.0Q337.6 99.4 337.9 99.6Q338.3 99.8 338.7 99.8L338.7 99.8Q339.0 99.8 339.3 99.7Q339.5 99.6 339.7 99.5Q339.9 99.3 340.0 99.0L340.0 99.0L341.6 99.3Q341.4 99.9 341.0 100.3Q340.6 100.7 340.1 100.9Q339.5 101.1 338.7 101.1ZM337.2 97.1L337.2 97.1L340.0 97.1Q340.0 96.8 339.8 96.5L339.8 96.5Q339.7 96.1 339.4 95.9Q339.1 95.7 338.6 95.7L338.6 95.7Q338.2 95.7 337.8 95.9Q337.5 96.1 337.4 96.5L337.4 96.5Q337.2 96.7 337.2 97.1ZM345.1 101.1L345.1 101.1Q344.5 101.1 344.0 100.8Q343.4 100.5 343.2 99.9Q342.9 99.4 342.9 98.6L342.9 98.6L342.9 94.4L344.6 94.4L344.6 98.3Q344.6 98.9 345.0 99.3Q345.3 99.6 345.8 99.6L345.8 99.6Q346.2 99.6 346.5 99.5Q346.8 99.3 346.9 99.0Q347.1 98.7 347.1 98.2L347.1 98.2L347.1 94.4L348.9 94.4L348.9 101L347.2 101L347.2 99.6Q346.9 100.3 346.5 100.6L346.5 100.6Q346.0 101.1 345.1 101.1ZM353.0 101.1L353.0 101.1Q352.2 101.1 351.6 100.9Q350.9 100.7 350.6 100.2Q350.2 99.8 350.1 99.2L350.1 99.2L351.7 98.9Q351.8 99.4 352.1 99.6Q352.5 99.8 353.0 99.8L353.0 99.8Q353.5 99.8 353.8 99.6Q354.1 99.5 354.1 99.2L354.1 99.2Q354.1 98.9 353.9 98.7Q353.7 98.6 353.3 98.5L353.3 98.5L352.1 98.3Q351.2 98.1 350.7 97.6Q350.2 97.1 350.2 96.4L350.2 96.4Q350.2 95.8 350.6 95.3Q350.9 94.9 351.5 94.6Q352.2 94.4 353.0 94.4L353.0 94.4Q353.8 94.4 354.3 94.6Q354.9 94.8 355.2 95.2Q355.6 95.6 355.7 96.1L355.7 96.1L354.2 96.4Q354.1 96.1 353.8 95.8Q353.5 95.6 353.0 95.6L353.0 95.6Q352.6 95.6 352.3 95.8Q352.0 96.0 352.0 96.3L352.0 96.3Q352.0 96.5 352.2 96.7Q352.4 96.9 352.8 97.0L352.8 97.0L354.0 97.2Q355.0 97.4 355.4 97.8Q355.9 98.3 355.9 99.0L355.9 99.0Q355.9 99.6 355.5 100.1Q355.1 100.6 354.5 100.9Q353.8 101.1 353.0 101.1Z "/></g><defs><clipPath id="satori_bc-id-2-1-1-3" clip-path="url(#satori_cp-id)"><path x="378" y="84" width="94" height="25" d="M384,84 h82 a6,6 0 0 1 6,6 v13 a6,6 0 0 1 -6,6 h-82 a6,6 0 0 1 -6,-6 v-13 a6,6 0 0 1 6,-6"/></clipPath></defs><mask id="satori_om-id-2-1-1-3"><rect x="379" y="85" width="92" height="23" fill="#fff" mask="url(#satori_om-id)"/><path width="94" height="25" fill="none" stroke="#000" stroke-width="2" d="M379.757,85.757 A6,6 0 0 1 384,84 h82 a6,6 0 0 1 6,6 v13 a6,6 0 0 1 -6,6 h-82 a6,6 0 0 1 -6,-6 v-13 A6,6 0 0 1 379.757,85.757"/></mask><path x="378" y="84" width="94" height="25" fill="rgba(255,255,255,0.05)" d="M384,84 h82 a6,6 0 0 1 6,6 v13 a6,6 0 0 1 -6,6 h-82 a6,6 0 0 1 -6,-6 v-13 a6,6 0 0 1 6,-6" clip-path="url(#satori_cp-id)" mask="url(#satori_om-id)"/><path width="94" height="25" clip-path="url(#satori_bc-id-2-1-1-3)" fill="none" stroke="rgba(255,255,255,0.12)" stroke-width="2" d="M379.757,85.757 A6,6 0 0 1 384,84 h82 a6,6 0 0 1 6,6 v13 a6,6 0 0 1 -6,6 h-82 a6,6 0 0 1 -6,-6 v-13 A6,6 0 0 1 379.757,85.757"/><g mask="url(#satori_om-id)" clip-path="url(#satori_cp-id)"><path fill="rgba(235,235,235,0.82)" d="M396.7 101L394.6 101L392.3 92.3L394.2 92.3L395.3 96.6Q395.4 97.1 395.5 97.7Q395.6 98.3 395.7 98.9L395.7 98.9Q395.7 99.1 395.7 99.2L395.7 99.2Q395.7 99.1 395.8 98.9L395.8 98.9Q395.9 98.3 396.0 97.7Q396.1 97.1 396.2 96.6L396.2 96.6L397.3 92.3L399.2 92.3L400.2 96.6Q400.3 97.1 400.5 97.7Q400.6 98.3 400.7 98.9L400.7 98.9Q400.7 99.1 400.7 99.2L400.7 99.2Q400.7 99.1 400.8 98.9L400.8 98.9Q400.9 98.3 401.0 97.7Q401.1 97.1 401.2 96.6L401.2 96.6L402.2 92.3L404.2 92.3L401.8 101L399.8 101L398.6 96.5Q398.4 95.8 398.3 94.9L398.3 94.9Q398.3 94.7 398.2 94.4L398.2 94.4Q398.2 94.7 398.2 94.9L398.2 94.9Q398.0 95.7 397.8 96.5L397.8 96.5L396.7 101ZM408.1 101.1L408.1 101.1Q407.1 101.1 406.4 100.7Q405.7 100.3 405.3 99.5Q404.9 98.8 404.9 97.8L404.9 97.8Q404.9 96.7 405.3 96.0Q405.7 95.2 406.4 94.8Q407.1 94.4 408.1 94.4L408.1 94.4Q409.1 94.4 409.8 94.8Q410.6 95.2 410.9 96.0Q411.3 96.7 411.3 97.8L411.3 97.8Q411.3 98.8 410.9 99.5Q410.6 100.3 409.8 100.7Q409.1 101.1 408.1 101.1ZM408.1 99.7L408.1 99.7Q408.6 99.7 408.9 99.5Q409.2 99.2 409.4 98.8Q409.5 98.3 409.5 97.7L409.5 97.7Q409.5 97.2 409.4 96.7Q409.2 96.3 408.9 96.0Q408.6 95.8 408.1 95.8L408.1 95.8Q407.7 95.8 407.3 96.0Q407.0 96.3 406.9 96.7Q406.7 97.2 406.7 97.7L406.7 97.7Q406.7 98.3 406.9 98.8Q407.0 99.2 407.3 99.5Q407.7 99.7 408.1 99.7ZM414.3 101L412.6 101L412.6 94.4L414.3 94.4L414.3 95.6L414.3 95.6Q414.5 95.0 414.9 94.7Q415.4 94.4 415.9 94.4L415.9 94.4Q416.0 94.4 416.2 94.4Q416.4 94.4 416.5 94.4L416.5 94.4L416.5 96.0Q416.4 95.9 416.1 95.9Q415.9 95.9 415.7 95.9L415.7 95.9Q415.3 95.9 415.0 96.1Q414.7 96.2 414.5 96.6Q414.3 96.9 414.3 97.3L414.3 97.3L414.3 101ZM419.8 101.1L419.8 101.1Q419.1 101.1 418.5 100.7Q417.9 100.3 417.5 99.6Q417.2 98.8 417.2 97.7L417.2 97.7Q417.2 96.6 417.5 95.9Q417.9 95.1 418.5 94.7Q419.1 94.4 419.8 94.4L419.8 94.4Q420.4 94.4 420.8 94.6Q421.1 94.7 421.4 95.0Q421.6 95.3 421.7 95.6L421.7 95.6L421.8 95.6L421.8 92.3L423.5 92.3L423.5 101L421.8 101L421.8 100.0L421.7 100.0Q421.6 100.2 421.3 100.5Q421.1 100.7 420.7 100.9Q420.4 101.1 419.8 101.1ZM420.4 99.7L420.4 99.7Q420.8 99.7 421.1 99.5Q421.5 99.2 421.6 98.8Q421.8 98.3 421.8 97.7L421.8 97.7Q421.8 97.1 421.6 96.7Q421.5 96.3 421.2 96.0Q420.8 95.8 420.4 95.8L420.4 95.8Q419.9 95.8 419.6 96.0Q419.3 96.3 419.1 96.7Q419.0 97.2 419.0 97.7L419.0 97.7Q419.0 98.3 419.1 98.8Q419.3 99.2 419.6 99.4Q419.9 99.7 420.4 99.7ZM426.8 103.4L425.0 103.4L425.0 94.4L426.7 94.4L426.7 95.6L426.8 95.6Q426.9 95.3 427.2 95.0Q427.4 94.7 427.8 94.6Q428.1 94.4 428.7 94.4L428.7 94.4Q429.4 94.4 430.0 94.7Q430.6 95.1 431.0 95.9Q431.3 96.6 431.3 97.7L431.3 97.7Q431.3 98.8 431.0 99.6Q430.6 100.3 430.0 100.7Q429.4 101.1 428.7 101.1L428.7 101.1Q428.1 101.1 427.8 100.9Q427.4 100.7 427.2 100.5Q426.9 100.2 426.8 100.0L426.8 100.0L426.8 100.0L426.8 103.4ZM428.1 99.7L428.1 99.7Q428.6 99.7 428.9 99.4Q429.2 99.2 429.4 98.8Q429.5 98.3 429.5 97.7L429.5 97.7Q429.5 97.2 429.4 96.7Q429.2 96.3 428.9 96.0Q428.6 95.8 428.1 95.8L428.1 95.8Q427.7 95.8 427.4 96.0Q427.1 96.3 426.9 96.7Q426.7 97.1 426.7 97.7L426.7 97.7Q426.7 98.3 426.9 98.8Q427.1 99.2 427.4 99.5Q427.7 99.7 428.1 99.7ZM434.3 101L432.6 101L432.6 94.4L434.3 94.4L434.3 95.6L434.3 95.6Q434.5 95.0 435.0 94.7Q435.4 94.4 435.9 94.4L435.9 94.4Q436.1 94.4 436.2 94.4Q436.4 94.4 436.5 94.4L436.5 94.4L436.5 96.0Q436.4 95.9 436.2 95.9Q435.9 95.9 435.7 95.9L435.7 95.9Q435.3 95.9 435.0 96.1Q434.7 96.2 434.5 96.6Q434.3 96.9 434.3 97.3L434.3 97.3L434.3 101ZM440.4 101.1L440.4 101.1Q439.4 101.1 438.7 100.7Q438.0 100.3 437.6 99.6Q437.2 98.8 437.2 97.8L437.2 97.8Q437.2 96.7 437.6 96.0Q438.0 95.2 438.7 94.8Q439.4 94.4 440.3 94.4L440.3 94.4Q441.0 94.4 441.5 94.6Q442.1 94.8 442.5 95.2Q442.9 95.6 443.2 96.2Q443.4 96.8 443.4 97.7L443.4 97.7L443.4 98.2L438.9 98.2Q438.9 98.7 439.1 99.0L439.1 99.0Q439.3 99.4 439.7 99.6Q440.0 99.8 440.5 99.8L440.5 99.8Q440.8 99.8 441.0 99.7Q441.3 99.6 441.4 99.5Q441.6 99.3 441.7 99.0L441.7 99.0L443.3 99.3Q443.2 99.9 442.8 100.3Q442.4 100.7 441.8 100.9Q441.2 101.1 440.4 101.1ZM438.9 97.1L438.9 97.1L441.7 97.1Q441.7 96.8 441.6 96.5L441.6 96.5Q441.4 96.1 441.1 95.9Q440.8 95.7 440.4 95.7L440.4 95.7Q439.9 95.7 439.6 95.9Q439.3 96.1 439.1 96.5L439.1 96.5Q439.0 96.7 438.9 97.1ZM447.2 101.1L447.2 101.1Q446.4 101.1 445.8 100.9Q445.2 100.7 444.8 100.2Q444.4 99.8 444.3 99.2L444.3 99.2L446.0 98.9Q446.1 99.4 446.4 99.6Q446.7 99.8 447.3 99.8L447.3 99.8Q447.8 99.8 448.1 99.6Q448.3 99.5 448.3 99.2L448.3 99.2Q448.3 98.9 448.1 98.7Q447.9 98.6 447.5 98.5L447.5 98.5L446.4 98.3Q445.4 98.1 445.0 97.6Q444.5 97.1 444.5 96.4L444.5 96.4Q444.5 95.8 444.8 95.3Q445.2 94.9 445.8 94.6Q446.4 94.4 447.2 94.4L447.2 94.4Q448.0 94.4 448.6 94.6Q449.2 94.8 449.5 95.2Q449.9 95.6 450.0 96.1L450.0 96.1L448.4 96.4Q448.3 96.1 448.0 95.8Q447.7 95.6 447.3 95.6L447.3 95.6Q446.8 95.6 446.5 95.8Q446.2 96.0 446.2 96.3L446.2 96.3Q446.2 96.5 446.4 96.7Q446.6 96.9 447.1 97.0L447.1 97.0L448.3 97.2Q449.2 97.4 449.7 97.8Q450.1 98.3 450.1 99.0L450.1 99.0Q450.1 99.6 449.8 100.1Q449.4 100.6 448.7 100.9Q448.1 101.1 447.2 101.1ZM453.9 101.1L453.9 101.1Q453.1 101.1 452.5 100.9Q451.9 100.7 451.5 100.2Q451.2 99.8 451.0 99.2L451.0 99.2L452.7 98.9Q452.8 99.4 453.1 99.6Q453.4 99.8 454.0 99.8L454.0 99.8Q454.5 99.8 454.8 99.6Q455.1 99.5 455.1 99.2L455.1 99.2Q455.1 98.9 454.9 98.7Q454.7 98.6 454.2 98.5L454.2 98.5L453.1 98.3Q452.1 98.1 451.7 97.6Q451.2 97.1 451.2 96.4L451.2 96.4Q451.2 95.8 451.6 95.3Q451.9 94.9 452.5 94.6Q453.1 94.4 454.0 94.4L454.0 94.4Q454.7 94.4 455.3 94.6Q455.9 94.8 456.2 95.2Q456.6 95.6 456.7 96.1L456.7 96.1L455.1 96.4Q455.0 96.1 454.8 95.8Q454.5 95.6 454.0 95.6L454.0 95.6Q453.6 95.6 453.3 95.8Q453.0 96.0 453.0 96.3L453.0 96.3Q453.0 96.5 453.2 96.7Q453.3 96.9 453.8 97.0L453.8 97.0L455.0 97.2Q455.9 97.4 456.4 97.8Q456.9 98.3 456.9 99.0L456.9 99.0Q456.9 99.6 456.5 100.1Q456.1 100.6 455.5 100.9Q454.8 101.1 453.9 101.1Z "/></g><defs><clipPath id="satori_bc-id-2-1-1-4" clip-path="url(#satori_cp-id)"><path x="479" y="84" width="76" height="25" d="M485,84 h64 a6,6 0 0 1 6,6 v13 a6,6 0 0 1 -6,6 h-64 a6,6 0 0 1 -6,-6 v-13 a6,6 0 0 1 6,-6"/></clipPath></defs><mask id="satori_om-id-2-1-1-4"><rect x="480" y="85" width="74" height="23" fill="#fff" mask="url(#satori_om-id)"/><path width="76" height="25" fill="none" stroke="#000" stroke-width="2" d="M480.757,85.757 A6,6 0 0 1 485,84 h64 a6,6 0 0 1 6,6 v13 a6,6 0 0 1 -6,6 h-64 a6,6 0 0 1 -6,-6 v-13 A6,6 0 0 1 480.757,85.757"/></mask><path x="479" y="84" width="76" height="25" fill="rgba(255,255,255,0.05)" d="M485,84 h64 a6,6 0 0 1 6,6 v13 a6,6 0 0 1 -6,6 h-64 a6,6 0 0 1 -6,-6 v-13 a6,6 0 0 1 6,-6" clip-path="url(#satori_cp-id)" mask="url(#satori_om-id)"/><path width="76" height="25" clip-path="url(#satori_bc-id-2-1-1-4)" fill="none" stroke="rgba(255,255,255,0.12)" stroke-width="2" d="M480.757,85.757 A6,6 0 0 1 485,84 h64 a6,6 0 0 1 6,6 v13 a6,6 0 0 1 -6,6 h-64 a6,6 0 0 1 -6,-6 v-13 A6,6 0 0 1 480.757,85.757"/><g mask="url(#satori_om-id)" clip-path="url(#satori_cp-id)"><path fill="rgba(235,235,235,0.82)" d="M497.7 101.1L497.7 101.1Q496.4 101.1 495.5 100.6Q494.6 100.0 494.1 99.0Q493.6 98.0 493.6 96.6L493.6 96.6Q493.6 95.2 494.1 94.2Q494.6 93.2 495.5 92.7Q496.5 92.2 497.6 92.2L497.6 92.2Q498.4 92.2 499.0 92.4Q499.6 92.6 500.1 93.0Q500.6 93.4 500.9 93.9Q501.2 94.4 501.3 95.1L501.3 95.1L499.5 95.1Q499.4 94.8 499.3 94.5Q499.1 94.3 498.9 94.1Q498.6 93.9 498.3 93.8Q498.0 93.7 497.6 93.7L497.6 93.7Q497.0 93.7 496.5 94.1Q495.9 94.4 495.7 95.1Q495.4 95.7 495.4 96.6Q495.4 97.6 495.7 98.2Q495.9 98.8 496.5 99.2Q497.0 99.5 497.7 99.5L497.7 99.5Q498.3 99.5 498.8 99.3Q499.2 99.1 499.5 98.6L499.5 98.6Q499.7 98.2 499.7 97.7L499.7 97.7L497.8 97.7L497.8 96.3L501.4 96.3L501.4 97.4Q501.4 98.6 500.9 99.4Q500.5 100.2 499.6 100.7Q498.8 101.1 497.7 101.1ZM504.5 101L502.8 101L502.8 94.4L504.5 94.4L504.5 95.6L504.5 95.6Q504.7 95.0 505.1 94.7Q505.6 94.4 506.1 94.4L506.1 94.4Q506.2 94.4 506.4 94.4Q506.6 94.4 506.7 94.4L506.7 94.4L506.7 96.0Q506.6 95.9 506.3 95.9Q506.1 95.9 505.9 95.9L505.9 95.9Q505.5 95.9 505.2 96.1Q504.9 96.2 504.7 96.6Q504.5 96.9 504.5 97.3L504.5 97.3L504.5 101ZM509.5 101.1L509.5 101.1Q508.8 101.1 508.4 100.9Q507.9 100.7 507.6 100.3Q507.3 99.8 507.3 99.2L507.3 99.2Q507.3 98.6 507.5 98.3Q507.7 97.9 508.0 97.7Q508.4 97.4 508.8 97.3Q509.3 97.2 509.8 97.2L509.8 97.2Q510.3 97.1 510.7 97.0Q511.0 97.0 511.2 96.9Q511.4 96.8 511.4 96.6L511.4 96.6L511.4 96.5Q511.4 96.3 511.2 96.1Q511.1 95.9 510.9 95.8Q510.7 95.7 510.3 95.7L510.3 95.7Q510.0 95.7 509.7 95.8Q509.5 95.9 509.3 96.0Q509.2 96.2 509.1 96.4L509.1 96.4L507.5 96.2Q507.6 95.6 508.0 95.2Q508.4 94.8 509.0 94.6Q509.6 94.4 510.3 94.4L510.3 94.4Q510.9 94.4 511.4 94.5Q511.9 94.6 512.3 94.9Q512.6 95.1 512.9 95.6Q513.1 96.0 513.1 96.6L513.1 96.6L513.1 101L511.4 101L511.4 100.1L511.4 100.1Q511.2 100.4 511.0 100.6Q510.7 100.9 510.3 101.0Q510.0 101.1 509.5 101.1ZM510.0 99.9L510.0 99.9Q510.4 99.9 510.7 99.7Q511.0 99.6 511.2 99.3Q511.4 99.0 511.4 98.7L511.4 98.7L511.4 97.9Q511.3 98.0 511.1 98.1Q511.0 98.1 510.8 98.1Q510.6 98.2 510.4 98.2Q510.2 98.2 510.1 98.2L510.1 98.2Q509.7 98.3 509.5 98.4Q509.2 98.5 509.1 98.7Q509.0 98.8 509.0 99.1L509.0 99.1Q509.0 99.4 509.1 99.5Q509.2 99.7 509.5 99.8Q509.7 99.9 510.0 99.9ZM516.9 94.4L518.3 94.4L518.3 95.8L516.9 95.8L516.9 101L515.1 101L515.1 95.8L514.0 95.8L514.0 94.4L515.1 94.4L515.1 93.9Q515.1 93.2 515.4 92.8Q515.7 92.3 516.2 92.1Q516.6 91.9 517.3 91.9L517.3 91.9Q517.7 91.9 518.0 91.9Q518.4 92.0 518.5 92.0L518.5 92.0L518.2 93.4Q518.1 93.3 517.9 93.3Q517.8 93.3 517.6 93.3L517.6 93.3Q517.2 93.3 517.0 93.5Q516.9 93.7 516.9 94.0L516.9 94.0L516.9 94.4ZM521.2 101.1L521.2 101.1Q520.6 101.1 520.1 100.9Q519.6 100.7 519.3 100.3Q519.0 99.8 519.0 99.2L519.0 99.2Q519.0 98.6 519.2 98.3Q519.4 97.9 519.8 97.7Q520.1 97.4 520.6 97.3Q521.0 97.2 521.5 97.2L521.5 97.2Q522.1 97.1 522.4 97.0Q522.8 97.0 522.9 96.9Q523.1 96.8 523.1 96.6L523.1 96.6L523.1 96.5Q523.1 96.3 523.0 96.1Q522.9 95.9 522.6 95.8Q522.4 95.7 522.1 95.7L522.1 95.7Q521.7 95.7 521.5 95.8Q521.2 95.9 521.1 96.0Q520.9 96.2 520.8 96.4L520.8 96.4L519.2 96.2Q519.4 95.6 519.8 95.2Q520.2 94.8 520.8 94.6Q521.3 94.4 522.1 94.4L522.1 94.4Q522.6 94.4 523.1 94.5Q523.6 94.6 524.0 94.9Q524.4 95.1 524.6 95.6Q524.9 96.0 524.9 96.6L524.9 96.6L524.9 101L523.2 101L523.2 100.1L523.1 100.1Q523.0 100.4 522.7 100.6Q522.4 100.9 522.1 101.0Q521.7 101.1 521.2 101.1ZM521.7 99.9L521.7 99.9Q522.1 99.9 522.4 99.7Q522.8 99.6 522.9 99.3Q523.1 99.0 523.1 98.7L523.1 98.7L523.1 97.9Q523.0 98.0 522.9 98.1Q522.7 98.1 522.5 98.1Q522.3 98.2 522.1 98.2Q522.0 98.2 521.8 98.2L521.8 98.2Q521.5 98.3 521.2 98.4Q521.0 98.5 520.9 98.7Q520.7 98.8 520.7 99.1L520.7 99.1Q520.7 99.4 520.8 99.5Q521.0 99.7 521.2 99.8Q521.4 99.9 521.7 99.9ZM528.1 97.2L528.1 97.2L528.1 101L526.4 101L526.4 94.4L528.0 94.4L528.0 95.8Q528.3 95.2 528.7 94.8L528.7 94.8Q529.2 94.4 530.1 94.4L530.1 94.4Q530.8 94.4 531.3 94.7Q531.8 95.0 532.0 95.5Q532.3 96.1 532.3 96.8L532.3 96.8L532.3 101L530.6 101L530.6 97.1Q530.6 96.5 530.3 96.2Q529.9 95.8 529.4 95.8L529.4 95.8Q529.0 95.8 528.7 96.0Q528.4 96.2 528.3 96.5Q528.1 96.8 528.1 97.2ZM535.7 101.1L535.7 101.1Q535.0 101.1 534.5 100.9Q534.0 100.7 533.8 100.3Q533.5 99.8 533.5 99.2L533.5 99.2Q533.5 98.6 533.7 98.3Q533.9 97.9 534.2 97.7Q534.6 97.4 535.0 97.3Q535.5 97.2 535.9 97.2L535.9 97.2Q536.5 97.1 536.9 97.0Q537.2 97.0 537.4 96.9Q537.5 96.8 537.5 96.6L537.5 96.6L537.5 96.5Q537.5 96.3 537.4 96.1Q537.3 95.9 537.1 95.8Q536.8 95.7 536.5 95.7L536.5 95.7Q536.2 95.7 535.9 95.8Q535.7 95.9 535.5 96.0Q535.3 96.2 535.3 96.4L535.3 96.4L533.7 96.2Q533.8 95.6 534.2 95.2Q534.6 94.8 535.2 94.6Q535.8 94.4 536.5 94.4L536.5 94.4Q537.0 94.4 537.5 94.5Q538.0 94.6 538.4 94.9Q538.8 95.1 539.1 95.6Q539.3 96.0 539.3 96.6L539.3 96.6L539.3 101L537.6 101L537.6 100.1L537.6 100.1Q537.4 100.4 537.1 100.6Q536.9 100.9 536.5 101.0Q536.1 101.1 535.7 101.1ZM536.1 99.9L536.1 99.9Q536.6 99.9 536.9 99.7Q537.2 99.6 537.4 99.3Q537.5 99.0 537.5 98.7L537.5 98.7L537.5 97.9Q537.5 98.0 537.3 98.1Q537.2 98.1 537.0 98.1Q536.8 98.2 536.6 98.2Q536.4 98.2 536.2 98.2L536.2 98.2Q535.9 98.3 535.7 98.4Q535.4 98.5 535.3 98.7Q535.2 98.8 535.2 99.1L535.2 99.1Q535.2 99.4 535.3 99.5Q535.4 99.7 535.6 99.8Q535.9 99.9 536.1 99.9Z "/></g><defs><clipPath id="satori_bc-id-2-1-1-5" clip-path="url(#satori_cp-id)"><path x="562" y="84" width="63" height="25" d="M568,84 h51 a6,6 0 0 1 6,6 v13 a6,6 0 0 1 -6,6 h-51 a6,6 0 0 1 -6,-6 v-13 a6,6 0 0 1 6,-6"/></clipPath></defs><mask id="satori_om-id-2-1-1-5"><rect x="563" y="85" width="61" height="23" fill="#fff" mask="url(#satori_om-id)"/><path width="63" height="25" fill="none" stroke="#000" stroke-width="2" d="M563.757,85.757 A6,6 0 0 1 568,84 h51 a6,6 0 0 1 6,6 v13 a6,6 0 0 1 -6,6 h-51 a6,6 0 0 1 -6,-6 v-13 A6,6 0 0 1 563.757,85.757"/></mask><path x="562" y="84" width="63" height="25" fill="rgba(255,255,255,0.05)" d="M568,84 h51 a6,6 0 0 1 6,6 v13 a6,6 0 0 1 -6,6 h-51 a6,6 0 0 1 -6,-6 v-13 a6,6 0 0 1 6,-6" clip-path="url(#satori_cp-id)" mask="url(#satori_om-id)"/><path width="63" height="25" clip-path="url(#satori_bc-id-2-1-1-5)" fill="none" stroke="rgba(255,255,255,0.12)" stroke-width="2" d="M563.757,85.757 A6,6 0 0 1 568,84 h51 a6,6 0 0 1 6,6 v13 a6,6 0 0 1 -6,6 h-51 a6,6 0 0 1 -6,-6 v-13 A6,6 0 0 1 563.757,85.757"/><g mask="url(#satori_om-id)" clip-path="url(#satori_cp-id)"><path fill="rgba(235,235,235,0.82)" d="M578.6 101L576.8 101L576.8 92.3L578.8 92.3L581.5 96.7Q581.8 97.0 582.0 97.4Q582.2 97.8 582.4 98.3L582.4 98.3Q582.5 98.6 582.6 98.8L582.6 98.8Q582.6 98.6 582.6 98.4L582.6 98.4Q582.6 97.8 582.6 97.3Q582.5 96.8 582.5 96.5L582.5 96.5L582.5 92.3L584.4 92.3L584.4 101L582.4 101L579.8 97.0Q579.6 96.5 579.3 96.1Q579.1 95.7 578.9 95.2L578.9 95.2Q578.7 94.9 578.5 94.5L578.5 94.5Q578.5 94.8 578.5 95.2L578.5 95.2Q578.6 95.7 578.6 96.2Q578.6 96.7 578.6 97.0L578.6 97.0L578.6 101ZM588.8 103.6L588.8 103.6Q588.0 103.6 587.4 103.4Q586.8 103.2 586.4 102.8Q586.0 102.4 585.9 102.0L585.9 102.0L587.4 101.6Q587.5 101.7 587.6 101.9Q587.8 102.1 588.1 102.2Q588.4 102.3 588.8 102.3L588.8 102.3Q589.5 102.3 589.9 102.0Q590.2 101.7 590.2 101.0L590.2 101.0L590.2 99.8L590.1 99.8Q590.0 100.1 589.8 100.3Q589.5 100.6 589.2 100.8Q588.8 100.9 588.3 100.9L588.3 100.9Q587.5 100.9 586.9 100.6Q586.3 100.2 586.0 99.5Q585.6 98.8 585.6 97.7L585.6 97.7Q585.6 96.6 586.0 95.9Q586.4 95.1 587.0 94.7Q587.6 94.4 588.3 94.4L588.3 94.4Q588.8 94.4 589.2 94.6Q589.6 94.7 589.8 95.0Q590.1 95.3 590.2 95.6L590.2 95.6L590.3 95.6L590.3 94.4L592.0 94.4L592.0 100.9Q592.0 101.8 591.6 102.4Q591.2 103.0 590.4 103.3Q589.7 103.6 588.8 103.6ZM588.8 99.6L588.8 99.6Q589.3 99.6 589.6 99.3Q589.9 99.1 590.1 98.7Q590.2 98.3 590.2 97.7L590.2 97.7Q590.2 97.1 590.1 96.7Q589.9 96.3 589.6 96.0Q589.3 95.8 588.8 95.8L588.8 95.8Q588.4 95.8 588.1 96.0Q587.7 96.3 587.6 96.7Q587.4 97.1 587.4 97.7L587.4 97.7Q587.4 98.3 587.6 98.7Q587.7 99.1 588.1 99.3Q588.4 99.6 588.8 99.6ZM595.2 101L593.5 101L593.5 94.4L595.2 94.4L595.2 101ZM594.4 93.6L594.4 93.6Q594.0 93.6 593.7 93.3Q593.4 93.1 593.4 92.7L593.4 92.7Q593.4 92.3 593.7 92.1Q594.0 91.8 594.4 91.8L594.4 91.8Q594.8 91.8 595.0 92.0Q595.3 92.3 595.3 92.7L595.3 92.7Q595.3 93.1 595.0 93.3Q594.8 93.6 594.4 93.6ZM598.5 97.2L598.5 97.2L598.5 101L596.7 101L596.7 94.4L598.4 94.4L598.4 95.8Q598.7 95.2 599.1 94.8L599.1 94.8Q599.6 94.4 600.5 94.4L600.5 94.4Q601.1 94.4 601.6 94.7Q602.1 95.0 602.4 95.5Q602.7 96.1 602.7 96.8L602.7 96.8L602.7 101L600.9 101L600.9 97.1Q600.9 96.5 600.6 96.2Q600.3 95.8 599.8 95.8L599.8 95.8Q599.4 95.8 599.1 96.0Q598.8 96.2 598.6 96.5Q598.5 96.8 598.5 97.2ZM605.6 101L603.7 101L605.8 97.6L603.8 94.4L605.7 94.4L606.3 95.5Q606.6 96.0 606.8 96.5L606.8 96.5Q606.9 96.6 606.9 96.8L606.9 96.8Q607.0 96.6 607.1 96.5L607.1 96.5Q607.3 96.0 607.6 95.5L607.6 95.5L608.2 94.4L610.1 94.4L608.1 97.7L610.2 101L608.3 101L607.6 99.8Q607.3 99.3 607.0 98.8L607.0 98.8Q607.0 98.6 606.9 98.5L606.9 98.5Q606.8 98.6 606.8 98.8L606.8 98.8Q606.6 99.3 606.3 99.8L606.3 99.8L605.6 101Z "/></g><defs><clipPath id="satori_bc-id-2-1-1-6" clip-path="url(#satori_cp-id)"><path x="632" y="84" width="73" height="25" d="M638,84 h61 a6,6 0 0 1 6,6 v13 a6,6 0 0 1 -6,6 h-61 a6,6 0 0 1 -6,-6 v-13 a6,6 0 0 1 6,-6"/></clipPath></defs><mask id="satori_om-id-2-1-1-6"><rect x="633" y="85" width="71" height="23" fill="#fff" mask="url(#satori_om-id)"/><path width="73" height="25" fill="none" stroke="#000" stroke-width="2" d="M633.757,85.757 A6,6 0 0 1 638,84 h61 a6,6 0 0 1 6,6 v13 a6,6 0 0 1 -6,6 h-61 a6,6 0 0 1 -6,-6 v-13 A6,6 0 0 1 633.757,85.757"/></mask><path x="632" y="84" width="73" height="25" fill="rgba(255,255,255,0.05)" d="M638,84 h61 a6,6 0 0 1 6,6 v13 a6,6 0 0 1 -6,6 h-61 a6,6 0 0 1 -6,-6 v-13 a6,6 0 0 1 6,-6" clip-path="url(#satori_cp-id)" mask="url(#satori_om-id)"/><path width="73" height="25" clip-path="url(#satori_bc-id-2-1-1-6)" fill="none" stroke="rgba(255,255,255,0.12)" stroke-width="2" d="M633.757,85.757 A6,6 0 0 1 638,84 h61 a6,6 0 0 1 6,6 v13 a6,6 0 0 1 -6,6 h-61 a6,6 0 0 1 -6,-6 v-13 A6,6 0 0 1 633.757,85.757"/><g mask="url(#satori_om-id)" clip-path="url(#satori_cp-id)"><path fill="rgba(235,235,235,0.82)" d="M648.6 101L646.8 101L646.8 92.3L652.5 92.3L652.5 93.8L648.6 93.8L648.6 96.2L652.1 96.2L652.1 97.6L648.6 97.6L648.6 101ZM656.7 101.1L656.7 101.1Q655.7 101.1 655.0 100.7Q654.3 100.3 653.9 99.5Q653.5 98.8 653.5 97.8L653.5 97.8Q653.5 96.7 653.9 96.0Q654.3 95.2 655.0 94.8Q655.7 94.4 656.7 94.4L656.7 94.4Q657.7 94.4 658.4 94.8Q659.1 95.2 659.5 96.0Q659.9 96.7 659.9 97.8L659.9 97.8Q659.9 98.8 659.5 99.5Q659.1 100.3 658.4 100.7Q657.7 101.1 656.7 101.1ZM656.7 99.7L656.7 99.7Q657.2 99.7 657.5 99.5Q657.8 99.2 658.0 98.8Q658.1 98.3 658.1 97.7L658.1 97.7Q658.1 97.2 658.0 96.7Q657.8 96.3 657.5 96.0Q657.2 95.8 656.7 95.8L656.7 95.8Q656.3 95.8 655.9 96.0Q655.6 96.3 655.5 96.7Q655.3 97.2 655.3 97.7L655.3 97.7Q655.3 98.3 655.5 98.8Q655.6 99.2 655.9 99.5Q656.3 99.7 656.7 99.7ZM662.9 101L661.2 101L661.2 94.4L662.9 94.4L662.9 95.6L662.9 95.6Q663.1 95.0 663.5 94.7Q664.0 94.4 664.5 94.4L664.5 94.4Q664.6 94.4 664.8 94.4Q665.0 94.4 665.1 94.4L665.1 94.4L665.1 96.0Q665.0 95.9 664.7 95.9Q664.5 95.9 664.3 95.9L664.3 95.9Q663.9 95.9 663.6 96.1Q663.3 96.2 663.1 96.6Q662.9 96.9 662.9 97.3L662.9 97.3L662.9 101ZM669.0 103.6L669.0 103.6Q668.1 103.6 667.5 103.4Q666.9 103.2 666.5 102.8Q666.2 102.4 666.0 102.0L666.0 102.0L667.5 101.6Q667.6 101.7 667.8 101.9Q667.9 102.1 668.2 102.2Q668.5 102.3 668.9 102.3L668.9 102.3Q669.6 102.3 670.0 102.0Q670.4 101.7 670.4 101.0L670.4 101.0L670.4 99.8L670.2 99.8Q670.1 100.1 669.9 100.3Q669.7 100.6 669.3 100.8Q669.0 100.9 668.4 100.9L668.4 100.9Q667.7 100.9 667.1 100.6Q666.5 100.2 666.1 99.5Q665.8 98.8 665.8 97.7L665.8 97.7Q665.8 96.6 666.1 95.9Q666.5 95.1 667.1 94.7Q667.7 94.4 668.4 94.4L668.4 94.4Q669.0 94.4 669.4 94.6Q669.7 94.7 670.0 95.0Q670.2 95.3 670.3 95.6L670.3 95.6L670.4 95.6L670.4 94.4L672.1 94.4L672.1 100.9Q672.1 101.8 671.7 102.4Q671.3 103.0 670.6 103.3Q669.9 103.6 669.0 103.6ZM669.0 99.6L669.0 99.6Q669.4 99.6 669.7 99.3Q670.1 99.1 670.2 98.7Q670.4 98.3 670.4 97.7L670.4 97.7Q670.4 97.1 670.2 96.7Q670.1 96.3 669.7 96.0Q669.4 95.8 669.0 95.8L669.0 95.8Q668.5 95.8 668.2 96.0Q667.9 96.3 667.7 96.7Q667.6 97.1 667.6 97.7L667.6 97.7Q667.6 98.3 667.7 98.7Q667.9 99.1 668.2 99.3Q668.5 99.6 669.0 99.6ZM676.6 101.1L676.6 101.1Q675.6 101.1 674.9 100.7Q674.1 100.3 673.7 99.6Q673.3 98.8 673.3 97.8L673.3 97.8Q673.3 96.7 673.7 96.0Q674.1 95.2 674.8 94.8Q675.5 94.4 676.5 94.4L676.5 94.4Q677.1 94.4 677.7 94.6Q678.3 94.8 678.7 95.2Q679.1 95.6 679.3 96.2Q679.6 96.8 679.6 97.7L679.6 97.7L679.6 98.2L675.1 98.2Q675.1 98.7 675.3 99.0L675.3 99.0Q675.5 99.4 675.8 99.6Q676.2 99.8 676.6 99.8L676.6 99.8Q676.9 99.8 677.2 99.7Q677.4 99.6 677.6 99.5Q677.8 99.3 677.9 99.0L677.9 99.0L679.5 99.3Q679.3 99.9 678.9 100.3Q678.5 100.7 677.9 100.9Q677.3 101.1 676.6 101.1ZM675.1 97.1L675.1 97.1L677.9 97.1Q677.8 96.8 677.7 96.5L677.7 96.5Q677.6 96.1 677.3 95.9Q677.0 95.7 676.5 95.7L676.5 95.7Q676.1 95.7 675.7 95.9Q675.4 96.1 675.3 96.5L675.3 96.5Q675.1 96.7 675.1 97.1ZM680.8 101.3L680.8 94.4L682.5 94.4L682.5 101.3Q682.5 102.1 682.2 102.5Q681.9 103.0 681.4 103.2Q680.8 103.4 680.1 103.4L680.1 103.4L679.7 103.4L679.7 102.1L680.0 102.1Q680.4 102.1 680.6 101.9Q680.8 101.7 680.8 101.3L680.8 101.3ZM681.6 93.6L681.6 93.6Q681.3 93.6 681.0 93.3Q680.7 93.1 680.7 92.7L680.7 92.7Q680.7 92.3 681.0 92.1Q681.3 91.8 681.6 91.8L681.6 91.8Q682.0 91.8 682.3 92.0Q682.6 92.3 682.6 92.7L682.6 92.7Q682.6 93.1 682.3 93.3Q682.0 93.6 681.6 93.6ZM687.0 101.1L687.0 101.1Q686.0 101.1 685.2 100.7Q684.5 100.3 684.1 99.5Q683.7 98.8 683.7 97.8L683.7 97.8Q683.7 96.7 684.1 96.0Q684.5 95.2 685.2 94.8Q686.0 94.4 687.0 94.4L687.0 94.4Q687.9 94.4 688.7 94.8Q689.4 95.2 689.8 96.0Q690.2 96.7 690.2 97.8L690.2 97.8Q690.2 98.8 689.8 99.5Q689.4 100.3 688.7 100.7Q687.9 101.1 687.0 101.1ZM687.0 99.7L687.0 99.7Q687.4 99.7 687.7 99.5Q688.1 99.2 688.2 98.8Q688.4 98.3 688.4 97.7L688.4 97.7Q688.4 97.2 688.2 96.7Q688.1 96.3 687.7 96.0Q687.4 95.8 687.0 95.8L687.0 95.8Q686.5 95.8 686.2 96.0Q685.9 96.3 685.7 96.7Q685.5 97.2 685.5 97.7L685.5 97.7Q685.5 98.3 685.7 98.8Q685.9 99.2 686.2 99.5Q686.5 99.7 687.0 99.7Z "/></g><defs><clipPath id="satori_bc-id-2-1-1-7" clip-path="url(#satori_cp-id)"><path x="712" y="84" width="54" height="25" d="M718,84 h42 a6,6 0 0 1 6,6 v13 a6,6 0 0 1 -6,6 h-42 a6,6 0 0 1 -6,-6 v-13 a6,6 0 0 1 6,-6"/></clipPath></defs><mask id="satori_om-id-2-1-1-7"><rect x="713" y="85" width="52" height="23" fill="#fff" mask="url(#satori_om-id)"/><path width="54" height="25" fill="none" stroke="#000" stroke-width="2" d="M713.757,85.757 A6,6 0 0 1 718,84 h42 a6,6 0 0 1 6,6 v13 a6,6 0 0 1 -6,6 h-42 a6,6 0 0 1 -6,-6 v-13 A6,6 0 0 1 713.757,85.757"/></mask><path x="712" y="84" width="54" height="25" fill="rgba(255,255,255,0.05)" d="M718,84 h42 a6,6 0 0 1 6,6 v13 a6,6 0 0 1 -6,6 h-42 a6,6 0 0 1 -6,-6 v-13 a6,6 0 0 1 6,-6" clip-path="url(#satori_cp-id)" mask="url(#satori_om-id)"/><path width="54" height="25" clip-path="url(#satori_bc-id-2-1-1-7)" fill="none" stroke="rgba(255,255,255,0.12)" stroke-width="2" d="M713.757,85.757 A6,6 0 0 1 718,84 h42 a6,6 0 0 1 6,6 v13 a6,6 0 0 1 -6,6 h-42 a6,6 0 0 1 -6,-6 v-13 A6,6 0 0 1 713.757,85.757"/><g mask="url(#satori_om-id)" clip-path="url(#satori_cp-id)"><path fill="rgba(235,235,235,0.82)" d="M729.9 101L729.9 101L726.8 101L726.8 92.3L729.9 92.3Q731.2 92.3 732.1 92.8Q733.1 93.3 733.6 94.3Q734.1 95.3 734.1 96.6L734.1 96.6Q734.1 98.0 733.6 99.0Q733.1 100.0 732.1 100.5Q731.2 101 729.9 101ZM728.6 93.8L728.6 99.5L729.8 99.5Q730.6 99.5 731.2 99.2Q731.8 98.9 732.0 98.2Q732.3 97.6 732.3 96.6L732.3 96.6Q732.3 95.7 732.0 95.0Q731.8 94.4 731.2 94.1Q730.6 93.8 729.8 93.8L729.8 93.8L728.6 93.8ZM737.3 101L735.5 101L735.5 92.3L737.4 92.3L740.2 96.7Q740.4 97.0 740.6 97.4Q740.9 97.8 741.1 98.3L741.1 98.3Q741.2 98.6 741.3 98.8L741.3 98.8Q741.3 98.6 741.3 98.4L741.3 98.4Q741.2 97.8 741.2 97.3Q741.2 96.8 741.2 96.5L741.2 96.5L741.2 92.3L743.0 92.3L743.0 101L741.0 101L738.5 97.0Q738.2 96.5 738.0 96.1Q737.8 95.7 737.5 95.2L737.5 95.2Q737.4 94.9 737.2 94.5L737.2 94.5Q737.2 94.8 737.2 95.2L737.2 95.2Q737.2 95.7 737.3 96.2Q737.3 96.7 737.3 97.0L737.3 97.0L737.3 101ZM747.8 101.1L747.8 101.1Q746.8 101.1 746.0 100.8Q745.2 100.5 744.8 99.9Q744.3 99.2 744.3 98.3L744.3 98.3L746.1 98.3Q746.1 98.7 746.3 99.0Q746.5 99.3 746.9 99.5Q747.3 99.6 747.8 99.6L747.8 99.6Q748.3 99.6 748.6 99.5Q749.0 99.3 749.2 99.1Q749.4 98.8 749.4 98.5L749.4 98.5Q749.4 98.2 749.2 98.0Q749.0 97.8 748.7 97.7Q748.3 97.5 747.9 97.4L747.9 97.4L746.9 97.2Q745.8 96.9 745.2 96.3Q744.5 95.7 744.5 94.8L744.5 94.8Q744.5 94.0 745.0 93.4Q745.4 92.8 746.1 92.5Q746.9 92.2 747.8 92.2L747.8 92.2Q748.8 92.2 749.5 92.5Q750.2 92.8 750.6 93.4Q751.0 94.0 751.1 94.8L751.1 94.8L749.3 94.8Q749.3 94.2 748.9 93.9Q748.5 93.7 747.8 93.7L747.8 93.7Q747.4 93.7 747.0 93.8Q746.7 93.9 746.5 94.1Q746.4 94.4 746.4 94.7L746.4 94.7Q746.4 95.0 746.6 95.2Q746.8 95.4 747.1 95.5Q747.4 95.7 747.8 95.8L747.8 95.8L748.6 96.0Q749.1 96.1 749.6 96.3Q750.1 96.5 750.4 96.8Q750.8 97.1 751.0 97.5Q751.2 98.0 751.2 98.5L751.2 98.5Q751.2 99.3 750.8 99.9Q750.4 100.5 749.6 100.8Q748.9 101.1 747.8 101.1Z "/></g><defs><clipPath id="satori_bc-id-2-1-1-8" clip-path="url(#satori_cp-id)"><path x="773" y="84" width="54" height="25" d="M779,84 h42 a6,6 0 0 1 6,6 v13 a6,6 0 0 1 -6,6 h-42 a6,6 0 0 1 -6,-6 v-13 a6,6 0 0 1 6,-6"/></clipPath></defs><mask id="satori_om-id-2-1-1-8"><rect x="774" y="85" width="52" height="23" fill="#fff" mask="url(#satori_om-id)"/><path width="54" height="25" fill="none" stroke="#000" stroke-width="2" d="M774.757,85.757 A6,6 0 0 1 779,84 h42 a6,6 0 0 1 6,6 v13 a6,6 0 0 1 -6,6 h-42 a6,6 0 0 1 -6,-6 v-13 A6,6 0 0 1 774.757,85.757"/></mask><path x="773" y="84" width="54" height="25" fill="rgba(255,255,255,0.05)" d="M779,84 h42 a6,6 0 0 1 6,6 v13 a6,6 0 0 1 -6,6 h-42 a6,6 0 0 1 -6,-6 v-13 a6,6 0 0 1 6,-6" clip-path="url(#satori_cp-id)" mask="url(#satori_om-id)"/><path width="54" height="25" clip-path="url(#satori_bc-id-2-1-1-8)" fill="none" stroke="rgba(255,255,255,0.12)" stroke-width="2" d="M774.757,85.757 A6,6 0 0 1 779,84 h42 a6,6 0 0 1 6,6 v13 a6,6 0 0 1 -6,6 h-42 a6,6 0 0 1 -6,-6 v-13 A6,6 0 0 1 774.757,85.757"/><g mask="url(#satori_om-id)" clip-path="url(#satori_cp-id)"><path fill="rgba(235,235,235,0.82)" d="M792.7 101L790.3 101L787.3 92.3L789.3 92.3L790.7 96.5Q790.9 97.3 791.2 98.2L791.2 98.2Q791.3 98.9 791.5 99.6L791.5 99.6Q791.7 98.9 791.9 98.2L791.9 98.2Q792.1 97.3 792.3 96.5L792.3 96.5L793.7 92.3L795.7 92.3L792.7 101ZM798.5 101L796.8 101L796.8 92.3L800.2 92.3Q801.2 92.3 801.8 92.6Q802.5 93.0 802.9 93.7Q803.3 94.4 803.3 95.2L803.3 95.2Q803.3 96.1 802.9 96.7Q802.5 97.4 801.8 97.8Q801.1 98.1 800.1 98.1L800.1 98.1L798.5 98.1L798.5 101ZM798.5 93.7L798.5 96.7L799.8 96.7Q800.4 96.7 800.7 96.5Q801.1 96.3 801.3 96.0Q801.4 95.7 801.4 95.2Q801.4 94.8 801.3 94.4Q801.1 94.1 800.7 93.9Q800.4 93.7 799.8 93.7L799.8 93.7L798.5 93.7ZM806.4 101L804.5 101L804.5 92.3L806.5 92.3L809.3 96.7Q809.5 97.0 809.7 97.4Q809.9 97.8 810.2 98.3L810.2 98.3Q810.3 98.6 810.4 98.8L810.4 98.8Q810.4 98.6 810.3 98.4L810.3 98.4Q810.3 97.8 810.3 97.3Q810.3 96.8 810.3 96.5L810.3 96.5L810.3 92.3L812.1 92.3L812.1 101L810.1 101L807.6 97.0Q807.3 96.5 807.1 96.1Q806.8 95.7 806.6 95.2L806.6 95.2Q806.4 94.9 806.2 94.5L806.2 94.5Q806.3 94.8 806.3 95.2L806.3 95.2Q806.3 95.7 806.3 96.2Q806.4 96.7 806.4 97.0L806.4 97.0L806.4 101Z "/></g></svg>