<!-- Generated by readme-aura https://github.com/collectioneur/readme-aura -->
<svg width="860" height="110" viewBox="0 0 860 110" xmlns="http://www.w3.org/2000/svg"><defs><clipPath id="satori_bc-id"><path x="0" y="0" width="860" height="110" d="M16,0 h828 a16,16 0 0 1 16,16 v78 a16,16 0 0 1 -16,16 h-828 a16,16 0 0 1 -16,-16 v-78 a16,16 0 0 1 16,-16"/></clipPath></defs><mask id="satori_om-id"><rect x="1" y="1" width="858" height="108" fill="#fff"/><path width="860" height="110" fill="none" stroke="#000" stroke-width="2" d="M4.686,4.686 A16,16 0 0 1 16,0 h828 a16,16 0 0 1 16,16 v78 a16,16 0 0 1 -16,16 h-828 a16,16 0 0 1 -16,-16 v-78 A16,16 0 0 1 4.686,4.686"/></mask><path x="0" y="0" width="860" height="110" fill="#08080c" d="M16,0 h828 a16,16 0 0 1 16,16 v78 a16,16 0 0 1 -16,16 h-828 a16,16 0 0 1 -16,-16 v-78 a16,16 0 0 1 16,-16"/><path width="860" height="110" clip-path="url(#satori_bc-id)" fill="none" stroke="rgba(255,255,255,0.05)" stroke-width="2" d="M4.686,4.686 A16,16 0 0 1 16,0 h828 a16,16 0 0 1 16,16 v78 a16,16 0 0 1 -16,16 h-828 a16,16 0 0 1 -16,-16 v-78 A16,16 0 0 1 4.686,4.686"/><mask id="satori_om-id-0"><rect x="60" y="29" width="127" height="53" fill="#fff"/></mask><mask id="satori_om-id-0-0"><rect x="119" y="29" width="10" height="10" fill="#fff"/></mask><path x="119" y="29" width="10" height="10" fill="#ffffff" d="M124,29 h0 a5,5 0 0 1 5,5 v0 a5,5 0 0 1 -5,5 h0 a5,5 0 0 1 -5,-5 v0 a5,5 0 0 1 5,-5"/><mask id="satori_om-id-0-1"><rect x="82" y="45" width="83" height="16" fill="#fff"/></mask><g  ><path fill="#ffffff" d="M87.0 58.1L87.0 58.1Q85.8 58.1 84.8 57.6Q83.8 57.0 83.2 55.9Q82.6 54.8 82.6 53.3L82.6 53.3Q82.6 51.7 83.2 50.6Q83.8 49.6 84.8 49.0Q85.8 48.4 87.0 48.4L87.0 48.4Q88.3 48.4 89.3 49.0Q90.3 49.6 90.8 50.6Q91.4 51.7 91.4 53.3L91.4 53.3Q91.4 54.8 90.8 55.9Q90.3 57.0 89.3 57.6Q88.3 58.1 87.0 58.1ZM87.0 56.4L87.0 56.4Q87.7 56.4 88.3 56.0Q88.8 55.7 89.1 55.0Q89.5 54.3 89.5 53.3L89.5 53.3Q89.5 52.3 89.1 51.6Q88.8 50.9 88.3 50.5Q87.7 50.1 87.0 50.1L87.0 50.1Q86.3 50.1 85.7 50.5Q85.2 50.9 84.9 51.6Q84.6 52.3 84.6 53.3L84.6 53.3Q84.6 54.3 84.9 55.0Q85.2 55.7 85.7 56.0Q86.3 56.4 87.0 56.4ZM94.7 60.7L92.8 60.7L92.8 50.9L94.7 50.9L94.7 52.1L94.8 52.1Q94.9 51.8 95.2 51.5Q95.4 51.2 95.8 51.0Q96.2 50.8 96.8 50.8L96.8 50.8Q97.6 50.8 98.3 51.2Q98.9 51.6 99.3 52.4Q99.7 53.3 99.7 54.5L99.7 54.5Q99.7 55.6 99.3 56.5Q98.9 57.3 98.3 57.7Q97.6 58.1 96.8 58.1L96.8 58.1Q96.2 58.1 95.8 57.9Q95.4 57.7 95.2 57.4Q94.9 57.1 94.8 56.9L94.8 56.9L94.7 56.9L94.7 60.7ZM96.2 56.6L96.2 56.6Q96.7 56.6 97.1 56.3Q97.4 56.0 97.6 55.6Q97.7 55.1 97.7 54.5L97.7 54.5Q97.7 53.8 97.6 53.4Q97.4 52.9 97.1 52.6Q96.7 52.3 96.2 52.3L96.2 52.3Q95.7 52.3 95.4 52.6Q95.0 52.9 94.9 53.3Q94.7 53.8 94.7 54.5L94.7 54.5Q94.7 55.1 94.9 55.6Q95.1 56.1 95.4 56.3Q95.7 56.6 96.2 56.6ZM104.2 58.1L104.2 58.1Q103.1 58.1 102.4 57.7Q101.6 57.3 101.1 56.4Q100.7 55.6 100.7 54.5L100.7 54.5Q100.7 53.4 101.1 52.6Q101.6 51.7 102.3 51.3Q103.1 50.8 104.1 50.8L104.1 50.8Q104.8 50.8 105.4 51.0Q106.0 51.3 106.5 51.7Q107.0 52.2 107.2 52.8Q107.5 53.5 107.5 54.4L107.5 54.4L107.5 54.9L102.6 54.9Q102.6 55.5 102.8 55.9L102.8 55.9Q103.0 56.3 103.4 56.5Q103.8 56.7 104.3 56.7L104.3 56.7Q104.6 56.7 104.9 56.6Q105.1 56.5 105.3 56.3Q105.5 56.1 105.6 55.9L105.6 55.9L107.4 56.2Q107.2 56.8 106.8 57.2Q106.3 57.7 105.7 57.9Q105.1 58.1 104.2 58.1ZM102.6 53.8L102.6 53.8L105.6 53.8Q105.6 53.4 105.5 53.1L105.5 53.1Q105.3 52.7 105.0 52.5Q104.6 52.2 104.2 52.2L104.2 52.2Q103.7 52.2 103.3 52.5Q103.0 52.7 102.8 53.1L102.8 53.1Q102.7 53.4 102.6 53.8ZM110.7 53.9L110.7 53.9L110.7 58L108.8 58L108.8 50.9L110.6 50.9L110.6 52.4Q110.9 51.7 111.3 51.3L111.3 51.3Q111.9 50.8 112.8 50.8L112.8 50.8Q113.5 50.8 114.1 51.1Q114.6 51.5 114.9 52.1Q115.2 52.7 115.2 53.5L115.2 53.5L115.2 58L113.3 58L113.3 53.8Q113.3 53.2 113.0 52.8Q112.7 52.4 112.0 52.4L112.0 52.4Q111.6 52.4 111.3 52.6Q111.0 52.8 110.8 53.1Q110.7 53.4 110.7 53.9Z M123.5 58.1L123.5 58.1Q122.3 58.1 121.5 57.8Q120.6 57.4 120.2 56.8Q119.7 56.1 119.7 55.1L119.7 55.1L121.6 55.1Q121.6 55.5 121.8 55.9Q122.1 56.2 122.5 56.3Q122.9 56.5 123.4 56.5L123.4 56.5Q124.0 56.5 124.3 56.4Q124.7 56.2 124.9 55.9Q125.2 55.7 125.2 55.3L125.2 55.3Q125.2 55.0 125.0 54.8Q124.8 54.5 124.4 54.4Q124.0 54.2 123.5 54.1L123.5 54.1L122.5 53.8Q121.3 53.5 120.6 52.9Q119.9 52.3 119.9 51.3L119.9 51.3Q119.9 50.4 120.4 49.8Q120.8 49.1 121.6 48.8Q122.4 48.4 123.5 48.4L123.5 48.4Q124.5 48.4 125.3 48.8Q126.1 49.1 126.5 49.8Q127.0 50.4 127.0 51.2L127.0 51.2L125.1 51.2Q125.0 50.7 124.6 50.4Q124.2 50.0 123.5 50.0L123.5 50.0Q123.0 50.0 122.6 50.2Q122.3 50.3 122.1 50.6Q121.9 50.8 121.9 51.1L121.9 51.1Q121.9 51.5 122.1 51.7Q122.3 52.0 122.7 52.1Q123.0 52.2 123.4 52.3L123.4 52.3L124.3 52.5Q124.9 52.7 125.4 52.9Q125.9 53.1 126.3 53.5Q126.7 53.8 126.9 54.3Q127.1 54.7 127.1 55.3L127.1 55.3Q127.1 56.2 126.7 56.8Q126.2 57.4 125.4 57.8Q124.6 58.1 123.5 58.1ZM131.6 58.1L131.6 58.1Q130.6 58.1 129.8 57.7Q129.0 57.2 128.6 56.4Q128.2 55.6 128.2 54.5L128.2 54.5Q128.2 53.4 128.6 52.6Q129.0 51.7 129.8 51.3Q130.6 50.8 131.6 50.8L131.6 50.8Q132.7 50.8 133.5 51.3Q134.3 51.7 134.7 52.6Q135.1 53.4 135.1 54.5L135.1 54.5Q135.1 55.6 134.7 56.4Q134.3 57.2 133.5 57.7Q132.7 58.1 131.6 58.1ZM131.6 56.6L131.6 56.6Q132.1 56.6 132.5 56.4Q132.8 56.1 133.0 55.6Q133.2 55.1 133.2 54.5L133.2 54.5Q133.2 53.8 133.0 53.4Q132.8 52.9 132.5 52.6Q132.1 52.3 131.6 52.3L131.6 52.3Q131.1 52.3 130.8 52.6Q130.4 52.9 130.3 53.4Q130.1 53.8 130.1 54.5L130.1 54.5Q130.1 55.1 130.3 55.6Q130.4 56.1 130.8 56.4Q131.1 56.6 131.6 56.6ZM138.9 58.1L138.9 58.1Q138.1 58.1 137.6 57.8Q137.0 57.4 136.7 56.8Q136.4 56.2 136.4 55.4L136.4 55.4L136.4 50.9L138.3 50.9L138.3 55.1Q138.3 55.7 138.7 56.1Q139.0 56.5 139.6 56.5L139.6 56.5Q140.0 56.5 140.3 56.3Q140.6 56.1 140.8 55.8Q141.0 55.5 141.0 55.0L141.0 55.0L141.0 50.9L142.9 50.9L142.9 58L141.1 58L141.1 56.5Q140.8 57.2 140.3 57.6L140.3 57.6Q139.8 58.1 138.9 58.1ZM146.4 58L144.5 58L144.5 50.9L146.4 50.9L146.4 52.1L146.4 52.1Q146.6 51.5 147.1 51.1Q147.6 50.8 148.1 50.8L148.1 50.8Q148.3 50.8 148.5 50.8Q148.6 50.8 148.8 50.9L148.8 50.9L148.8 52.6Q148.6 52.5 148.4 52.5Q148.2 52.5 147.9 52.5L147.9 52.5Q147.5 52.5 147.2 52.7Q146.8 52.9 146.6 53.2Q146.4 53.5 146.4 54.0L146.4 54.0L146.4 58ZM153.0 58.1L153.0 58.1Q151.9 58.1 151.1 57.7Q150.4 57.2 149.9 56.4Q149.5 55.6 149.5 54.5L149.5 54.5Q149.5 53.4 149.9 52.6Q150.4 51.7 151.1 51.3Q151.9 50.8 153.0 50.8L153.0 50.8Q153.6 50.8 154.1 51.0Q154.7 51.1 155.1 51.4Q155.5 51.8 155.8 52.2Q156.0 52.6 156.1 53.2L156.1 53.2L154.4 53.5Q154.3 53.2 154.2 53.0Q154.1 52.8 153.9 52.6Q153.7 52.5 153.5 52.4Q153.3 52.3 153.0 52.3L153.0 52.3Q152.5 52.3 152.2 52.6Q151.8 52.9 151.6 53.3Q151.5 53.8 151.5 54.5L151.5 54.5Q151.5 55.1 151.6 55.6Q151.8 56.1 152.2 56.4Q152.5 56.6 153.0 56.6L153.0 56.6Q153.3 56.6 153.5 56.6Q153.7 56.5 153.9 56.3Q154.1 56.1 154.2 55.9Q154.3 55.7 154.4 55.4L154.4 55.4L156.2 55.7Q156.1 56.3 155.8 56.7Q155.5 57.2 155.1 57.5Q154.7 57.8 154.2 58.0Q153.6 58.1 153.0 58.1ZM160.7 58.1L160.7 58.1Q159.6 58.1 158.8 57.7Q158.0 57.3 157.6 56.4Q157.2 55.6 157.2 54.5L157.2 54.5Q157.2 53.4 157.6 52.6Q158.0 51.7 158.8 51.3Q159.5 50.8 160.6 50.8L160.6 50.8Q161.3 50.8 161.9 51.0Q162.5 51.3 162.9 51.7Q163.4 52.2 163.6 52.8Q163.9 53.5 163.9 54.4L163.9 54.4L163.9 54.9L159.0 54.9Q159.1 55.5 159.3 55.9L159.3 55.9Q159.5 56.3 159.8 56.5Q160.2 56.7 160.7 56.7L160.7 56.7Q161.0 56.7 161.3 56.6Q161.6 56.5 161.8 56.3Q162.0 56.1 162.1 55.9L162.1 55.9L163.8 56.2Q163.6 56.8 163.2 57.2Q162.8 57.7 162.1 57.9Q161.5 58.1 160.7 58.1ZM159.1 53.8L159.1 53.8L162.1 53.8Q162.0 53.4 161.9 53.1L161.9 53.1Q161.7 52.7 161.4 52.5Q161.1 52.2 160.6 52.2L160.6 52.2Q160.1 52.2 159.7 52.5Q159.4 52.7 159.2 53.1L159.2 53.1Q159.1 53.4 159.1 53.8Z "/></g><mask id="satori_om-id-0-2"><rect x="60" y="67" width="127" height="15" fill="#fff"/></mask><g  ><path fill="rgba(235,235,235,0.82)" d="M61.4 79L60.3 79L63.2 71.0L64.4 71.0L67.3 79L66.2 79L65.4 76.8L62.1 76.8L61.4 79ZM62.4 75.9L65.1 75.9L64.5 74.3Q64.4 73.8 64.2 73.2L64.2 73.2Q64.0 72.6 63.8 71.8L63.8 71.8Q63.5 72.6 63.4 73.2L63.4 73.2Q63.2 73.8 63.0 74.3L63.0 74.3L62.4 75.9ZM68.4 71.0L69.4 71.0L69.4 79L68.4 79L68.4 71.0ZM71.1 71.0L72.1 71.0L72.1 79L71.1 79L71.1 71.0Z M78.0 79L77.0 79L77.0 71.0L78.4 71.0L80.4 76.0Q80.5 76.2 80.6 76.5Q80.6 76.8 80.7 77.1Q80.8 77.4 80.9 77.7L80.9 77.7Q81.0 77.8 81.0 77.9L81.0 77.9Q81.0 77.8 81.0 77.7L81.0 77.7Q81.1 77.4 81.2 77.1Q81.3 76.8 81.4 76.5Q81.5 76.2 81.6 76.0L81.6 76.0L83.5 71.0L85.0 71.0L85.0 79L84.0 79L84.0 74.4Q84.0 74.2 84.0 73.9Q84.0 73.5 84.0 73.2Q84.0 72.9 84.0 72.5L84.0 72.5Q84.0 72.3 84.0 72.1L84.0 72.1Q83.9 72.3 83.9 72.5L83.9 72.5Q83.7 72.9 83.6 73.3Q83.5 73.6 83.4 73.9Q83.3 74.2 83.2 74.4L83.2 74.4L81.4 79L80.5 79L78.7 74.4Q78.6 74.2 78.5 74.0Q78.4 73.7 78.3 73.3Q78.2 73.0 78.1 72.6L78.1 72.6Q78.0 72.3 77.9 72.1L77.9 72.1Q77.9 72.3 77.9 72.4L77.9 72.4Q77.9 72.8 77.9 73.1Q77.9 73.5 77.9 73.8Q78.0 74.2 78.0 74.4L78.0 74.4L78.0 79ZM88.5 79.1L88.5 79.1Q87.9 79.1 87.4 78.9Q87.0 78.7 86.7 78.3Q86.4 77.9 86.4 77.3L86.4 77.3Q86.4 76.8 86.6 76.5Q86.8 76.1 87.2 75.9Q87.5 75.8 87.9 75.7Q88.3 75.6 88.8 75.5L88.8 75.5Q89.3 75.5 89.6 75.4Q90.0 75.4 90.1 75.3Q90.3 75.2 90.3 75.0L90.3 75.0L90.3 74.9Q90.3 74.6 90.2 74.3Q90.0 74.0 89.8 73.9Q89.5 73.8 89.1 73.8L89.1 73.8Q88.6 73.8 88.3 73.9Q88.0 74.0 87.8 74.2Q87.6 74.4 87.5 74.6L87.5 74.6L86.6 74.3Q86.8 73.8 87.2 73.5Q87.6 73.2 88.1 73.0Q88.6 72.9 89.0 72.9L89.0 72.9Q89.3 72.9 89.7 73.0Q90.1 73.1 90.5 73.3Q90.8 73.5 91.0 73.9Q91.3 74.3 91.3 75.0L91.3 75.0L91.3 79L90.3 79L90.3 78.2L90.3 78.2Q90.2 78.4 89.9 78.6Q89.7 78.8 89.3 79.0Q89.0 79.1 88.5 79.1ZM88.6 78.3L88.6 78.3Q89.2 78.3 89.6 78.1Q89.9 77.9 90.1 77.5Q90.3 77.2 90.3 76.8L90.3 76.8L90.3 76.0Q90.3 76.1 90.1 76.1Q89.9 76.2 89.6 76.2Q89.3 76.3 89.1 76.3Q88.9 76.3 88.7 76.3L88.7 76.3Q88.4 76.4 88.1 76.5Q87.8 76.6 87.6 76.8Q87.4 77.0 87.4 77.3L87.4 77.3Q87.4 77.7 87.6 77.9Q87.7 78.1 88.0 78.2Q88.3 78.3 88.6 78.3ZM93.0 79.4L93.0 73.0L93.9 73.0L93.9 79.4Q93.9 80.0 93.7 80.4Q93.5 80.8 93.2 81.0Q92.8 81.2 92.2 81.2L92.2 81.2L92.0 81.2L92.0 80.4L92.2 80.4Q92.6 80.4 92.8 80.1Q93.0 79.9 93.0 79.4L93.0 79.4ZM93.5 72.0L93.5 72.0Q93.2 72.0 93.0 71.8Q92.8 71.6 92.8 71.4L92.8 71.4Q92.8 71.1 93.0 70.9Q93.2 70.7 93.5 70.7L93.5 70.7Q93.7 70.7 93.9 70.9Q94.1 71.1 94.1 71.4L94.1 71.4Q94.1 71.6 93.9 71.8Q93.7 72.0 93.5 72.0ZM98.1 79.1L98.1 79.1Q97.3 79.1 96.6 78.7Q96.0 78.4 95.7 77.7Q95.3 77.0 95.3 76.0L95.3 76.0Q95.3 75.1 95.7 74.4Q96.0 73.7 96.6 73.3Q97.3 72.9 98.1 72.9L98.1 72.9Q98.9 72.9 99.5 73.3Q100.1 73.7 100.5 74.4Q100.8 75.1 100.8 76.0L100.8 76.0Q100.8 77.0 100.5 77.7Q100.1 78.4 99.5 78.7Q98.9 79.1 98.1 79.1ZM98.1 78.3L98.1 78.3Q98.7 78.3 99.1 78.0Q99.5 77.6 99.7 77.1Q99.8 76.6 99.8 76.0L99.8 76.0Q99.8 75.4 99.7 74.9Q99.5 74.4 99.1 74.1Q98.7 73.8 98.1 73.8L98.1 73.8Q97.5 73.8 97.1 74.1Q96.7 74.4 96.5 74.9Q96.3 75.4 96.3 76.0L96.3 76.0Q96.3 76.6 96.5 77.1Q96.7 77.6 97.1 78.0Q97.5 78.3 98.1 78.3ZM103.2 79L102.2 79L102.2 73.0L103.2 73.0L103.2 73.9L103.2 73.9Q103.4 73.5 103.8 73.2Q104.3 72.9 104.8 72.9L104.8 72.9Q104.9 72.9 105.0 72.9Q105.2 72.9 105.3 72.9L105.3 72.9L105.3 73.9Q105.2 73.9 105.1 73.9Q104.9 73.8 104.7 73.8L104.7 73.8Q104.3 73.8 103.9 74.0Q103.6 74.2 103.4 74.5Q103.2 74.8 103.2 75.2L103.2 75.2L103.2 79Z M110.6 79L109.6 79L109.6 71.0L112.3 71.0Q113.3 71.0 113.9 71.3Q114.5 71.7 114.8 72.3Q115.1 72.8 115.1 73.5Q115.1 74.3 114.8 74.8Q114.5 75.4 113.9 75.8Q113.3 76.1 112.3 76.1L112.3 76.1L110.6 76.1L110.6 79ZM110.6 71.9L110.6 75.2L112.3 75.2Q112.9 75.2 113.3 75.0Q113.7 74.8 113.9 74.4Q114.0 74.0 114.0 73.5Q114.0 73.1 113.9 72.7Q113.7 72.3 113.3 72.1Q112.9 71.9 112.3 71.9L112.3 71.9L110.6 71.9ZM117.5 79L116.5 79L116.5 73.0L117.4 73.0L117.4 73.9L117.5 73.9Q117.7 73.5 118.1 73.2Q118.5 72.9 119.0 72.9L119.0 72.9Q119.2 72.9 119.3 72.9Q119.5 72.9 119.5 72.9L119.5 72.9L119.5 73.9Q119.5 73.9 119.3 73.9Q119.2 73.8 119.0 73.8L119.0 73.8Q118.5 73.8 118.2 74.0Q117.8 74.2 117.7 74.5Q117.5 74.8 117.5 75.2L117.5 75.2L117.5 79ZM123.1 79.1L123.1 79.1Q122.3 79.1 121.6 78.7Q121.0 78.4 120.7 77.7Q120.3 77.0 120.3 76.0L120.3 76.0Q120.3 75.1 120.7 74.4Q121.0 73.7 121.6 73.3Q122.3 72.9 123.1 72.9L123.1 72.9Q123.9 72.9 124.5 73.3Q125.1 73.7 125.5 74.4Q125.8 75.1 125.8 76.0L125.8 76.0Q125.8 77.0 125.5 77.7Q125.1 78.4 124.5 78.7Q123.9 79.1 123.1 79.1ZM123.1 78.3L123.1 78.3Q123.7 78.3 124.1 78.0Q124.5 77.6 124.7 77.1Q124.8 76.6 124.8 76.0L124.8 76.0Q124.8 75.4 124.7 74.9Q124.5 74.4 124.1 74.1Q123.7 73.8 123.1 73.8L123.1 73.8Q122.5 73.8 122.1 74.1Q121.7 74.4 121.5 74.9Q121.3 75.4 121.3 76.0L121.3 76.0Q121.3 76.6 121.5 77.1Q121.7 77.6 122.1 78.0Q122.5 78.3 123.1 78.3ZM127.2 79.4L127.2 73.0L128.2 73.0L128.2 79.4Q128.2 80.0 128.0 80.4Q127.8 80.8 127.4 81.0Q127.0 81.2 126.4 81.2L126.4 81.2L126.2 81.2L126.2 80.4L126.4 80.4Q126.8 80.4 127.0 80.1Q127.2 79.9 127.2 79.4L127.2 79.4ZM127.7 72.0L127.7 72.0Q127.4 72.0 127.2 71.8Q127.0 71.6 127.0 71.4L127.0 71.4Q127.0 71.1 127.2 70.9Q127.4 70.7 127.7 70.7L127.7 70.7Q128.0 70.7 128.2 70.9Q128.4 71.1 128.4 71.4L128.4 71.4Q128.4 71.6 128.2 71.8Q128.0 72.0 127.7 72.0ZM132.4 79.1L132.4 79.1Q131.5 79.1 130.9 78.7Q130.3 78.4 129.9 77.7Q129.6 77.0 129.6 76.0Q129.6 75.1 129.9 74.4Q130.3 73.7 130.9 73.3Q131.5 72.9 132.3 72.9L132.3 72.9Q132.8 72.9 133.2 73.1Q133.7 73.2 134.1 73.6Q134.5 73.9 134.7 74.5Q134.9 75.1 134.9 75.9L134.9 75.9L134.9 76.3L130.6 76.3Q130.6 76.9 130.8 77.3L130.8 77.3Q131.0 77.8 131.5 78.0Q131.9 78.3 132.4 78.3L132.4 78.3Q132.8 78.3 133.1 78.2Q133.4 78.1 133.6 77.9Q133.8 77.7 133.9 77.3L133.9 77.3L134.8 77.6Q134.7 78.1 134.4 78.4Q134.0 78.7 133.5 78.9Q133.0 79.1 132.4 79.1ZM130.6 75.5L130.6 75.5L133.9 75.5Q133.9 75.1 133.8 74.8L133.8 74.8Q133.6 74.3 133.2 74.0Q132.8 73.8 132.3 73.8Q131.8 73.8 131.4 74.0Q131.0 74.3 130.8 74.7L130.8 74.7Q130.6 75.1 130.6 75.5ZM138.8 79.1L138.8 79.1Q137.9 79.1 137.3 78.7Q136.7 78.4 136.4 77.7Q136.0 77.0 136.0 76.0L136.0 76.0Q136.0 75.1 136.4 74.4Q136.7 73.7 137.3 73.3Q137.9 72.9 138.8 72.9L138.8 72.9Q139.2 72.9 139.6 73.0Q140.0 73.1 140.3 73.4Q140.6 73.6 140.8 73.9Q141.1 74.2 141.2 74.6L141.2 74.6L140.3 74.8Q140.2 74.6 140.1 74.4Q139.9 74.2 139.7 74.1Q139.5 73.9 139.3 73.9Q139.0 73.8 138.8 73.8L138.8 73.8Q138.1 73.8 137.8 74.1Q137.4 74.4 137.2 74.9Q137 75.4 137 76.0L137 76.0Q137 76.6 137.2 77.1Q137.4 77.6 137.8 78.0Q138.1 78.3 138.8 78.3L138.8 78.3Q139.1 78.3 139.3 78.2Q139.6 78.1 139.8 78.0Q139.9 77.8 140.1 77.6Q140.2 77.4 140.3 77.2L140.3 77.2L141.2 77.4Q141.1 77.8 140.9 78.1Q140.6 78.5 140.3 78.7Q140.0 78.9 139.6 79.0Q139.2 79.1 138.8 79.1ZM143.7 73.0L145.0 73.0L145.0 73.8L143.7 73.8L143.7 77.4Q143.7 77.8 143.9 78.0Q144.0 78.2 144.4 78.2L144.4 78.2Q144.5 78.2 144.7 78.2Q144.8 78.2 144.9 78.2L144.9 78.2L145.1 79.0Q145.0 79.0 144.8 79.0Q144.6 79.1 144.4 79.1L144.4 79.1Q143.6 79.1 143.2 78.7Q142.8 78.3 142.8 77.5L142.8 77.5L142.8 73.8L141.9 73.8L141.9 73.0L142.8 73.0L142.8 71.6L143.7 71.6L143.7 73.0ZM148.2 79.1L148.2 79.1Q147.6 79.1 147.1 78.9Q146.7 78.8 146.3 78.4Q146.0 78.1 145.9 77.5L145.9 77.5L146.8 77.3Q147.0 77.8 147.3 78.0Q147.7 78.3 148.2 78.3L148.2 78.3Q148.8 78.3 149.2 78.0Q149.6 77.7 149.6 77.4L149.6 77.4Q149.6 77.1 149.4 76.9Q149.2 76.6 148.7 76.5L148.7 76.5L147.7 76.3Q146.9 76.1 146.5 75.7Q146.1 75.3 146.1 74.7L146.1 74.7Q146.1 74.2 146.4 73.8Q146.7 73.4 147.2 73.1Q147.7 72.9 148.3 72.9L148.3 72.9Q148.9 72.9 149.4 73.1Q149.8 73.3 150.1 73.6Q150.4 73.9 150.5 74.4L150.5 74.4L149.6 74.6Q149.5 74.3 149.2 74.0Q148.9 73.7 148.3 73.7L148.3 73.7Q147.8 73.7 147.4 74.0Q147.1 74.2 147.1 74.6L147.1 74.6Q147.1 74.9 147.3 75.1Q147.6 75.3 148.1 75.5L148.1 75.5L149.0 75.7Q149.8 75.9 150.2 76.3Q150.6 76.7 150.6 77.3L150.6 77.3Q150.6 77.8 150.3 78.2Q150.0 78.7 149.5 78.9Q148.9 79.1 148.2 79.1Z M156.2 79L155.2 79L155.2 71.0L157.9 71.0Q158.9 71.0 159.5 71.3Q160.1 71.7 160.4 72.3Q160.7 72.8 160.7 73.5Q160.7 74.3 160.4 74.8Q160.1 75.4 159.5 75.8Q158.9 76.1 158.0 76.1L158.0 76.1L156.2 76.1L156.2 79ZM156.2 71.9L156.2 75.2L157.9 75.2Q158.5 75.2 158.9 75.0Q159.3 74.8 159.5 74.4Q159.7 74.0 159.7 73.5Q159.7 73.1 159.5 72.7Q159.3 72.3 158.9 72.1Q158.5 71.9 157.9 71.9L157.9 71.9L156.2 71.9ZM164.2 79.1L164.2 79.1Q163.5 79.1 163.1 78.8Q162.6 78.6 162.4 78.1Q162.1 77.6 162.1 76.8L162.1 76.8L162.1 73.0L163.1 73.0L163.1 76.7Q163.1 77.4 163.4 77.8Q163.8 78.2 164.4 78.2L164.4 78.2Q164.9 78.2 165.2 78.0Q165.6 77.8 165.8 77.5Q166.0 77.1 166.0 76.6L166.0 76.6L166.0 73.0L166.9 73.0L166.9 79L166.0 79L166.0 77.9Q165.7 78.5 165.3 78.7L165.3 78.7Q164.8 79.1 164.2 79.1ZM171.4 79.1L171.4 79.1Q170.8 79.1 170.5 78.9Q170.1 78.7 170.0 78.5Q169.8 78.2 169.7 78.1L169.7 78.1L169.6 78.1L169.6 79L168.6 79L168.6 71.0L169.6 71.0L169.6 74.0L169.7 74.0Q169.8 73.8 169.9 73.6Q170.1 73.3 170.5 73.1Q170.8 72.9 171.4 72.9L171.4 72.9Q172.2 72.9 172.7 73.3Q173.3 73.7 173.6 74.4Q173.9 75.1 173.9 76.0L173.9 76.0Q173.9 77.0 173.6 77.7Q173.3 78.4 172.7 78.7Q172.2 79.1 171.4 79.1ZM171.3 78.3L171.3 78.3Q171.8 78.3 172.2 78.0Q172.6 77.7 172.8 77.1Q173.0 76.6 173.0 76.0L173.0 76.0Q173.0 75.4 172.8 74.9Q172.6 74.4 172.2 74.1Q171.8 73.8 171.3 73.8L171.3 73.8Q170.7 73.8 170.3 74.1Q170.0 74.3 169.8 74.8Q169.6 75.3 169.6 76.0L169.6 76.0Q169.6 76.7 169.8 77.2Q170.0 77.7 170.3 78.0Q170.7 78.3 171.3 78.3ZM175.4 71.0L176.3 71.0L176.3 79L175.4 79L175.4 71.0ZM179.0 79L178.0 79L178.0 73.0L179.0 73.0L179.0 79ZM178.5 72.0L178.5 72.0Q178.2 72.0 178.0 71.8Q177.8 71.6 177.8 71.4L177.8 71.4Q177.8 71.1 178.0 70.9Q178.2 70.7 178.5 70.7L178.5 70.7Q178.8 70.7 179.0 70.9Q179.2 71.1 179.2 71.4L179.2 71.4Q179.2 71.6 179.0 71.8Q178.8 72.0 178.5 72.0ZM183.1 79.1L183.1 79.1Q182.3 79.1 181.7 78.7Q181.1 78.4 180.7 77.7Q180.4 77.0 180.4 76.0L180.4 76.0Q180.4 75.1 180.7 74.4Q181.1 73.7 181.7 73.3Q182.3 72.9 183.1 72.9L183.1 72.9Q183.6 72.9 183.9 73.0Q184.3 73.1 184.7 73.4Q185.0 73.6 185.2 73.9Q185.4 74.2 185.6 74.6L185.6 74.6L184.6 74.8Q184.6 74.6 184.4 74.4Q184.3 74.2 184.1 74.1Q183.9 73.9 183.7 73.9Q183.4 73.8 183.1 73.8L183.1 73.8Q182.5 73.8 182.1 74.1Q181.8 74.4 181.6 74.9Q181.4 75.4 181.4 76.0L181.4 76.0Q181.4 76.6 181.6 77.1Q181.8 77.6 182.1 78.0Q182.5 78.3 183.1 78.3L183.1 78.3Q183.4 78.3 183.7 78.2Q183.9 78.1 184.1 78.0Q184.3 77.8 184.5 77.6Q184.6 77.4 184.7 77.2L184.7 77.2L185.6 77.4Q185.5 77.8 185.2 78.1Q185.0 78.5 184.7 78.7Q184.4 78.9 184.0 79.0Q183.6 79.1 183.1 79.1Z "/></g><mask id="satori_om-id-1"><rect x="225" y="29" width="161" height="53" fill="#fff"/></mask><mask id="satori_om-id-1-0"><rect x="301" y="29" width="10" height="10" fill="#fff"/></mask><path x="301" y="29" width="10" height="10" fill="#ffffff" d="M306,29 h0 a5,5 0 0 1 5,5 v0 a5,5 0 0 1 -5,5 h0 a5,5 0 0 1 -5,-5 v0 a5,5 0 0 1 5,-5"/><mask id="satori_om-id-1-1"><rect x="247" y="45" width="117" height="16" fill="#fff"/></mask><g  ><path fill="#ffffff" d="M249.8 58L247.9 58L247.9 48.5L251.5 48.5Q252.6 48.5 253.4 48.9Q254.1 49.3 254.5 50.0Q254.9 50.7 254.9 51.6Q254.9 52.6 254.5 53.2Q254.1 53.9 253.4 54.3L253.4 54.3Q253.3 54.3 253.3 54.3L253.3 54.3L255.3 58L253.1 58L251.3 54.6L249.8 54.6L249.8 58ZM249.8 50.1L249.8 53.1L251.2 53.1Q251.8 53.1 252.2 52.9Q252.5 52.7 252.7 52.4Q252.9 52.1 252.9 51.6L252.9 51.6Q252.9 51.1 252.7 50.8Q252.5 50.5 252.2 50.3Q251.8 50.1 251.2 50.1L251.2 50.1L249.8 50.1ZM259.6 58.1L259.6 58.1Q258.5 58.1 257.7 57.7Q256.9 57.3 256.5 56.4Q256.1 55.6 256.1 54.5L256.1 54.5Q256.1 53.4 256.5 52.6Q256.9 51.7 257.7 51.3Q258.4 50.8 259.5 50.8L259.5 50.8Q260.2 50.8 260.8 51.0Q261.4 51.3 261.8 51.7Q262.3 52.2 262.5 52.8Q262.8 53.5 262.8 54.4L262.8 54.4L262.8 54.9L257.9 54.9Q258.0 55.5 258.1 55.9L258.1 55.9Q258.3 56.3 258.7 56.5Q259.1 56.7 259.6 56.7L259.6 56.7Q259.9 56.7 260.2 56.6Q260.5 56.5 260.7 56.3Q260.9 56.1 261.0 55.9L261.0 55.9L262.7 56.2Q262.5 56.8 262.1 57.2Q261.7 57.7 261.0 57.9Q260.4 58.1 259.6 58.1ZM257.9 53.8L257.9 53.8L261.0 53.8Q260.9 53.4 260.8 53.1L260.8 53.1Q260.6 52.7 260.3 52.5Q260.0 52.2 259.5 52.2L259.5 52.2Q259.0 52.2 258.6 52.5Q258.3 52.7 258.1 53.1L258.1 53.1Q258.0 53.4 257.9 53.8ZM266.9 58.1L266.9 58.1Q266.1 58.1 265.4 57.9Q264.7 57.7 264.3 57.2Q263.9 56.7 263.8 56.1L263.8 56.1L265.5 55.8Q265.7 56.2 266.0 56.5Q266.4 56.7 267.0 56.7L267.0 56.7Q267.5 56.7 267.8 56.5Q268.1 56.3 268.1 56.0L268.1 56.0Q268.1 55.7 267.9 55.6Q267.7 55.4 267.2 55.3L267.2 55.3L266.0 55.0Q265.0 54.8 264.5 54.3Q264.0 53.8 264.0 53.0L264.0 53.0Q264.0 52.3 264.3 51.8Q264.7 51.3 265.4 51.1Q266.0 50.8 266.9 50.8L266.9 50.8Q267.8 50.8 268.4 51.0Q269.0 51.3 269.4 51.7Q269.8 52.1 269.9 52.7L269.9 52.7L268.2 53.0Q268.1 52.6 267.8 52.4Q267.5 52.2 267.0 52.2L267.0 52.2Q266.5 52.2 266.2 52.4Q265.9 52.6 265.9 52.9L265.9 52.9Q265.9 53.2 266.1 53.4Q266.3 53.5 266.8 53.6L266.8 53.6L268.1 53.9Q269.1 54.1 269.6 54.6Q270.1 55.0 270.1 55.8L270.1 55.8Q270.1 56.5 269.7 57.0Q269.3 57.6 268.6 57.8Q267.8 58.1 266.9 58.1ZM274.5 58.1L274.5 58.1Q273.5 58.1 272.7 57.7Q271.9 57.2 271.5 56.4Q271.1 55.6 271.1 54.5L271.1 54.5Q271.1 53.4 271.5 52.6Q271.9 51.7 272.7 51.3Q273.5 50.8 274.5 50.8L274.5 50.8Q275.6 50.8 276.4 51.3Q277.2 51.7 277.6 52.6Q278.0 53.4 278.0 54.5L278.0 54.5Q278.0 55.6 277.6 56.4Q277.2 57.2 276.4 57.7Q275.6 58.1 274.5 58.1ZM274.5 56.6L274.5 56.6Q275.1 56.6 275.4 56.4Q275.7 56.1 275.9 55.6Q276.1 55.1 276.1 54.5L276.1 54.5Q276.1 53.8 275.9 53.4Q275.7 52.9 275.4 52.6Q275.1 52.3 274.5 52.3L274.5 52.3Q274.0 52.3 273.7 52.6Q273.4 52.9 273.2 53.4Q273.0 53.8 273.0 54.5L273.0 54.5Q273.0 55.1 273.2 55.6Q273.4 56.1 273.7 56.4Q274.0 56.6 274.5 56.6ZM281.8 58.1L281.8 58.1Q281.1 58.1 280.5 57.8Q280.0 57.4 279.6 56.8Q279.3 56.2 279.3 55.4L279.3 55.4L279.3 50.9L281.3 50.9L281.3 55.1Q281.3 55.7 281.6 56.1Q281.9 56.5 282.5 56.5L282.5 56.5Q282.9 56.5 283.3 56.3Q283.6 56.1 283.7 55.8Q283.9 55.5 283.9 55.0L283.9 55.0L283.9 50.9L285.8 50.9L285.8 58L284.0 58L284.0 56.5Q283.7 57.2 283.3 57.6L283.3 57.6Q282.7 58.1 281.8 58.1ZM289.3 58L287.4 58L287.4 50.9L289.3 50.9L289.3 52.1L289.4 52.1Q289.6 51.5 290.0 51.1Q290.5 50.8 291.1 50.8L291.1 50.8Q291.2 50.8 291.4 50.8Q291.6 50.8 291.7 50.9L291.7 50.9L291.7 52.6Q291.6 52.5 291.3 52.5Q291.1 52.5 290.9 52.5L290.9 52.5Q290.4 52.5 290.1 52.7Q289.7 52.9 289.5 53.2Q289.3 53.5 289.3 54.0L289.3 54.0L289.3 58ZM295.9 58.1L295.9 58.1Q294.8 58.1 294.1 57.7Q293.3 57.2 292.9 56.4Q292.4 55.6 292.4 54.5L292.4 54.5Q292.4 53.4 292.9 52.6Q293.3 51.7 294.1 51.3Q294.8 50.8 295.9 50.8L295.9 50.8Q296.5 50.8 297.1 51.0Q297.6 51.1 298.0 51.4Q298.4 51.8 298.7 52.2Q299.0 52.6 299.1 53.2L299.1 53.2L297.3 53.5Q297.2 53.2 297.1 53.0Q297.0 52.8 296.8 52.6Q296.7 52.5 296.4 52.4Q296.2 52.3 295.9 52.3L295.9 52.3Q295.4 52.3 295.1 52.6Q294.7 52.9 294.6 53.3Q294.4 53.8 294.4 54.5L294.4 54.5Q294.4 55.1 294.6 55.6Q294.7 56.1 295.1 56.4Q295.4 56.6 295.9 56.6L295.9 56.6Q296.2 56.6 296.4 56.6Q296.7 56.5 296.8 56.3Q297.0 56.1 297.1 55.9Q297.3 55.7 297.3 55.4L297.3 55.4L299.1 55.7Q299.0 56.3 298.7 56.7Q298.4 57.2 298.0 57.5Q297.6 57.8 297.1 58.0Q296.5 58.1 295.9 58.1ZM303.6 58.1L303.6 58.1Q302.5 58.1 301.7 57.7Q300.9 57.3 300.5 56.4Q300.1 55.6 300.1 54.5L300.1 54.5Q300.1 53.4 300.5 52.6Q300.9 51.7 301.7 51.3Q302.5 50.8 303.5 50.8L303.5 50.8Q304.2 50.8 304.8 51.0Q305.4 51.3 305.9 51.7Q306.3 52.2 306.6 52.8Q306.8 53.5 306.8 54.4L306.8 54.4L306.8 54.9L302.0 54.9Q302.0 55.5 302.2 55.9L302.2 55.9Q302.4 56.3 302.8 56.5Q303.1 56.7 303.6 56.7L303.6 56.7Q304.0 56.7 304.2 56.6Q304.5 56.5 304.7 56.3Q304.9 56.1 305.0 55.9L305.0 55.9L306.7 56.2Q306.5 56.8 306.1 57.2Q305.7 57.7 305.1 57.9Q304.4 58.1 303.6 58.1ZM302.0 53.8L302.0 53.8L305.0 53.8Q305.0 53.4 304.8 53.1L304.8 53.1Q304.7 52.7 304.3 52.5Q304.0 52.2 303.5 52.2L303.5 52.2Q303.0 52.2 302.7 52.5Q302.3 52.7 302.1 53.1L302.1 53.1Q302.0 53.4 302.0 53.8Z M317.6 58L311.3 58L311.3 48.5L317.6 48.5L317.6 50.1L313.2 50.1L313.2 52.4L317.2 52.4L317.2 54.0L313.2 54.0L313.2 56.4L317.6 56.4L317.6 58ZM321.6 50.9L323.1 50.9L323.1 52.4L321.6 52.4L321.6 58L319.7 58L319.7 52.4L318.4 52.4L318.4 50.9L319.7 50.9L319.7 50.4Q319.7 49.6 320.0 49.1Q320.3 48.6 320.8 48.3Q321.3 48.1 322.0 48.1L322.0 48.1Q322.4 48.1 322.8 48.2Q323.2 48.2 323.3 48.3L323.3 48.3L323.0 49.7Q322.9 49.7 322.7 49.7Q322.5 49.6 322.4 49.6L322.4 49.6Q321.9 49.6 321.7 49.8Q321.6 50.0 321.6 50.4L321.6 50.4L321.6 50.9ZM326.7 50.9L328.2 50.9L328.2 52.4L326.7 52.4L326.7 58L324.8 58L324.8 52.4L323.6 52.4L323.6 50.9L324.8 50.9L324.8 50.4Q324.8 49.6 325.1 49.1Q325.4 48.6 326.0 48.3Q326.5 48.1 327.1 48.1L327.1 48.1Q327.6 48.1 328.0 48.2Q328.3 48.2 328.5 48.3L328.5 48.3L328.2 49.7Q328.0 49.7 327.9 49.7Q327.7 49.6 327.5 49.6L327.5 49.6Q327.1 49.6 326.9 49.8Q326.7 50.0 326.7 50.4L326.7 50.4L326.7 50.9ZM331.4 58L329.4 58L329.4 50.9L331.4 50.9L331.4 58ZM330.4 50.0L330.4 50.0Q330.0 50.0 329.7 49.7Q329.4 49.4 329.4 49.0L329.4 49.0Q329.4 48.6 329.7 48.3Q330.0 48.0 330.4 48.0L330.4 48.0Q330.8 48.0 331.1 48.3Q331.4 48.6 331.4 49.0L331.4 49.0Q331.4 49.4 331.1 49.7Q330.8 50.0 330.4 50.0ZM336.1 58.1L336.1 58.1Q335.1 58.1 334.3 57.7Q333.5 57.2 333.1 56.4Q332.7 55.6 332.7 54.5L332.7 54.5Q332.7 53.4 333.1 52.6Q333.5 51.7 334.3 51.3Q335.1 50.8 336.1 50.8L336.1 50.8Q336.8 50.8 337.3 51.0Q337.8 51.1 338.3 51.4Q338.7 51.8 338.9 52.2Q339.2 52.6 339.3 53.2L339.3 53.2L337.5 53.5Q337.5 53.2 337.4 53.0Q337.2 52.8 337.1 52.6Q336.9 52.5 336.7 52.4Q336.4 52.3 336.2 52.3L336.2 52.3Q335.7 52.3 335.3 52.6Q335.0 52.9 334.8 53.3Q334.6 53.8 334.6 54.5L334.6 54.5Q334.6 55.1 334.8 55.6Q335.0 56.1 335.3 56.4Q335.7 56.6 336.2 56.6L336.2 56.6Q336.4 56.6 336.7 56.6Q336.9 56.5 337.1 56.3Q337.3 56.1 337.4 55.9Q337.5 55.7 337.5 55.4L337.5 55.4L339.3 55.7Q339.2 56.3 338.9 56.7Q338.7 57.2 338.3 57.5Q337.9 57.8 337.3 58.0Q336.8 58.1 336.1 58.1ZM342.5 58L340.6 58L340.6 50.9L342.5 50.9L342.5 58ZM341.6 50.0L341.6 50.0Q341.1 50.0 340.8 49.7Q340.5 49.4 340.5 49.0L340.5 49.0Q340.5 48.6 340.8 48.3Q341.1 48.0 341.6 48.0L341.6 48.0Q342.0 48.0 342.3 48.3Q342.6 48.6 342.6 49.0L342.6 49.0Q342.6 49.4 342.3 49.7Q342.0 50.0 341.6 50.0ZM347.4 58.1L347.4 58.1Q346.3 58.1 345.5 57.7Q344.7 57.3 344.3 56.4Q343.8 55.6 343.8 54.5L343.8 54.5Q343.8 53.4 344.3 52.6Q344.7 51.7 345.5 51.3Q346.2 50.8 347.3 50.8L347.3 50.8Q348.0 50.8 348.6 51.0Q349.2 51.3 349.6 51.7Q350.1 52.2 350.3 52.8Q350.6 53.5 350.6 54.4L350.6 54.4L350.6 54.9L345.7 54.9Q345.8 55.5 345.9 55.9L345.9 55.9Q346.1 56.3 346.5 56.5Q346.9 56.7 347.4 56.7L347.4 56.7Q347.7 56.7 348.0 56.6Q348.3 56.5 348.5 56.3Q348.7 56.1 348.8 55.9L348.8 55.9L350.5 56.2Q350.3 56.8 349.9 57.2Q349.5 57.7 348.8 57.9Q348.2 58.1 347.4 58.1ZM345.7 53.8L345.7 53.8L348.8 53.8Q348.7 53.4 348.6 53.1L348.6 53.1Q348.4 52.7 348.1 52.5Q347.8 52.2 347.3 52.2L347.3 52.2Q346.8 52.2 346.4 52.5Q346.1 52.7 345.9 53.1L345.9 53.1Q345.8 53.4 345.7 53.8ZM353.8 53.9L353.8 53.9L353.8 58L351.9 58L351.9 50.9L353.7 50.9L353.7 52.4Q354.0 51.7 354.5 51.3L354.5 51.3Q355.0 50.8 355.9 50.8L355.9 50.8Q356.7 50.8 357.2 51.1Q357.8 51.5 358.1 52.1Q358.4 52.7 358.4 53.5L358.4 53.5L358.4 58L356.5 58L356.5 53.8Q356.5 53.2 356.1 52.8Q355.8 52.4 355.2 52.4L355.2 52.4Q354.8 52.4 354.5 52.6Q354.1 52.8 354.0 53.1Q353.8 53.4 353.8 53.9ZM362.2 50.9L363.5 50.9L363.5 52.4L362.2 52.4L362.2 55.9Q362.2 56.3 362.3 56.4Q362.5 56.6 362.8 56.6L362.8 56.6Q362.9 56.6 363.1 56.6Q363.3 56.5 363.4 56.5L363.4 56.5L363.7 57.9Q363.4 58.0 363.1 58.1Q362.8 58.1 362.5 58.1L362.5 58.1Q361.4 58.1 360.8 57.6Q360.3 57.1 360.3 56.1L360.3 56.1L360.3 52.4L359.3 52.4L359.3 50.9L360.3 50.9L360.3 49.2L362.2 49.2L362.2 50.9Z "/></g><mask id="satori_om-id-1-2"><rect x="225" y="67" width="161" height="15" fill="#fff"/></mask><g  ><path fill="rgba(235,235,235,0.82)" d="M228.9 79L226.0 79L226.0 71.0L228.8 71.0Q229.6 71.0 230.2 71.3Q230.7 71.6 231.0 72.1Q231.3 72.5 231.3 73.1L231.3 73.1Q231.3 73.6 231.1 74.0Q230.9 74.3 230.6 74.5Q230.3 74.7 230.0 74.8L230.0 74.8L230.0 74.9Q230.3 74.9 230.7 75.1Q231.1 75.4 231.3 75.8Q231.6 76.2 231.6 76.9L231.6 76.9Q231.6 77.5 231.3 78.0Q231.0 78.4 230.4 78.7Q229.8 79 228.9 79L228.9 79ZM227.0 75.4L227.0 78.1L228.9 78.1Q229.8 78.1 230.2 77.7Q230.6 77.4 230.6 76.9L230.6 76.9Q230.6 76.5 230.4 76.1Q230.2 75.8 229.8 75.6Q229.4 75.4 228.9 75.4L228.9 75.4L227.0 75.4ZM227.0 71.9L227.0 74.5L228.7 74.5Q229.2 74.5 229.5 74.3Q229.9 74.2 230.1 73.9Q230.3 73.6 230.3 73.1L230.3 73.1Q230.3 72.6 229.9 72.3Q229.6 71.9 228.8 71.9L228.8 71.9L227.0 71.9ZM235.1 79.1L235.1 79.1Q234.5 79.1 234.0 78.8Q233.6 78.6 233.3 78.1Q233.0 77.6 233.0 76.8L233.0 76.8L233.0 73.0L234.0 73.0L234.0 76.7Q234.0 77.4 234.4 77.8Q234.7 78.2 235.4 78.2L235.4 78.2Q235.8 78.2 236.1 78.0Q236.5 77.8 236.7 77.5Q236.9 77.1 236.9 76.6L236.9 76.6L236.9 73.0L237.9 73.0L237.9 79L236.9 79L236.9 77.9Q236.7 78.5 236.3 78.7L236.3 78.7Q235.7 79.1 235.1 79.1ZM240.5 79L239.6 79L239.6 73.0L240.5 73.0L240.5 79ZM240.0 72.0L240.0 72.0Q239.8 72.0 239.6 71.8Q239.4 71.6 239.4 71.4L239.4 71.4Q239.4 71.1 239.6 70.9Q239.8 70.7 240.0 70.7L240.0 70.7Q240.3 70.7 240.5 70.9Q240.7 71.1 240.7 71.4L240.7 71.4Q240.7 71.6 240.5 71.8Q240.3 72.0 240.0 72.0ZM242.2 71.0L243.2 71.0L243.2 79L242.2 79L242.2 71.0ZM246.0 73.0L247.2 73.0L247.2 73.8L246.0 73.8L246.0 77.4Q246.0 77.8 246.2 78.0Q246.3 78.2 246.7 78.2L246.7 78.2Q246.8 78.2 246.9 78.2Q247.1 78.2 247.2 78.2L247.2 78.2L247.4 79.0Q247.3 79.0 247.1 79.0Q246.9 79.1 246.7 79.1L246.7 79.1Q245.9 79.1 245.5 78.7Q245.0 78.3 245.0 77.5L245.0 77.5L245.0 73.8L244.1 73.8L244.1 73.0L245.0 73.0L245.0 71.6L246.0 71.6L246.0 73.0Z M253.0 73.0L254.4 73.0L254.4 73.8L253.0 73.8L253.0 79L252.0 79L252.0 73.8L250.8 73.8L250.8 73.0L252.0 73.0L252.0 72.2Q252.0 71.7 252.3 71.3Q252.5 71.0 252.9 70.8Q253.3 70.6 253.7 70.6L253.7 70.6Q254.1 70.6 254.3 70.7Q254.5 70.7 254.6 70.8L254.6 70.8L254.4 71.6Q254.3 71.6 254.2 71.6Q254.0 71.5 253.8 71.5L253.8 71.5Q253.4 71.5 253.2 71.7Q253.0 72.0 253.0 72.4L253.0 72.4L253.0 73.0ZM258.1 79.1L258.1 79.1Q257.3 79.1 256.7 78.7Q256.0 78.4 255.7 77.7Q255.4 77.0 255.4 76.0L255.4 76.0Q255.4 75.1 255.7 74.4Q256.0 73.7 256.7 73.3Q257.3 72.9 258.1 72.9L258.1 72.9Q258.9 72.9 259.5 73.3Q260.1 73.7 260.5 74.4Q260.8 75.1 260.8 76.0L260.8 76.0Q260.8 77.0 260.5 77.7Q260.1 78.4 259.5 78.7Q258.9 79.1 258.1 79.1ZM258.1 78.3L258.1 78.3Q258.7 78.3 259.1 78.0Q259.5 77.6 259.7 77.1Q259.9 76.6 259.9 76.0L259.9 76.0Q259.9 75.4 259.7 74.9Q259.5 74.4 259.1 74.1Q258.7 73.8 258.1 73.8L258.1 73.8Q257.5 73.8 257.1 74.1Q256.7 74.4 256.5 74.9Q256.3 75.4 256.3 76.0L256.3 76.0Q256.3 76.6 256.5 77.1Q256.7 77.6 257.1 78.0Q257.5 78.3 258.1 78.3ZM263.2 79L262.2 79L262.2 73.0L263.2 73.0L263.2 73.9L263.2 73.9Q263.4 73.5 263.8 73.2Q264.3 72.9 264.8 72.9L264.8 72.9Q264.9 72.9 265.0 72.9Q265.2 72.9 265.3 72.9L265.3 72.9L265.3 73.9Q265.2 73.9 265.1 73.9Q264.9 73.8 264.7 73.8L264.7 73.8Q264.3 73.8 263.9 74.0Q263.6 74.2 263.4 74.5Q263.2 74.8 263.2 75.2L263.2 75.2L263.2 79Z M272.8 79.1L272.8 79.1Q271.8 79.1 271.0 78.6Q270.2 78.1 269.7 77.2Q269.3 76.3 269.3 75.0L269.3 75.0Q269.3 73.7 269.7 72.8Q270.2 71.9 271.0 71.4Q271.8 70.9 272.8 70.9L272.8 70.9Q273.4 70.9 274.0 71.1Q274.5 71.2 274.9 71.6Q275.4 71.9 275.7 72.4Q276.0 72.9 276.1 73.5L276.1 73.5L275.0 73.5Q275.0 73.1 274.7 72.8Q274.5 72.5 274.2 72.3Q273.9 72.0 273.6 71.9Q273.2 71.8 272.8 71.8L272.8 71.8Q272.1 71.8 271.5 72.2Q270.9 72.6 270.6 73.3Q270.3 74.0 270.3 75.0L270.3 75.0Q270.3 76.0 270.6 76.7Q271.0 77.4 271.5 77.8Q272.1 78.2 272.8 78.2L272.8 78.2Q273.2 78.2 273.6 78.1Q273.9 77.9 274.2 77.7Q274.5 77.5 274.7 77.2Q275.0 76.9 275.0 76.5L275.0 76.5L276.1 76.5Q276.0 77.1 275.7 77.6Q275.4 78.1 275.0 78.4Q274.5 78.7 274.0 78.9Q273.4 79.1 272.8 79.1ZM280.0 79.1L280.0 79.1Q279.1 79.1 278.5 78.7Q277.9 78.4 277.6 77.7Q277.2 77.0 277.2 76.0L277.2 76.0Q277.2 75.1 277.6 74.4Q277.9 73.7 278.5 73.3Q279.1 72.9 280.0 72.9L280.0 72.9Q280.8 72.9 281.4 73.3Q282.0 73.7 282.4 74.4Q282.7 75.1 282.7 76.0L282.7 76.0Q282.7 77.0 282.4 77.7Q282.0 78.4 281.4 78.7Q280.8 79.1 280.0 79.1ZM280.0 78.3L280.0 78.3Q280.6 78.3 281.0 78.0Q281.3 77.6 281.5 77.1Q281.7 76.6 281.7 76.0L281.7 76.0Q281.7 75.4 281.5 74.9Q281.3 74.4 281.0 74.1Q280.6 73.8 280.0 73.8L280.0 73.8Q279.4 73.8 279.0 74.1Q278.6 74.4 278.4 74.9Q278.2 75.4 278.2 76.0L278.2 76.0Q278.2 76.6 278.4 77.1Q278.6 77.6 279.0 78.0Q279.4 78.3 280.0 78.3ZM285.1 75.4L285.1 75.4L285.1 79L284.1 79L284.1 73.0L285.0 73.0L285.0 74.1Q285.3 73.5 285.7 73.3L285.7 73.3Q286.2 72.9 286.9 72.9L286.9 72.9Q287.5 72.9 287.9 73.2Q288.4 73.4 288.7 73.9Q288.9 74.4 288.9 75.2L288.9 75.2L288.9 79L287.9 79L287.9 75.3Q287.9 74.6 287.6 74.2Q287.2 73.8 286.6 73.8L286.6 73.8Q286.2 73.8 285.8 74.0Q285.5 74.2 285.3 74.5Q285.1 74.9 285.1 75.4ZM292.6 79.1L292.6 79.1Q292.0 79.1 291.5 78.9Q291.1 78.8 290.8 78.4Q290.4 78.1 290.3 77.5L290.3 77.5L291.3 77.3Q291.4 77.8 291.7 78.0Q292.1 78.3 292.6 78.3L292.6 78.3Q293.3 78.3 293.6 78.0Q294.0 77.7 294.0 77.4L294.0 77.4Q294.0 77.1 293.8 76.9Q293.6 76.6 293.1 76.5L293.1 76.5L292.1 76.3Q291.3 76.1 290.9 75.7Q290.5 75.3 290.5 74.7L290.5 74.7Q290.5 74.2 290.8 73.8Q291.1 73.4 291.6 73.1Q292.1 72.9 292.7 72.9L292.7 72.9Q293.4 72.9 293.8 73.1Q294.2 73.3 294.5 73.6Q294.8 73.9 294.9 74.4L294.9 74.4L294.0 74.6Q293.9 74.3 293.6 74.0Q293.3 73.7 292.7 73.7L292.7 73.7Q292.2 73.7 291.9 74.0Q291.5 74.2 291.5 74.6L291.5 74.6Q291.5 74.9 291.7 75.1Q292.0 75.3 292.5 75.5L292.5 75.5L293.4 75.7Q294.2 75.9 294.6 76.3Q295.0 76.7 295.0 77.3L295.0 77.3Q295.0 77.8 294.7 78.2Q294.4 78.7 293.9 78.9Q293.3 79.1 292.6 79.1ZM297.5 73.0L298.8 73.0L298.8 73.8L297.5 73.8L297.5 77.4Q297.5 77.8 297.7 78.0Q297.9 78.2 298.2 78.2L298.2 78.2Q298.3 78.2 298.5 78.2Q298.6 78.2 298.7 78.2L298.7 78.2L298.9 79.0Q298.8 79.0 298.6 79.0Q298.4 79.1 298.2 79.1L298.2 79.1Q297.4 79.1 297.0 78.7Q296.6 78.3 296.6 77.5L296.6 77.5L296.6 73.8L295.7 73.8L295.7 73.0L296.6 73.0L296.6 71.6L297.5 71.6L297.5 73.0ZM301.0 79L300.0 79L300.0 73.0L300.9 73.0L300.9 73.9L301.0 73.9Q301.2 73.5 301.6 73.2Q302.0 72.9 302.6 72.9L302.6 72.9Q302.7 72.9 302.8 72.9Q303.0 72.9 303.1 72.9L303.1 72.9L303.1 73.9Q303.0 73.9 302.8 73.9Q302.7 73.8 302.5 73.8L302.5 73.8Q302.0 73.8 301.7 74.0Q301.4 74.2 301.2 74.5Q301.0 74.8 301.0 75.2L301.0 75.2L301.0 79ZM305.8 79.1L305.8 79.1Q305.3 79.1 304.8 78.9Q304.3 78.7 304.1 78.3Q303.8 77.9 303.8 77.3L303.8 77.3Q303.8 76.8 304.0 76.5Q304.2 76.1 304.5 75.9Q304.9 75.8 305.3 75.7Q305.7 75.6 306.1 75.5L306.1 75.5Q306.7 75.5 307.0 75.4Q307.3 75.4 307.5 75.3Q307.7 75.2 307.7 75.0L307.7 75.0L307.7 74.9Q307.7 74.6 307.5 74.3Q307.4 74.0 307.1 73.9Q306.8 73.8 306.4 73.8L306.4 73.8Q306.0 73.8 305.7 73.9Q305.4 74.0 305.2 74.2Q305.0 74.4 304.9 74.6L304.9 74.6L304.0 74.3Q304.2 73.8 304.6 73.5Q305.0 73.2 305.4 73.0Q305.9 72.9 306.4 72.9L306.4 72.9Q306.7 72.9 307.1 73.0Q307.4 73.1 307.8 73.3Q308.2 73.5 308.4 73.9Q308.6 74.3 308.6 75.0L308.6 75.0L308.6 79L307.7 79L307.7 78.2L307.6 78.2Q307.5 78.4 307.3 78.6Q307.1 78.8 306.7 79.0Q306.3 79.1 305.8 79.1ZM306.0 78.3L306.0 78.3Q306.5 78.3 306.9 78.1Q307.3 77.9 307.5 77.5Q307.7 77.2 307.7 76.8L307.7 76.8L307.7 76.0Q307.6 76.1 307.4 76.1Q307.2 76.2 306.9 76.2Q306.7 76.3 306.5 76.3Q306.2 76.3 306.1 76.3L306.1 76.3Q305.7 76.4 305.4 76.5Q305.1 76.6 304.9 76.8Q304.8 77.0 304.8 77.3L304.8 77.3Q304.8 77.7 304.9 77.9Q305.1 78.1 305.4 78.2Q305.6 78.3 306.0 78.3ZM311.3 79L310.3 79L310.3 73.0L311.3 73.0L311.3 79ZM310.8 72.0L310.8 72.0Q310.5 72.0 310.3 71.8Q310.1 71.6 310.1 71.4L310.1 71.4Q310.1 71.1 310.3 70.9Q310.5 70.7 310.8 70.7L310.8 70.7Q311.1 70.7 311.3 70.9Q311.5 71.1 311.5 71.4L311.5 71.4Q311.5 71.6 311.3 71.8Q311.1 72.0 310.8 72.0ZM314.0 75.4L314.0 75.4L314.0 79L313.0 79L313.0 73.0L313.9 73.0L313.9 74.1Q314.2 73.5 314.6 73.3L314.6 73.3Q315.1 72.9 315.8 72.9L315.8 72.9Q316.4 72.9 316.8 73.2Q317.3 73.4 317.5 73.9Q317.8 74.4 317.8 75.2L317.8 75.2L317.8 79L316.8 79L316.8 75.3Q316.8 74.6 316.5 74.2Q316.1 73.8 315.5 73.8L315.5 73.8Q315.0 73.8 314.7 74.0Q314.4 74.2 314.2 74.5Q314.0 74.9 314.0 75.4ZM322.0 79.1L322.0 79.1Q321.1 79.1 320.5 78.7Q319.9 78.4 319.5 77.7Q319.2 77.0 319.2 76.0Q319.2 75.1 319.5 74.4Q319.9 73.7 320.5 73.3Q321.1 72.9 321.9 72.9L321.9 72.9Q322.4 72.9 322.8 73.1Q323.3 73.2 323.7 73.6Q324.1 73.9 324.3 74.5Q324.5 75.1 324.5 75.9L324.5 75.9L324.5 76.3L320.2 76.3Q320.2 76.9 320.4 77.3L320.4 77.3Q320.6 77.8 321.1 78.0Q321.5 78.3 322.0 78.3L322.0 78.3Q322.4 78.3 322.7 78.2Q323.0 78.1 323.2 77.9Q323.4 77.7 323.5 77.3L323.5 77.3L324.4 77.6Q324.3 78.1 323.9 78.4Q323.6 78.7 323.1 78.9Q322.6 79.1 322.0 79.1ZM320.2 75.5L320.2 75.5L323.5 75.5Q323.5 75.1 323.4 74.8L323.4 74.8Q323.2 74.3 322.8 74.0Q322.4 73.8 321.9 73.8Q321.4 73.8 321.0 74.0Q320.6 74.3 320.4 74.7L320.4 74.7Q320.2 75.1 320.2 75.5ZM328.2 79.1L328.2 79.1Q327.4 79.1 326.8 78.7Q326.3 78.4 325.9 77.7Q325.6 77.0 325.6 76.0L325.6 76.0Q325.6 75.1 325.9 74.4Q326.3 73.7 326.8 73.3Q327.4 72.9 328.2 72.9L328.2 72.9Q328.7 72.9 329.1 73.1Q329.4 73.3 329.6 73.6Q329.8 73.8 329.9 74.0L329.9 74.0L330.0 74.0L330.0 71.0L330.9 71.0L330.9 79L330.0 79L330.0 78.1L329.9 78.1Q329.8 78.2 329.6 78.5Q329.4 78.7 329.1 78.9Q328.7 79.1 328.2 79.1ZM328.3 78.3L328.3 78.3Q328.8 78.3 329.2 78.0Q329.6 77.7 329.8 77.2Q330.0 76.7 330.0 76.0L330.0 76.0Q330.0 75.3 329.8 74.8Q329.6 74.3 329.2 74.1Q328.9 73.8 328.3 73.8L328.3 73.8Q327.7 73.8 327.3 74.1Q327.0 74.4 326.8 74.9Q326.6 75.4 326.6 76.0L326.6 76.0Q326.6 76.6 326.8 77.1Q327.0 77.7 327.4 78.0Q327.7 78.3 328.3 78.3Z M336.9 79L335.8 79L335.8 71.0L336.9 71.0L336.9 74.5L341.1 74.5L341.1 71.0L342.1 71.0L342.1 79L341.1 79L341.1 75.4L336.9 75.4L336.9 79ZM345.6 79.1L345.6 79.1Q345.0 79.1 344.6 78.9Q344.1 78.7 343.8 78.3Q343.5 77.9 343.5 77.3L343.5 77.3Q343.5 76.8 343.7 76.5Q343.9 76.1 344.3 75.9Q344.6 75.8 345.0 75.7Q345.5 75.6 345.9 75.5L345.9 75.5Q346.4 75.5 346.8 75.4Q347.1 75.4 347.3 75.3Q347.4 75.2 347.4 75.0L347.4 75.0L347.4 74.9Q347.4 74.6 347.3 74.3Q347.1 74.0 346.9 73.9Q346.6 73.8 346.2 73.8L346.2 73.8Q345.7 73.8 345.4 73.9Q345.1 74.0 344.9 74.2Q344.7 74.4 344.6 74.6L344.6 74.6L343.7 74.3Q343.9 73.8 344.3 73.5Q344.7 73.2 345.2 73.0Q345.7 72.9 346.1 72.9L346.1 72.9Q346.4 72.9 346.8 73.0Q347.2 73.1 347.6 73.3Q347.9 73.5 348.2 73.9Q348.4 74.3 348.4 75.0L348.4 75.0L348.4 79L347.4 79L347.4 78.2L347.4 78.2Q347.3 78.4 347.0 78.6Q346.8 78.8 346.5 79.0Q346.1 79.1 345.6 79.1ZM345.8 78.3L345.8 78.3Q346.3 78.3 346.7 78.1Q347.0 77.9 347.2 77.5Q347.4 77.2 347.4 76.8L347.4 76.8L347.4 76.0Q347.4 76.1 347.2 76.1Q347.0 76.2 346.7 76.2Q346.5 76.3 346.2 76.3Q346.0 76.3 345.8 76.3L345.8 76.3Q345.5 76.4 345.2 76.5Q344.9 76.6 344.7 76.8Q344.5 77.0 344.5 77.3L344.5 77.3Q344.5 77.7 344.7 77.9Q344.8 78.1 345.1 78.2Q345.4 78.3 345.8 78.3ZM351.0 79L350.1 79L350.1 73.0L351.0 73.0L351.0 73.9L351.1 73.9Q351.2 73.5 351.7 73.2Q352.1 72.9 352.6 72.9L352.6 72.9Q352.7 72.9 352.9 72.9Q353.0 72.9 353.1 72.9L353.1 72.9L353.1 73.9Q353.1 73.9 352.9 73.9Q352.7 73.8 352.5 73.8L352.5 73.8Q352.1 73.8 351.8 74.0Q351.4 74.2 351.2 74.5Q351.0 74.8 351.0 75.2L351.0 75.2L351.0 79ZM356.5 79.1L356.5 79.1Q355.7 79.1 355.2 78.7Q354.6 78.4 354.3 77.7Q353.9 77.0 353.9 76.0L353.9 76.0Q353.9 75.1 354.3 74.4Q354.6 73.7 355.2 73.3Q355.7 72.9 356.5 72.9L356.5 72.9Q357.1 72.9 357.4 73.1Q357.8 73.3 357.9 73.6Q358.1 73.8 358.2 74.0L358.2 74.0L358.3 74.0L358.3 71.0L359.3 71.0L359.3 79L358.3 79L358.3 78.1L358.2 78.1Q358.1 78.2 357.9 78.5Q357.7 78.7 357.4 78.9Q357.0 79.1 356.5 79.1ZM356.6 78.3L356.6 78.3Q357.2 78.3 357.5 78.0Q357.9 77.7 358.1 77.2Q358.3 76.7 358.3 76.0L358.3 76.0Q358.3 75.3 358.1 74.8Q357.9 74.3 357.5 74.1Q357.2 73.8 356.6 73.8L356.6 73.8Q356.0 73.8 355.7 74.1Q355.3 74.4 355.1 74.9Q354.9 75.4 354.9 76.0L354.9 76.0Q354.9 76.6 355.1 77.1Q355.3 77.7 355.7 78.0Q356.1 78.3 356.6 78.3ZM363.3 79L362.3 79L360.5 73.0L361.5 73.0L362.2 75.6Q362.4 76.2 362.6 76.8L362.6 76.8Q362.7 77.3 362.8 78.0L362.8 78.0Q362.9 77.4 363.1 76.9L363.1 76.9Q363.2 76.2 363.4 75.6L363.4 75.6L364.1 73.0L365.1 73.0L365.8 75.6Q366.0 76.2 366.2 76.8L366.2 76.8Q366.3 77.4 366.4 77.9L366.4 77.9Q366.5 77.4 366.7 76.9L366.7 76.9Q366.8 76.2 367.0 75.6L367.0 75.6L367.7 73.0L368.7 73.0L366.9 79L366.0 79L365.2 76.3Q365.1 75.9 364.9 75.4Q364.8 75.0 364.7 74.6L364.7 74.6Q364.7 74.3 364.6 74.1L364.6 74.1Q364.6 74.3 364.5 74.6L364.5 74.6Q364.4 75.0 364.3 75.4Q364.2 75.9 364.0 76.3L364.0 76.3L363.3 79ZM371.6 79.1L371.6 79.1Q371.1 79.1 370.6 78.9Q370.1 78.7 369.9 78.3Q369.6 77.9 369.6 77.3L369.6 77.3Q369.6 76.8 369.8 76.5Q370.0 76.1 370.3 75.9Q370.7 75.8 371.1 75.7Q371.5 75.6 371.9 75.5L371.9 75.5Q372.5 75.5 372.8 75.4Q373.1 75.4 373.3 75.3Q373.5 75.2 373.5 75.0L373.5 75.0L373.5 74.9Q373.5 74.6 373.3 74.3Q373.2 74.0 372.9 73.9Q372.6 73.8 372.2 73.8L372.2 73.8Q371.8 73.8 371.5 73.9Q371.2 74.0 371.0 74.2Q370.8 74.4 370.7 74.6L370.7 74.6L369.8 74.3Q370.0 73.8 370.4 73.5Q370.8 73.2 371.3 73.0Q371.7 72.9 372.2 72.9L372.2 72.9Q372.5 72.9 372.9 73.0Q373.3 73.1 373.6 73.3Q374.0 73.5 374.2 73.9Q374.4 74.3 374.4 75.0L374.4 75.0L374.4 79L373.5 79L373.5 78.2L373.4 78.2Q373.3 78.4 373.1 78.6Q372.9 78.8 372.5 79.0Q372.2 79.1 371.6 79.1ZM371.8 78.3L371.8 78.3Q372.3 78.3 372.7 78.1Q373.1 77.9 373.3 77.5Q373.5 77.2 373.5 76.8L373.5 76.8L373.5 76.0Q373.4 76.1 373.2 76.1Q373.0 76.2 372.8 76.2Q372.5 76.3 372.3 76.3Q372.0 76.3 371.9 76.3L371.9 76.3Q371.5 76.4 371.2 76.5Q370.9 76.6 370.8 76.8Q370.6 77.0 370.6 77.3L370.6 77.3Q370.6 77.7 370.7 77.9Q370.9 78.1 371.2 78.2Q371.4 78.3 371.8 78.3ZM377.1 79L376.1 79L376.1 73.0L377.1 73.0L377.1 73.9L377.1 73.9Q377.3 73.5 377.7 73.2Q378.2 72.9 378.7 72.9L378.7 72.9Q378.8 72.9 378.9 72.9Q379.1 72.9 379.2 72.9L379.2 72.9L379.2 73.9Q379.1 73.9 379.0 73.9Q378.8 73.8 378.6 73.8L378.6 73.8Q378.2 73.8 377.8 74.0Q377.5 74.2 377.3 74.5Q377.1 74.8 377.1 75.2L377.1 75.2L377.1 79ZM382.8 79.1L382.8 79.1Q381.9 79.1 381.3 78.7Q380.7 78.4 380.3 77.7Q380.0 77.0 380.0 76.0Q380.0 75.1 380.3 74.4Q380.7 73.7 381.3 73.3Q381.9 72.9 382.7 72.9L382.7 72.9Q383.2 72.9 383.6 73.1Q384.1 73.2 384.5 73.6Q384.9 73.9 385.1 74.5Q385.3 75.1 385.3 75.9L385.3 75.9L385.3 76.3L381.0 76.3Q381.0 76.9 381.2 77.3L381.2 77.3Q381.4 77.8 381.8 78.0Q382.3 78.3 382.8 78.3L382.8 78.3Q383.2 78.3 383.5 78.2Q383.7 78.1 384.0 77.9Q384.2 77.7 384.3 77.3L384.3 77.3L385.2 77.6Q385.1 78.1 384.7 78.4Q384.4 78.7 383.9 78.9Q383.4 79.1 382.8 79.1ZM381.0 75.5L381.0 75.5L384.3 75.5Q384.3 75.1 384.2 74.8L384.2 74.8Q384.0 74.3 383.6 74.0Q383.2 73.8 382.7 73.8Q382.1 73.8 381.8 74.0Q381.4 74.3 381.2 74.7L381.2 74.7Q381.0 75.1 381.0 75.5Z "/></g><mask id="satori_om-id-2"><rect x="425" y="29" width="177" height="53" fill="#fff"/></mask><mask id="satori_om-id-2-0"><rect x="509" y="29" width="10" height="10" fill="#fff"/></mask><path x="509" y="29" width="10" height="10" fill="#ffffff" d="M514,29 h0 a5,5 0 0 1 5,5 v0 a5,5 0 0 1 -5,5 h0 a5,5 0 0 1 -5,-5 v0 a5,5 0 0 1 5,-5"/><mask id="satori_om-id-2-1"><rect x="472" y="45" width="83" height="16" fill="#fff"/></mask><g  ><path fill="#ffffff" d="M474.8 58L472.9 58L472.9 48.5L476.5 48.5Q477.6 48.5 478.4 49.0Q479.1 49.4 479.5 50.1Q479.9 50.8 479.9 51.7L479.9 51.7Q479.9 52.7 479.5 53.4Q479.1 54.1 478.4 54.5Q477.6 54.9 476.5 54.9L476.5 54.9L474.8 54.9L474.8 58ZM474.8 50.1L474.8 53.3L476.2 53.3Q476.8 53.3 477.2 53.1Q477.6 52.9 477.7 52.6Q477.9 52.2 477.9 51.7Q477.9 51.3 477.7 50.9Q477.6 50.5 477.2 50.3Q476.8 50.1 476.2 50.1L476.2 50.1L474.8 50.1ZM483.1 58L481.2 58L481.2 50.9L483.1 50.9L483.1 52.1L483.2 52.1Q483.3 51.5 483.8 51.1Q484.3 50.8 484.9 50.8L484.9 50.8Q485.0 50.8 485.2 50.8Q485.4 50.8 485.5 50.9L485.5 50.9L485.5 52.6Q485.4 52.5 485.1 52.5Q484.9 52.5 484.7 52.5L484.7 52.5Q484.2 52.5 483.9 52.7Q483.5 52.9 483.3 53.2Q483.1 53.5 483.1 54.0L483.1 54.0L483.1 58ZM488.4 58L486.5 58L486.5 50.9L488.4 50.9L488.4 58ZM487.5 50.0L487.5 50.0Q487.1 50.0 486.7 49.7Q486.4 49.4 486.4 49.0L486.4 49.0Q486.4 48.6 486.7 48.3Q487.1 48.0 487.5 48.0L487.5 48.0Q487.9 48.0 488.2 48.3Q488.5 48.6 488.5 49.0L488.5 49.0Q488.5 49.4 488.2 49.7Q487.9 50.0 487.5 50.0ZM494.2 58L492.1 58L489.4 50.9L491.5 50.9L492.7 54.6Q492.9 55.3 493.0 56.0L493.0 56.0Q493.1 56.3 493.2 56.5L493.2 56.5Q493.2 56.3 493.3 56.0L493.3 56.0Q493.4 55.3 493.7 54.6L493.7 54.6L494.8 50.9L496.8 50.9L494.2 58ZM499.8 58.1L499.8 58.1Q499.2 58.1 498.6 57.9Q498.1 57.7 497.8 57.2Q497.5 56.7 497.5 56.0L497.5 56.0Q497.5 55.4 497.7 55.0Q497.9 54.6 498.3 54.4Q498.7 54.1 499.1 54.0Q499.6 53.9 500.1 53.8L500.1 53.8Q500.8 53.8 501.1 53.7Q501.5 53.7 501.7 53.5Q501.9 53.4 501.9 53.2L501.9 53.2L501.9 53.2Q501.9 52.9 501.7 52.7Q501.6 52.4 501.4 52.3Q501.1 52.2 500.8 52.2L500.8 52.2Q500.4 52.2 500.1 52.3Q499.8 52.4 499.7 52.6Q499.5 52.8 499.4 53.0L499.4 53.0L497.7 52.8Q497.9 52.1 498.3 51.7Q498.7 51.3 499.3 51.0Q500.0 50.8 500.8 50.8L500.8 50.8Q501.3 50.8 501.9 51.0Q502.4 51.1 502.8 51.4Q503.3 51.7 503.5 52.1Q503.8 52.6 503.8 53.2L503.8 53.2L503.8 58L502.0 58L502.0 57.0L501.9 57.0Q501.7 57.3 501.4 57.6Q501.2 57.8 500.8 58.0Q500.4 58.1 499.8 58.1ZM500.4 56.8L500.4 56.8Q500.8 56.8 501.2 56.6Q501.5 56.4 501.7 56.1Q501.9 55.8 501.9 55.5L501.9 55.5L501.9 54.7Q501.8 54.8 501.6 54.8Q501.5 54.9 501.2 54.9Q501.0 54.9 500.8 55.0Q500.6 55.0 500.5 55.0L500.5 55.0Q500.1 55.1 499.9 55.2Q499.6 55.3 499.4 55.5Q499.3 55.7 499.3 56.0L499.3 56.0Q499.3 56.2 499.4 56.4Q499.6 56.6 499.8 56.7Q500.1 56.8 500.4 56.8ZM508.6 58.1L508.6 58.1Q507.5 58.1 506.7 57.7Q505.9 57.2 505.5 56.4Q505.1 55.6 505.1 54.5L505.1 54.5Q505.1 53.4 505.5 52.6Q505.9 51.7 506.7 51.3Q507.5 50.8 508.6 50.8L508.6 50.8Q509.2 50.8 509.7 51.0Q510.3 51.1 510.7 51.4Q511.1 51.8 511.4 52.2Q511.6 52.6 511.7 53.2L511.7 53.2L510.0 53.5Q509.9 53.2 509.8 53.0Q509.7 52.8 509.5 52.6Q509.3 52.5 509.1 52.4Q508.9 52.3 508.6 52.3L508.6 52.3Q508.1 52.3 507.7 52.6Q507.4 52.9 507.2 53.3Q507.0 53.8 507.0 54.5L507.0 54.5Q507.0 55.1 507.2 55.6Q507.4 56.1 507.7 56.4Q508.1 56.6 508.6 56.6L508.6 56.6Q508.9 56.6 509.1 56.6Q509.3 56.5 509.5 56.3Q509.7 56.1 509.8 55.9Q509.9 55.7 510.0 55.4L510.0 55.4L511.7 55.7Q511.6 56.3 511.4 56.7Q511.1 57.2 510.7 57.5Q510.3 57.8 509.7 58.0Q509.2 58.1 508.6 58.1ZM513.0 60.5L513.0 60.5L513.4 59.1L513.7 59.1Q514.0 59.2 514.3 59.2Q514.6 59.1 514.8 59.0Q515.0 58.8 515.0 58.4L515.0 58.4L515.1 58.0L512.4 50.9L514.5 50.9L515.6 54.6Q515.9 55.3 516.0 56.0L516.0 56.0Q516.0 56.2 516.1 56.5L516.1 56.5Q516.2 56.2 516.2 56.0L516.2 56.0Q516.4 55.3 516.6 54.6L516.6 54.6L517.9 50.9L519.9 50.9L516.8 58.8Q516.6 59.4 516.3 59.8Q516.0 60.2 515.4 60.5Q514.9 60.7 514.2 60.7L514.2 60.7Q513.9 60.7 513.5 60.7Q513.2 60.6 513.0 60.5ZM520.9 53.3L525.3 53.3L525.3 54.9L520.9 54.9L520.9 53.3ZM528.9 58L527.0 58L527.0 48.5L533.2 48.5L533.2 50.1L528.9 50.1L528.9 52.8L532.8 52.8L532.8 54.4L528.9 54.4L528.9 58ZM536.5 58L534.6 58L534.6 50.9L536.5 50.9L536.5 58ZM535.5 50.0L535.5 50.0Q535.1 50.0 534.8 49.7Q534.5 49.4 534.5 49.0L534.5 49.0Q534.5 48.6 534.8 48.3Q535.1 48.0 535.5 48.0L535.5 48.0Q536.0 48.0 536.3 48.3Q536.6 48.6 536.6 49.0L536.6 49.0Q536.6 49.4 536.3 49.7Q536.0 50.0 535.5 50.0ZM540.0 58L538.1 58L538.1 50.9L539.9 50.9L539.9 52.1L540.0 52.1Q540.2 51.5 540.7 51.1Q541.1 50.8 541.7 50.8L541.7 50.8Q541.9 50.8 542.1 50.8Q542.2 50.8 542.4 50.9L542.4 50.9L542.4 52.6Q542.2 52.5 542.0 52.5Q541.7 52.5 541.5 52.5L541.5 52.5Q541.1 52.5 540.7 52.7Q540.4 52.9 540.2 53.2Q540.0 53.5 540.0 54.0L540.0 54.0L540.0 58ZM546.2 58.1L546.2 58.1Q545.4 58.1 544.7 57.9Q544.0 57.7 543.6 57.2Q543.2 56.7 543.1 56.1L543.1 56.1L544.9 55.8Q545.0 56.2 545.3 56.5Q545.7 56.7 546.3 56.7L546.3 56.7Q546.8 56.7 547.1 56.5Q547.4 56.3 547.4 56.0L547.4 56.0Q547.4 55.7 547.2 55.6Q547.0 55.4 546.5 55.3L546.5 55.3L545.3 55.0Q544.3 54.8 543.8 54.3Q543.3 53.8 543.3 53.0L543.3 53.0Q543.3 52.3 543.6 51.8Q544.0 51.3 544.7 51.1Q545.3 50.8 546.2 50.8L546.2 50.8Q547.1 50.8 547.7 51.0Q548.3 51.3 548.7 51.7Q549.1 52.1 549.2 52.7L549.2 52.7L547.5 53.0Q547.4 52.6 547.1 52.4Q546.8 52.2 546.3 52.2L546.3 52.2Q545.8 52.2 545.5 52.4Q545.2 52.6 545.2 52.9L545.2 52.9Q545.2 53.2 545.4 53.4Q545.6 53.5 546.1 53.6L546.1 53.6L547.4 53.9Q548.4 54.1 548.9 54.6Q549.4 55.0 549.4 55.8L549.4 55.8Q549.4 56.5 549.0 57.0Q548.6 57.6 547.9 57.8Q547.1 58.1 546.2 58.1ZM552.9 50.9L554.2 50.9L554.2 52.4L552.9 52.4L552.9 55.9Q552.9 56.3 553.0 56.4Q553.2 56.6 553.5 56.6L553.5 56.6Q553.6 56.6 553.8 56.6Q554.0 56.5 554.1 56.5L554.1 56.5L554.4 57.9Q554.1 58.0 553.8 58.1Q553.5 58.1 553.2 58.1L553.2 58.1Q552.1 58.1 551.5 57.6Q551.0 57.1 551.0 56.1L551.0 56.1L551.0 52.4L550.0 52.4L550.0 50.9L551.0 50.9L551.0 49.2L552.9 49.2L552.9 50.9Z "/></g><mask id="satori_om-id-2-2"><rect x="425" y="67" width="177" height="15" fill="#fff"/></mask><g  ><path fill="rgba(235,235,235,0.82)" d="M430.7 79L426.0 79L426.0 71.0L427.0 71.0L427.0 78.1L430.7 78.1L430.7 79ZM434.5 79.1L434.5 79.1Q433.7 79.1 433.1 78.7Q432.5 78.4 432.1 77.7Q431.8 77.0 431.8 76.0L431.8 76.0Q431.8 75.1 432.1 74.4Q432.5 73.7 433.1 73.3Q433.7 72.9 434.5 72.9L434.5 72.9Q435.3 72.9 436.0 73.3Q436.6 73.7 436.9 74.4Q437.3 75.1 437.3 76.0L437.3 76.0Q437.3 77.0 436.9 77.7Q436.6 78.4 436.0 78.7Q435.3 79.1 434.5 79.1ZM434.5 78.3L434.5 78.3Q435.1 78.3 435.5 78.0Q435.9 77.6 436.1 77.1Q436.3 76.6 436.3 76.0L436.3 76.0Q436.3 75.4 436.1 74.9Q435.9 74.4 435.5 74.1Q435.1 73.8 434.5 73.8L434.5 73.8Q433.9 73.8 433.5 74.1Q433.1 74.4 432.9 74.9Q432.8 75.4 432.8 76.0L432.8 76.0Q432.8 76.6 432.9 77.1Q433.1 77.6 433.5 78.0Q433.9 78.3 434.5 78.3ZM441.1 79.1L441.1 79.1Q440.3 79.1 439.7 78.7Q439.1 78.4 438.7 77.7Q438.4 77.0 438.4 76.0L438.4 76.0Q438.4 75.1 438.7 74.4Q439.1 73.7 439.7 73.3Q440.3 72.9 441.1 72.9L441.1 72.9Q441.5 72.9 441.9 73.0Q442.3 73.1 442.6 73.4Q443.0 73.6 443.2 73.9Q443.4 74.2 443.5 74.6L443.5 74.6L442.6 74.8Q442.5 74.6 442.4 74.4Q442.3 74.2 442.1 74.1Q441.9 73.9 441.7 73.9Q441.4 73.8 441.1 73.8L441.1 73.8Q440.5 73.8 440.1 74.1Q439.7 74.4 439.5 74.9Q439.4 75.4 439.4 76.0L439.4 76.0Q439.4 76.6 439.5 77.1Q439.7 77.6 440.1 78.0Q440.5 78.3 441.1 78.3L441.1 78.3Q441.4 78.3 441.7 78.2Q441.9 78.1 442.1 78.0Q442.3 77.8 442.4 77.6Q442.6 77.4 442.6 77.2L442.6 77.2L443.6 77.4Q443.4 77.8 443.2 78.1Q443.0 78.5 442.7 78.7Q442.3 78.9 441.9 79.0Q441.5 79.1 441.1 79.1ZM446.6 79.1L446.6 79.1Q446.1 79.1 445.6 78.9Q445.1 78.7 444.9 78.3Q444.6 77.9 444.6 77.3L444.6 77.3Q444.6 76.8 444.8 76.5Q445.0 76.1 445.3 75.9Q445.7 75.8 446.1 75.7Q446.5 75.6 446.9 75.5L446.9 75.5Q447.5 75.5 447.8 75.4Q448.1 75.4 448.3 75.3Q448.5 75.2 448.5 75.0L448.5 75.0L448.5 74.9Q448.5 74.6 448.3 74.3Q448.2 74.0 447.9 73.9Q447.6 73.8 447.2 73.8L447.2 73.8Q446.8 73.8 446.5 73.9Q446.2 74.0 446.0 74.2Q445.8 74.4 445.7 74.6L445.7 74.6L444.8 74.3Q445.0 73.8 445.4 73.5Q445.8 73.2 446.2 73.0Q446.7 72.9 447.2 72.9L447.2 72.9Q447.5 72.9 447.9 73.0Q448.2 73.1 448.6 73.3Q449.0 73.5 449.2 73.9Q449.4 74.3 449.4 75.0L449.4 75.0L449.4 79L448.5 79L448.5 78.2L448.4 78.2Q448.3 78.4 448.1 78.6Q447.9 78.8 447.5 79.0Q447.1 79.1 446.6 79.1ZM446.8 78.3L446.8 78.3Q447.3 78.3 447.7 78.1Q448.1 77.9 448.3 77.5Q448.5 77.2 448.5 76.8L448.5 76.8L448.5 76.0Q448.4 76.1 448.2 76.1Q448.0 76.2 447.7 76.2Q447.5 76.3 447.3 76.3Q447.0 76.3 446.9 76.3L446.9 76.3Q446.5 76.4 446.2 76.5Q445.9 76.6 445.7 76.8Q445.6 77.0 445.6 77.3L445.6 77.3Q445.6 77.7 445.7 77.9Q445.9 78.1 446.2 78.2Q446.4 78.3 446.8 78.3ZM451.1 71.0L452.1 71.0L452.1 79L451.1 79L451.1 71.0Z M457.4 79L456.3 79L459.2 71.0L460.4 71.0L463.3 79L462.3 79L461.5 76.8L458.2 76.8L457.4 79ZM458.5 75.9L461.2 75.9L460.6 74.3Q460.4 73.8 460.2 73.2L460.2 73.2Q460.0 72.6 459.8 71.8L459.8 71.8Q459.6 72.6 459.4 73.2L459.4 73.2Q459.2 73.8 459.0 74.3L459.0 74.3L458.5 75.9ZM464.6 71.0L465.6 71.0L465.6 79L464.6 79L464.6 71.0Z M469.7 75.1L480.7 75.1L480.7 76.0L469.7 76.0L469.7 75.1Z M485.8 79L484.7 79L484.7 71.0L485.9 71.0L489.2 76.1Q489.3 76.3 489.5 76.6Q489.7 76.9 489.9 77.3L489.9 77.3Q490.0 77.5 490.1 77.8L490.1 77.8Q490.1 77.5 490.1 77.3L490.1 77.3Q490.1 76.9 490.1 76.5Q490.1 76.2 490.1 75.9L490.1 75.9L490.1 71.0L491.1 71.0L491.1 79L489.9 79L487.0 74.4Q486.8 74.1 486.6 73.8Q486.4 73.5 486.1 73.0L486.1 73.0Q485.9 72.7 485.7 72.2L485.7 72.2Q485.7 72.6 485.7 73.0L485.7 73.0Q485.7 73.5 485.7 73.8Q485.8 74.2 485.8 74.4L485.8 74.4L485.8 79ZM495.3 79.1L495.3 79.1Q494.5 79.1 493.9 78.7Q493.3 78.4 493.0 77.7Q492.6 77.0 492.6 76.0L492.6 76.0Q492.6 75.1 493.0 74.4Q493.3 73.7 493.9 73.3Q494.5 72.9 495.3 72.9L495.3 72.9Q496.2 72.9 496.8 73.3Q497.4 73.7 497.7 74.4Q498.1 75.1 498.1 76.0L498.1 76.0Q498.1 77.0 497.7 77.7Q497.4 78.4 496.8 78.7Q496.2 79.1 495.3 79.1ZM495.3 78.3L495.3 78.3Q496.0 78.3 496.3 78.0Q496.7 77.6 496.9 77.1Q497.1 76.6 497.1 76.0L497.1 76.0Q497.1 75.4 496.9 74.9Q496.7 74.4 496.3 74.1Q496.0 73.8 495.3 73.8L495.3 73.8Q494.7 73.8 494.4 74.1Q494.0 74.4 493.8 74.9Q493.6 75.4 493.6 76.0L493.6 76.0Q493.6 76.6 493.8 77.1Q494.0 77.6 494.4 78.0Q494.7 78.3 495.3 78.3Z M505.9 79.1L505.9 79.1Q504.9 79.1 504.1 78.6Q503.3 78.1 502.9 77.2Q502.4 76.3 502.4 75.0L502.4 75.0Q502.4 73.7 502.9 72.8Q503.3 71.9 504.1 71.4Q504.9 70.9 505.9 70.9L505.9 70.9Q506.6 70.9 507.1 71.1Q507.6 71.2 508.1 71.6Q508.5 71.9 508.8 72.4Q509.1 72.9 509.2 73.5L509.2 73.5L508.2 73.5Q508.1 73.1 507.9 72.8Q507.7 72.5 507.4 72.3Q507.1 72.0 506.7 71.9Q506.3 71.8 505.9 71.8L505.9 71.8Q505.2 71.8 504.6 72.2Q504.1 72.6 503.7 73.3Q503.4 74.0 503.4 75.0L503.4 75.0Q503.4 76.0 503.7 76.7Q504.1 77.4 504.7 77.8Q505.2 78.2 505.9 78.2L505.9 78.2Q506.3 78.2 506.7 78.1Q507.1 77.9 507.4 77.7Q507.7 77.5 507.9 77.2Q508.1 76.9 508.2 76.5L508.2 76.5L509.2 76.5Q509.1 77.1 508.8 77.6Q508.5 78.1 508.1 78.4Q507.6 78.7 507.1 78.9Q506.6 79.1 505.9 79.1ZM510.6 71.0L511.6 71.0L511.6 79L510.6 79L510.6 71.0ZM515.7 79.1L515.7 79.1Q514.9 79.1 514.3 78.7Q513.7 78.4 513.3 77.7Q513 77.0 513 76.0L513 76.0Q513 75.1 513.3 74.4Q513.7 73.7 514.3 73.3Q514.9 72.9 515.7 72.9L515.7 72.9Q516.6 72.9 517.2 73.3Q517.8 73.7 518.1 74.4Q518.5 75.1 518.5 76.0L518.5 76.0Q518.5 77.0 518.1 77.7Q517.8 78.4 517.2 78.7Q516.6 79.1 515.7 79.1ZM515.7 78.3L515.7 78.3Q516.3 78.3 516.7 78.0Q517.1 77.6 517.3 77.1Q517.5 76.6 517.5 76.0L517.5 76.0Q517.5 75.4 517.3 74.9Q517.1 74.4 516.7 74.1Q516.3 73.8 515.7 73.8L515.7 73.8Q515.1 73.8 514.7 74.1Q514.4 74.4 514.2 74.9Q514.0 75.4 514.0 76.0L514.0 76.0Q514.0 76.6 514.2 77.1Q514.4 77.6 514.7 78.0Q515.1 78.3 515.7 78.3ZM521.9 79.1L521.9 79.1Q521.3 79.1 520.9 78.8Q520.4 78.6 520.1 78.1Q519.9 77.6 519.9 76.8L519.9 76.8L519.9 73.0L520.9 73.0L520.9 76.7Q520.9 77.4 521.2 77.8Q521.6 78.2 522.2 78.2L522.2 78.2Q522.6 78.2 523.0 78.0Q523.3 77.8 523.5 77.5Q523.7 77.1 523.7 76.6L523.7 76.6L523.7 73.0L524.7 73.0L524.7 79L523.8 79L523.8 77.9Q523.5 78.5 523.1 78.7L523.1 78.7Q522.6 79.1 521.9 79.1ZM528.6 79.1L528.6 79.1Q527.9 79.1 527.3 78.7Q526.7 78.4 526.4 77.7Q526.1 77.0 526.1 76.0L526.1 76.0Q526.1 75.1 526.4 74.4Q526.8 73.7 527.3 73.3Q527.9 72.9 528.6 72.9L528.6 72.9Q529.2 72.9 529.6 73.1Q529.9 73.3 530.1 73.6Q530.3 73.8 530.4 74.0L530.4 74.0L530.5 74.0L530.5 71.0L531.4 71.0L531.4 79L530.5 79L530.5 78.1L530.4 78.1Q530.3 78.2 530.1 78.5Q529.9 78.7 529.6 78.9Q529.2 79.1 528.6 79.1ZM528.8 78.3L528.8 78.3Q529.3 78.3 529.7 78.0Q530.1 77.7 530.3 77.2Q530.5 76.7 530.5 76.0L530.5 76.0Q530.5 75.3 530.3 74.8Q530.1 74.3 529.7 74.1Q529.3 73.8 528.8 73.8L528.8 73.8Q528.2 73.8 527.8 74.1Q527.5 74.4 527.3 74.9Q527.1 75.4 527.1 76.0L527.1 76.0Q527.1 76.6 527.3 77.1Q527.5 77.7 527.8 78.0Q528.2 78.3 528.8 78.3Z M538.8 79L538.8 79L536.3 79L536.3 71.0L538.9 71.0Q540.1 71.0 540.9 71.5Q541.8 72.0 542.2 72.8Q542.7 73.7 542.7 75.0L542.7 75.0Q542.7 76.2 542.2 77.1Q541.8 78.0 540.9 78.5Q540.1 79 538.8 79ZM537.4 71.9L537.4 78.1L538.8 78.1Q539.7 78.1 540.4 77.7Q541.0 77.4 541.3 76.7Q541.7 76.0 541.7 75.0L541.7 75.0Q541.7 74.0 541.4 73.3Q541.0 72.6 540.4 72.3Q539.8 71.9 538.9 71.9L538.9 71.9L537.4 71.9ZM546.7 79.1L546.7 79.1Q545.8 79.1 545.2 78.7Q544.5 78.4 544.2 77.7Q543.9 77.0 543.9 76.0Q543.9 75.1 544.2 74.4Q544.5 73.7 545.1 73.3Q545.8 72.9 546.6 72.9L546.6 72.9Q547.0 72.9 547.5 73.1Q548.0 73.2 548.4 73.6Q548.7 73.9 549.0 74.5Q549.2 75.1 549.2 75.9L549.2 75.9L549.2 76.3L544.8 76.3Q544.9 76.9 545.1 77.3L545.1 77.3Q545.3 77.8 545.7 78.0Q546.1 78.3 546.7 78.3L546.7 78.3Q547.0 78.3 547.3 78.2Q547.6 78.1 547.8 77.9Q548.0 77.7 548.2 77.3L548.2 77.3L549.1 77.6Q548.9 78.1 548.6 78.4Q548.3 78.7 547.8 78.9Q547.3 79.1 546.7 79.1ZM544.9 75.5L544.9 75.5L548.2 75.5Q548.2 75.1 548.0 74.8L548.0 74.8Q547.8 74.3 547.5 74.0Q547.1 73.8 546.6 73.8Q546.0 73.8 545.6 74.0Q545.3 74.3 545.0 74.7L545.0 74.7Q544.9 75.1 544.9 75.5ZM551.5 81.2L550.6 81.2L550.6 73.0L551.5 73.0L551.5 74.0L551.6 74.0Q551.7 73.8 551.9 73.6Q552.1 73.3 552.4 73.1Q552.8 72.9 553.4 72.9L553.4 72.9Q554.1 72.9 554.7 73.3Q555.2 73.7 555.6 74.4Q555.9 75.1 555.9 76.0L555.9 76.0Q555.9 77.0 555.6 77.7Q555.3 78.4 554.7 78.7Q554.1 79.1 553.4 79.1L553.4 79.1Q552.8 79.1 552.4 78.9Q552.1 78.7 551.9 78.5Q551.7 78.2 551.6 78.1L551.6 78.1L551.5 78.1L551.5 81.2ZM553.2 78.3L553.2 78.3Q553.8 78.3 554.2 78.0Q554.5 77.7 554.7 77.1Q554.9 76.6 554.9 76.0L554.9 76.0Q554.9 75.4 554.7 74.9Q554.5 74.4 554.2 74.1Q553.8 73.8 553.2 73.8L553.2 73.8Q552.7 73.8 552.3 74.1Q551.9 74.3 551.7 74.8Q551.5 75.3 551.5 76.0L551.5 76.0Q551.5 76.7 551.7 77.2Q551.9 77.7 552.3 78.0Q552.7 78.3 553.2 78.3ZM559.8 79.1L559.8 79.1Q559.0 79.1 558.3 78.7Q557.7 78.4 557.4 77.7Q557.0 77.0 557.0 76.0Q557.0 75.1 557.3 74.4Q557.7 73.7 558.3 73.3Q558.9 72.9 559.7 72.9L559.7 72.9Q560.2 72.9 560.7 73.1Q561.1 73.2 561.5 73.6Q561.9 73.9 562.1 74.5Q562.3 75.1 562.3 75.9L562.3 75.9L562.3 76.3L558.0 76.3Q558.0 76.9 558.2 77.3L558.2 77.3Q558.5 77.8 558.9 78.0Q559.3 78.3 559.8 78.3L559.8 78.3Q560.2 78.3 560.5 78.2Q560.8 78.1 561.0 77.9Q561.2 77.7 561.3 77.3L561.3 77.3L562.2 77.6Q562.1 78.1 561.8 78.4Q561.4 78.7 560.9 78.9Q560.4 79.1 559.8 79.1ZM558.0 75.5L558.0 75.5L561.4 75.5Q561.3 75.1 561.2 74.8L561.2 74.8Q561.0 74.3 560.6 74.0Q560.3 73.8 559.7 73.8Q559.2 73.8 558.8 74.0Q558.4 74.3 558.2 74.7L558.2 74.7Q558.0 75.1 558.0 75.5ZM564.7 75.4L564.7 75.4L564.7 79L563.7 79L563.7 73.0L564.6 73.0L564.7 74.1Q564.9 73.5 565.3 73.3L565.3 73.3Q565.8 72.9 566.5 72.9L566.5 72.9Q567.1 72.9 567.6 73.2Q568.0 73.4 568.3 73.9Q568.5 74.4 568.5 75.2L568.5 75.2L568.5 79L567.6 79L567.6 75.3Q567.6 74.6 567.2 74.2Q566.8 73.8 566.2 73.8L566.2 73.8Q565.8 73.8 565.4 74.0Q565.1 74.2 564.9 74.5Q564.7 74.9 564.7 75.4ZM572.5 79.1L572.5 79.1Q571.7 79.1 571.1 78.7Q570.6 78.4 570.3 77.7Q569.9 77.0 569.9 76.0L569.9 76.0Q569.9 75.1 570.3 74.4Q570.6 73.7 571.2 73.3Q571.7 72.9 572.5 72.9L572.5 72.9Q573.1 72.9 573.4 73.1Q573.7 73.3 573.9 73.6Q574.1 73.8 574.2 74.0L574.2 74.0L574.3 74.0L574.3 71.0L575.3 71.0L575.3 79L574.3 79L574.3 78.1L574.2 78.1Q574.1 78.2 573.9 78.5Q573.7 78.7 573.4 78.9Q573.0 79.1 572.5 79.1ZM572.6 78.3L572.6 78.3Q573.2 78.3 573.5 78.0Q573.9 77.7 574.1 77.2Q574.3 76.7 574.3 76.0L574.3 76.0Q574.3 75.3 574.1 74.8Q573.9 74.3 573.5 74.1Q573.2 73.8 572.6 73.8L572.6 73.8Q572.0 73.8 571.7 74.1Q571.3 74.4 571.1 74.9Q570.9 75.4 570.9 76.0L570.9 76.0Q570.9 76.6 571.1 77.1Q571.3 77.7 571.7 78.0Q572.1 78.3 572.6 78.3ZM579.5 79.1L579.5 79.1Q578.6 79.1 578.0 78.7Q577.3 78.4 577.0 77.7Q576.7 77.0 576.7 76.0Q576.7 75.1 577.0 74.4Q577.3 73.7 577.9 73.3Q578.5 72.9 579.4 72.9L579.4 72.9Q579.8 72.9 580.3 73.1Q580.8 73.2 581.2 73.6Q581.5 73.9 581.8 74.5Q582.0 75.1 582.0 75.9L582.0 75.9L582.0 76.3L577.6 76.3Q577.7 76.9 577.9 77.3L577.9 77.3Q578.1 77.8 578.5 78.0Q578.9 78.3 579.5 78.3L579.5 78.3Q579.8 78.3 580.1 78.2Q580.4 78.1 580.6 77.9Q580.8 77.7 580.9 77.3L580.9 77.3L581.9 77.6Q581.7 78.1 581.4 78.4Q581.1 78.7 580.6 78.9Q580.1 79.1 579.5 79.1ZM577.6 75.5L577.6 75.5L581.0 75.5Q581.0 75.1 580.8 74.8L580.8 74.8Q580.6 74.3 580.3 74.0Q579.9 73.8 579.4 73.8Q578.8 73.8 578.4 74.0Q578.0 74.3 577.8 74.7L577.8 74.7Q577.7 75.1 577.6 75.5ZM584.3 75.4L584.3 75.4L584.3 79L583.4 79L583.4 73.0L584.3 73.0L584.3 74.1Q584.6 73.5 585.0 73.3L585.0 73.3Q585.5 72.9 586.1 72.9L586.1 72.9Q586.7 72.9 587.2 73.2Q587.7 73.4 587.9 73.9Q588.2 74.4 588.2 75.2L588.2 75.2L588.2 79L587.2 79L587.2 75.3Q587.2 74.6 586.8 74.2Q586.5 73.8 585.8 73.8L585.8 73.8Q585.4 73.8 585.1 74.0Q584.7 74.2 584.5 74.5Q584.3 74.9 584.3 75.4ZM592.3 79.1L592.3 79.1Q591.5 79.1 590.9 78.7Q590.3 78.4 589.9 77.7Q589.6 77.0 589.6 76.0L589.6 76.0Q589.6 75.1 589.9 74.4Q590.3 73.7 590.9 73.3Q591.5 72.9 592.3 72.9L592.3 72.9Q592.7 72.9 593.1 73.0Q593.5 73.1 593.8 73.4Q594.2 73.6 594.4 73.9Q594.6 74.2 594.7 74.6L594.7 74.6L593.8 74.8Q593.7 74.6 593.6 74.4Q593.5 74.2 593.3 74.1Q593.1 73.9 592.9 73.9Q592.6 73.8 592.3 73.8L592.3 73.8Q591.7 73.8 591.3 74.1Q590.9 74.4 590.7 74.9Q590.6 75.4 590.6 76.0L590.6 76.0Q590.6 76.6 590.7 77.1Q590.9 77.6 591.3 78.0Q591.7 78.3 592.3 78.3L592.3 78.3Q592.6 78.3 592.9 78.2Q593.1 78.1 593.3 78.0Q593.5 77.8 593.6 77.6Q593.8 77.4 593.8 77.2L593.8 77.2L594.8 77.4Q594.6 77.8 594.4 78.1Q594.2 78.5 593.9 78.7Q593.5 78.9 593.1 79.0Q592.8 79.1 592.3 79.1ZM596.1 81.2L596.1 81.2L596.3 80.3L596.4 80.4Q596.7 80.4 596.9 80.4Q597.2 80.4 597.4 80.2Q597.6 80.0 597.7 79.5L597.7 79.5L597.9 79.0L595.6 73.0L596.6 73.0L597.9 76.6Q598.1 77.1 598.3 77.7L598.3 77.7Q598.3 77.9 598.4 78.1L598.4 78.1Q598.4 77.9 598.5 77.7L598.5 77.7Q598.7 77.1 598.9 76.6L598.9 76.6L600.1 73.0L601.2 73.0L598.6 79.9Q598.4 80.4 598.1 80.7Q597.9 81.0 597.5 81.1Q597.2 81.3 596.8 81.3L596.8 81.3Q596.5 81.3 596.3 81.3Q596.1 81.2 596.1 81.2Z "/></g><mask id="satori_om-id-3"><rect x="640" y="29" width="160" height="53" fill="#fff"/></mask><mask id="satori_om-id-3-0"><rect x="715" y="29" width="10" height="10" fill="#fff"/></mask><path x="715" y="29" width="10" height="10" fill="#ffffff" d="M720,29 h0 a5,5 0 0 1 5,5 v0 a5,5 0 0 1 -5,5 h0 a5,5 0 0 1 -5,-5 v0 a5,5 0 0 1 5,-5"/><mask id="satori_om-id-3-1"><rect x="657" y="45" width="127" height="16" fill="#fff"/></mask><g  ><path fill="#ffffff" d="M661.3 58.1L661.3 58.1Q660.2 58.1 659.3 57.8Q658.5 57.4 658.0 56.8Q657.6 56.1 657.5 55.1L657.5 55.1L659.4 55.1Q659.5 55.5 659.7 55.9Q660.0 56.2 660.4 56.3Q660.8 56.5 661.3 56.5L661.3 56.5Q661.8 56.5 662.2 56.4Q662.6 56.2 662.8 55.9Q663.0 55.7 663.0 55.3L663.0 55.3Q663.0 55.0 662.8 54.8Q662.6 54.5 662.3 54.4Q661.9 54.2 661.4 54.1L661.4 54.1L660.4 53.8Q659.2 53.5 658.5 52.9Q657.8 52.3 657.8 51.3L657.8 51.3Q657.8 50.4 658.3 49.8Q658.7 49.1 659.5 48.8Q660.3 48.4 661.3 48.4L661.3 48.4Q662.4 48.4 663.2 48.8Q664.0 49.1 664.4 49.8Q664.8 50.4 664.8 51.2L664.8 51.2L663.0 51.2Q662.9 50.7 662.5 50.4Q662.1 50.0 661.3 50.0L661.3 50.0Q660.8 50.0 660.5 50.2Q660.1 50.3 660.0 50.6Q659.8 50.8 659.8 51.1L659.8 51.1Q659.8 51.5 660.0 51.7Q660.2 52.0 660.5 52.1Q660.9 52.2 661.3 52.3L661.3 52.3L662.1 52.5Q662.7 52.7 663.3 52.9Q663.8 53.1 664.2 53.5Q664.5 53.8 664.8 54.3Q665.0 54.7 665.0 55.3L665.0 55.3Q665.0 56.2 664.5 56.8Q664.1 57.4 663.3 57.8Q662.5 58.1 661.3 58.1ZM669.5 58.1L669.5 58.1Q668.4 58.1 667.7 57.7Q666.9 57.3 666.4 56.4Q666.0 55.6 666.0 54.5L666.0 54.5Q666.0 53.4 666.4 52.6Q666.9 51.7 667.6 51.3Q668.4 50.8 669.4 50.8L669.4 50.8Q670.1 50.8 670.7 51.0Q671.3 51.3 671.8 51.7Q672.3 52.2 672.5 52.8Q672.8 53.5 672.8 54.4L672.8 54.4L672.8 54.9L667.9 54.9Q667.9 55.5 668.1 55.9L668.1 55.9Q668.3 56.3 668.7 56.5Q669.1 56.7 669.6 56.7L669.6 56.7Q669.9 56.7 670.2 56.6Q670.4 56.5 670.6 56.3Q670.8 56.1 670.9 55.9L670.9 55.9L672.7 56.2Q672.5 56.8 672.1 57.2Q671.6 57.7 671.0 57.9Q670.4 58.1 669.5 58.1ZM667.9 53.8L667.9 53.8L670.9 53.8Q670.9 53.4 670.8 53.1L670.8 53.1Q670.6 52.7 670.3 52.5Q669.9 52.2 669.5 52.2L669.5 52.2Q669.0 52.2 668.6 52.5Q668.3 52.7 668.1 53.1L668.1 53.1Q668.0 53.4 667.9 53.8ZM674.1 48.5L676.0 48.5L676.0 58L674.1 58L674.1 48.5ZM680.1 50.9L681.5 50.9L681.5 52.4L680.1 52.4L680.1 58L678.2 58L678.2 52.4L676.9 52.4L676.9 50.9L678.2 50.9L678.2 50.4Q678.2 49.6 678.5 49.1Q678.8 48.6 679.3 48.3Q679.8 48.1 680.5 48.1L680.5 48.1Q680.9 48.1 681.3 48.2Q681.7 48.2 681.8 48.3L681.8 48.3L681.5 49.7Q681.4 49.7 681.2 49.7Q681.0 49.6 680.8 49.6L680.8 49.6Q680.4 49.6 680.2 49.8Q680.1 50.0 680.1 50.4L680.1 50.4L680.1 50.9ZM682.8 53.3L687.1 53.3L687.1 54.9L682.8 54.9L682.8 53.3ZM690.8 58L688.9 58L688.9 48.5L690.8 48.5L690.8 52.4L694.9 52.4L694.9 48.5L696.9 48.5L696.9 58L694.9 58L694.9 54.0L690.8 54.0L690.8 58ZM701.7 58.1L701.7 58.1Q700.7 58.1 699.9 57.7Q699.1 57.2 698.7 56.4Q698.3 55.6 698.3 54.5L698.3 54.5Q698.3 53.4 698.7 52.6Q699.1 51.7 699.9 51.3Q700.7 50.8 701.7 50.8L701.7 50.8Q702.8 50.8 703.6 51.3Q704.4 51.7 704.8 52.6Q705.2 53.4 705.2 54.5L705.2 54.5Q705.2 55.6 704.8 56.4Q704.4 57.2 703.6 57.7Q702.8 58.1 701.7 58.1ZM701.7 56.6L701.7 56.6Q702.2 56.6 702.6 56.4Q702.9 56.1 703.1 55.6Q703.3 55.1 703.3 54.5L703.3 54.5Q703.3 53.8 703.1 53.4Q702.9 52.9 702.6 52.6Q702.2 52.3 701.7 52.3L701.7 52.3Q701.2 52.3 700.9 52.6Q700.5 52.9 700.4 53.4Q700.2 53.8 700.2 54.5L700.2 54.5Q700.2 55.1 700.4 55.6Q700.5 56.1 700.9 56.4Q701.2 56.6 701.7 56.6ZM709.3 58.1L709.3 58.1Q708.5 58.1 707.8 57.9Q707.2 57.7 706.8 57.2Q706.3 56.7 706.2 56.1L706.2 56.1L708.0 55.8Q708.1 56.2 708.5 56.5Q708.8 56.7 709.4 56.7L709.4 56.7Q710.0 56.7 710.3 56.5Q710.6 56.3 710.6 56.0L710.6 56.0Q710.6 55.7 710.4 55.6Q710.1 55.4 709.7 55.3L709.7 55.3L708.4 55.0Q707.4 54.8 706.9 54.3Q706.4 53.8 706.4 53.0L706.4 53.0Q706.4 52.3 706.8 51.8Q707.1 51.3 707.8 51.1Q708.5 50.8 709.4 50.8L709.4 50.8Q710.2 50.8 710.8 51.0Q711.5 51.3 711.8 51.7Q712.2 52.1 712.3 52.7L712.3 52.7L710.7 53.0Q710.5 52.6 710.2 52.4Q709.9 52.2 709.4 52.2L709.4 52.2Q708.9 52.2 708.6 52.4Q708.3 52.6 708.3 52.9L708.3 52.9Q708.3 53.2 708.5 53.4Q708.7 53.5 709.2 53.6L709.2 53.6L710.5 53.9Q711.5 54.1 712.0 54.6Q712.5 55.0 712.5 55.8L712.5 55.8Q712.5 56.5 712.1 57.0Q711.7 57.6 711.0 57.8Q710.3 58.1 709.3 58.1ZM716.0 50.9L717.3 50.9L717.3 52.4L716.0 52.4L716.0 55.9Q716.0 56.3 716.2 56.4Q716.3 56.6 716.7 56.6L716.7 56.6Q716.8 56.6 717.0 56.6Q717.2 56.5 717.3 56.5L717.3 56.5L717.5 57.9Q717.2 58.0 716.9 58.1Q716.6 58.1 716.3 58.1L716.3 58.1Q715.2 58.1 714.7 57.6Q714.1 57.1 714.1 56.1L714.1 56.1L714.1 52.4L713.1 52.4L713.1 50.9L714.1 50.9L714.1 49.2L716.0 49.2L716.0 50.9ZM721.8 58.1L721.8 58.1Q720.7 58.1 719.9 57.7Q719.1 57.3 718.7 56.4Q718.3 55.6 718.3 54.5L718.3 54.5Q718.3 53.4 718.7 52.6Q719.1 51.7 719.9 51.3Q720.6 50.8 721.7 50.8L721.7 50.8Q722.4 50.8 723.0 51.0Q723.6 51.3 724.0 51.7Q724.5 52.2 724.8 52.8Q725.0 53.5 725.0 54.4L725.0 54.4L725.0 54.9L720.2 54.9Q720.2 55.5 720.4 55.9L720.4 55.9Q720.6 56.3 720.9 56.5Q721.3 56.7 721.8 56.7L721.8 56.7Q722.1 56.7 722.4 56.6Q722.7 56.5 722.9 56.3Q723.1 56.1 723.2 55.9L723.2 55.9L724.9 56.2Q724.7 56.8 724.3 57.2Q723.9 57.7 723.2 57.9Q722.6 58.1 721.8 58.1ZM720.2 53.8L720.2 53.8L723.2 53.8Q723.1 53.4 723.0 53.1L723.0 53.1Q722.9 52.7 722.5 52.5Q722.2 52.2 721.7 52.2L721.7 52.2Q721.2 52.2 720.9 52.5Q720.5 52.7 720.3 53.1L720.3 53.1Q720.2 53.4 720.2 53.8ZM728.9 58.1L728.9 58.1Q728.1 58.1 727.4 57.7Q726.8 57.3 726.4 56.5Q726.0 55.6 726.0 54.5L726.0 54.5Q726.0 53.3 726.4 52.4Q726.8 51.6 727.5 51.2Q728.1 50.8 728.9 50.8L728.9 50.8Q729.5 50.8 729.9 51.0Q730.3 51.2 730.6 51.5Q730.8 51.8 730.9 52.1L730.9 52.1L731.0 52.1L731.0 48.5L732.9 48.5L732.9 58L731.0 58L731.0 56.9L730.9 56.9Q730.8 57.1 730.5 57.4Q730.3 57.7 729.9 57.9Q729.5 58.1 728.9 58.1ZM729.5 56.6L729.5 56.6Q730.0 56.6 730.3 56.3Q730.7 56.1 730.8 55.6Q731.0 55.1 731.0 54.5L731.0 54.5Q731.0 53.8 730.8 53.3Q730.7 52.9 730.3 52.6Q730.0 52.3 729.5 52.3L729.5 52.3Q729.0 52.3 728.7 52.6Q728.3 52.9 728.1 53.4Q728.0 53.8 728.0 54.5L728.0 54.5Q728.0 55.1 728.1 55.6Q728.3 56.0 728.7 56.3Q729.0 56.6 729.5 56.6Z M741.8 58.1L741.8 58.1Q740.5 58.1 739.5 57.6Q738.5 57.0 737.9 55.9Q737.4 54.8 737.4 53.3L737.4 53.3Q737.4 51.7 738.0 50.6Q738.5 49.6 739.5 49.0Q740.5 48.4 741.8 48.4L741.8 48.4Q742.6 48.4 743.3 48.6Q744.0 48.9 744.5 49.3Q745.0 49.7 745.4 50.4Q745.7 51.0 745.8 51.8L745.8 51.8L743.9 51.8Q743.8 51.4 743.6 51.1Q743.4 50.8 743.2 50.6Q742.9 50.4 742.6 50.2Q742.2 50.1 741.8 50.1L741.8 50.1Q741.1 50.1 740.5 50.5Q740.0 50.9 739.6 51.6Q739.3 52.3 739.3 53.3L739.3 53.3Q739.3 54.3 739.7 55.0Q740.0 55.7 740.5 56.1Q741.1 56.4 741.8 56.4L741.8 56.4Q742.2 56.4 742.6 56.3Q742.9 56.2 743.2 56.0Q743.4 55.8 743.6 55.5Q743.8 55.1 743.9 54.8L743.9 54.8L745.8 54.8Q745.8 55.4 745.5 56.0Q745.1 56.6 744.6 57.1Q744.1 57.6 743.4 57.9Q742.7 58.1 741.8 58.1ZM749.7 58.1L749.7 58.1Q748.9 58.1 748.4 57.8Q747.8 57.4 747.5 56.8Q747.2 56.2 747.2 55.4L747.2 55.4L747.2 50.9L749.1 50.9L749.1 55.1Q749.1 55.7 749.5 56.1Q749.8 56.5 750.4 56.5L750.4 56.5Q750.8 56.5 751.1 56.3Q751.4 56.1 751.6 55.8Q751.8 55.5 751.8 55.0L751.8 55.0L751.8 50.9L753.7 50.9L753.7 58L751.9 58L751.9 56.5Q751.6 57.2 751.1 57.6L751.1 57.6Q750.5 58.1 749.7 58.1ZM755.3 48.5L757.2 48.5L757.2 58L755.3 58L755.3 48.5ZM761.0 50.9L762.3 50.9L762.3 52.4L761.0 52.4L761.0 55.9Q761.0 56.3 761.2 56.4Q761.3 56.6 761.7 56.6L761.7 56.6Q761.8 56.6 762.0 56.6Q762.2 56.5 762.3 56.5L762.3 56.5L762.5 57.9Q762.2 58.0 761.9 58.1Q761.6 58.1 761.3 58.1L761.3 58.1Q760.2 58.1 759.7 57.6Q759.1 57.1 759.1 56.1L759.1 56.1L759.1 52.4L758.1 52.4L758.1 50.9L759.1 50.9L759.1 49.2L761.0 49.2L761.0 50.9ZM766.0 58.1L766.0 58.1Q765.3 58.1 764.7 57.8Q764.2 57.4 763.9 56.8Q763.6 56.2 763.6 55.4L763.6 55.4L763.6 50.9L765.5 50.9L765.5 55.1Q765.5 55.7 765.8 56.1Q766.2 56.5 766.8 56.5L766.8 56.5Q767.2 56.5 767.5 56.3Q767.8 56.1 768.0 55.8Q768.1 55.5 768.1 55.0L768.1 55.0L768.1 50.9L770.1 50.9L770.1 58L768.3 58L768.2 56.5Q768.0 57.2 767.5 57.6L767.5 57.6Q766.9 58.1 766.0 58.1ZM773.6 58L771.7 58L771.7 50.9L773.5 50.9L773.5 52.1L773.6 52.1Q773.8 51.5 774.3 51.1Q774.7 50.8 775.3 50.8L775.3 50.8Q775.5 50.8 775.6 50.8Q775.8 50.8 775.9 50.9L775.9 50.9L775.9 52.6Q775.8 52.5 775.6 52.5Q775.3 52.5 775.1 52.5L775.1 52.5Q774.7 52.5 774.3 52.7Q774.0 52.9 773.8 53.2Q773.6 53.5 773.6 54.0L773.6 54.0L773.6 58ZM780.2 58.1L780.2 58.1Q779.1 58.1 778.3 57.7Q777.5 57.3 777.1 56.4Q776.7 55.6 776.7 54.5L776.7 54.5Q776.7 53.4 777.1 52.6Q777.5 51.7 778.3 51.3Q779.0 50.8 780.1 50.8L780.1 50.8Q780.8 50.8 781.4 51.0Q782.0 51.3 782.4 51.7Q782.9 52.2 783.2 52.8Q783.4 53.5 783.4 54.4L783.4 54.4L783.4 54.9L778.6 54.9Q778.6 55.5 778.8 55.9L778.8 55.9Q779.0 56.3 779.3 56.5Q779.7 56.7 780.2 56.7L780.2 56.7Q780.5 56.7 780.8 56.6Q781.1 56.5 781.3 56.3Q781.5 56.1 781.6 55.9L781.6 55.9L783.3 56.2Q783.1 56.8 782.7 57.2Q782.3 57.7 781.6 57.9Q781.0 58.1 780.2 58.1ZM778.6 53.8L778.6 53.8L781.6 53.8Q781.5 53.4 781.4 53.1L781.4 53.1Q781.3 52.7 780.9 52.5Q780.6 52.2 780.1 52.2L780.1 52.2Q779.6 52.2 779.3 52.5Q778.9 52.7 778.7 53.1L778.7 53.1Q778.6 53.4 778.6 53.8Z "/></g><mask id="satori_om-id-3-2"><rect x="640" y="67" width="160" height="15" fill="#fff"/></mask><g  ><path fill="rgba(235,235,235,0.82)" d="M645.7 79L641.0 79L641.0 71.0L642.0 71.0L642.0 78.1L645.7 78.1L645.7 79ZM649.5 79.1L649.5 79.1Q648.7 79.1 648.1 78.7Q647.5 78.4 647.1 77.7Q646.8 77.0 646.8 76.0L646.8 76.0Q646.8 75.1 647.1 74.4Q647.5 73.7 648.1 73.3Q648.7 72.9 649.5 72.9L649.5 72.9Q650.3 72.9 651.0 73.3Q651.6 73.7 651.9 74.4Q652.3 75.1 652.3 76.0L652.3 76.0Q652.3 77.0 651.9 77.7Q651.6 78.4 651.0 78.7Q650.3 79.1 649.5 79.1ZM649.5 78.3L649.5 78.3Q650.1 78.3 650.5 78.0Q650.9 77.6 651.1 77.1Q651.3 76.6 651.3 76.0L651.3 76.0Q651.3 75.4 651.1 74.9Q650.9 74.4 650.5 74.1Q650.1 73.8 649.5 73.8L649.5 73.8Q648.9 73.8 648.5 74.1Q648.1 74.4 647.9 74.9Q647.8 75.4 647.8 76.0L647.8 76.0Q647.8 76.6 647.9 77.1Q648.1 77.6 648.5 78.0Q648.9 78.3 649.5 78.3ZM656.1 79.1L656.1 79.1Q655.3 79.1 654.7 78.7Q654.1 78.4 653.7 77.7Q653.4 77.0 653.4 76.0L653.4 76.0Q653.4 75.1 653.7 74.4Q654.1 73.7 654.7 73.3Q655.3 72.9 656.1 72.9L656.1 72.9Q656.5 72.9 656.9 73.0Q657.3 73.1 657.6 73.4Q658.0 73.6 658.2 73.9Q658.4 74.2 658.5 74.6L658.5 74.6L657.6 74.8Q657.5 74.6 657.4 74.4Q657.3 74.2 657.1 74.1Q656.9 73.9 656.7 73.9Q656.4 73.8 656.1 73.8L656.1 73.8Q655.5 73.8 655.1 74.1Q654.7 74.4 654.5 74.9Q654.4 75.4 654.4 76.0L654.4 76.0Q654.4 76.6 654.5 77.1Q654.7 77.6 655.1 78.0Q655.5 78.3 656.1 78.3L656.1 78.3Q656.4 78.3 656.7 78.2Q656.9 78.1 657.1 78.0Q657.3 77.8 657.4 77.6Q657.6 77.4 657.6 77.2L657.6 77.2L658.6 77.4Q658.4 77.8 658.2 78.1Q658.0 78.5 657.7 78.7Q657.3 78.9 656.9 79.0Q656.5 79.1 656.1 79.1ZM661.6 79.1L661.6 79.1Q661.1 79.1 660.6 78.9Q660.1 78.7 659.9 78.3Q659.6 77.9 659.6 77.3L659.6 77.3Q659.6 76.8 659.8 76.5Q660.0 76.1 660.3 75.9Q660.7 75.8 661.1 75.7Q661.5 75.6 661.9 75.5L661.9 75.5Q662.5 75.5 662.8 75.4Q663.1 75.4 663.3 75.3Q663.5 75.2 663.5 75.0L663.5 75.0L663.5 74.9Q663.5 74.6 663.3 74.3Q663.2 74.0 662.9 73.9Q662.6 73.8 662.2 73.8L662.2 73.8Q661.8 73.8 661.5 73.9Q661.2 74.0 661.0 74.2Q660.8 74.4 660.7 74.6L660.7 74.6L659.8 74.3Q660.0 73.8 660.4 73.5Q660.8 73.2 661.2 73.0Q661.7 72.9 662.2 72.9L662.2 72.9Q662.5 72.9 662.9 73.0Q663.2 73.1 663.6 73.3Q664.0 73.5 664.2 73.9Q664.4 74.3 664.4 75.0L664.4 75.0L664.4 79L663.5 79L663.5 78.2L663.4 78.2Q663.3 78.4 663.1 78.6Q662.9 78.8 662.5 79.0Q662.1 79.1 661.6 79.1ZM661.8 78.3L661.8 78.3Q662.3 78.3 662.7 78.1Q663.1 77.9 663.3 77.5Q663.5 77.2 663.5 76.8L663.5 76.8L663.5 76.0Q663.4 76.1 663.2 76.1Q663.0 76.2 662.7 76.2Q662.5 76.3 662.3 76.3Q662.0 76.3 661.9 76.3L661.9 76.3Q661.5 76.4 661.2 76.5Q660.9 76.6 660.7 76.8Q660.6 77.0 660.6 77.3L660.6 77.3Q660.6 77.7 660.7 77.9Q660.9 78.1 661.2 78.2Q661.4 78.3 661.8 78.3ZM666.1 71.0L667.1 71.0L667.1 79L666.1 79L666.1 71.0Z M673.0 79L672.0 79L672.0 71.0L673.2 71.0L676.5 76.1Q676.6 76.3 676.8 76.6Q677.0 76.9 677.2 77.3L677.2 77.3Q677.3 77.5 677.4 77.8L677.4 77.8Q677.4 77.5 677.4 77.3L677.4 77.3Q677.3 76.9 677.3 76.5Q677.3 76.2 677.3 75.9L677.3 75.9L677.3 71.0L678.4 71.0L678.4 79L677.1 79L674.2 74.4Q674.0 74.1 673.8 73.8Q673.6 73.5 673.4 73.0L673.4 73.0Q673.2 72.7 672.9 72.2L672.9 72.2Q673.0 72.6 673.0 73.0L673.0 73.0Q673 73.5 673.0 73.8Q673.0 74.2 673.0 74.4L673.0 74.4L673.0 79ZM682.7 79.1L682.7 79.1Q681.8 79.1 681.2 78.7Q680.6 78.4 680.2 77.7Q679.9 77.0 679.9 76.0Q679.9 75.1 680.2 74.4Q680.5 73.7 681.2 73.3Q681.8 72.9 682.6 72.9L682.6 72.9Q683.1 72.9 683.5 73.1Q684.0 73.2 684.4 73.6Q684.7 73.9 685.0 74.5Q685.2 75.1 685.2 75.9L685.2 75.9L685.2 76.3L680.9 76.3Q680.9 76.9 681.1 77.3L681.1 77.3Q681.3 77.8 681.7 78.0Q682.2 78.3 682.7 78.3L682.7 78.3Q683.1 78.3 683.3 78.2Q683.6 78.1 683.8 77.9Q684.1 77.7 684.2 77.3L684.2 77.3L685.1 77.6Q685.0 78.1 684.6 78.4Q684.3 78.7 683.8 78.9Q683.3 79.1 682.7 79.1ZM680.9 75.5L680.9 75.5L684.2 75.5Q684.2 75.1 684.0 74.8L684.0 74.8Q683.9 74.3 683.5 74.0Q683.1 73.8 682.6 73.8Q682.0 73.8 681.7 74.0Q681.3 74.3 681.1 74.7L681.1 74.7Q680.9 75.1 680.9 75.5ZM687.7 73.0L688.9 73.0L688.9 73.8L687.7 73.8L687.7 77.4Q687.7 77.8 687.9 78.0Q688.0 78.2 688.4 78.2L688.4 78.2Q688.5 78.2 688.7 78.2Q688.8 78.2 688.9 78.2L688.9 78.2L689.1 79.0Q689.0 79.0 688.8 79.0Q688.6 79.1 688.4 79.1L688.4 79.1Q687.6 79.1 687.2 78.7Q686.7 78.3 686.7 77.5L686.7 77.5L686.7 73.8L685.8 73.8L685.8 73.0L686.7 73.0L686.7 71.6L687.7 71.6L687.7 73.0ZM692.5 79L691.5 79L689.7 73.0L690.7 73.0L691.5 75.6Q691.6 76.2 691.8 76.8L691.8 76.8Q691.9 77.3 692.0 78.0L692.0 78.0Q692.2 77.4 692.3 76.9L692.3 76.9Q692.5 76.2 692.6 75.6L692.6 75.6L693.3 73.0L694.4 73.0L695.1 75.6Q695.2 76.2 695.4 76.8L695.4 76.8Q695.5 77.4 695.6 77.9L695.6 77.9Q695.8 77.4 695.9 76.9L695.9 76.9Q696.0 76.2 696.2 75.6L696.2 75.6L696.9 73.0L698.0 73.0L696.1 79L695.2 79L694.4 76.3Q694.3 75.9 694.2 75.4Q694.1 75.0 693.9 74.6L693.9 74.6Q693.9 74.3 693.8 74.1L693.8 74.1Q693.8 74.3 693.7 74.6L693.7 74.6Q693.6 75.0 693.5 75.4Q693.4 75.9 693.3 76.3L693.3 76.3L692.5 79ZM701.6 79.1L701.6 79.1Q700.8 79.1 700.2 78.7Q699.6 78.4 699.2 77.7Q698.9 77.0 698.9 76.0L698.9 76.0Q698.9 75.1 699.2 74.4Q699.6 73.7 700.2 73.3Q700.8 72.9 701.6 72.9L701.6 72.9Q702.4 72.9 703.1 73.3Q703.7 73.7 704.0 74.4Q704.4 75.1 704.4 76.0L704.4 76.0Q704.4 77.0 704.0 77.7Q703.7 78.4 703.1 78.7Q702.4 79.1 701.6 79.1ZM701.6 78.3L701.6 78.3Q702.2 78.3 702.6 78.0Q703.0 77.6 703.2 77.1Q703.4 76.6 703.4 76.0L703.4 76.0Q703.4 75.4 703.2 74.9Q703.0 74.4 702.6 74.1Q702.2 73.8 701.6 73.8L701.6 73.8Q701.0 73.8 700.6 74.1Q700.3 74.4 700.1 74.9Q699.9 75.4 699.9 76.0L699.9 76.0Q699.9 76.6 700.1 77.1Q700.3 77.6 700.6 78.0Q701.0 78.3 701.6 78.3ZM706.7 79L705.8 79L705.8 73.0L706.7 73.0L706.7 73.9L706.8 73.9Q706.9 73.5 707.4 73.2Q707.8 72.9 708.3 72.9L708.3 72.9Q708.4 72.9 708.6 72.9Q708.7 72.9 708.8 72.9L708.8 72.9L708.8 73.9Q708.8 73.9 708.6 73.9Q708.4 73.8 708.2 73.8L708.2 73.8Q707.8 73.8 707.5 74.0Q707.1 74.2 706.9 74.5Q706.7 74.8 706.7 75.2L706.7 75.2L706.7 79ZM710.9 79L709.9 79L709.9 71.0L710.9 71.0L710.9 75.6L711.0 75.6L713.6 73.0L714.8 73.0L712.3 75.6L715.0 79L713.7 79L711.5 76.2L710.9 76.8L710.9 79Z M721.3 79.1L721.3 79.1Q720.5 79.1 720.0 78.8Q719.4 78.5 719.1 78.0Q718.8 77.5 718.8 76.9L718.8 76.9Q718.8 76.4 719.0 76.0Q719.2 75.6 719.6 75.3L719.6 75.3Q719.9 75.0 720.3 74.7L720.3 74.7Q720.2 74.5 720.1 74.4L720.1 74.4Q719.8 74.0 719.6 73.6Q719.4 73.2 719.4 72.7L719.4 72.7Q719.4 72.2 719.7 71.8Q719.9 71.4 720.3 71.2Q720.8 70.9 721.4 70.9L721.4 70.9Q722.0 70.9 722.4 71.2Q722.8 71.4 723.1 71.8Q723.3 72.2 723.3 72.6L723.3 72.6Q723.3 73.0 723.2 73.3Q723.0 73.6 722.8 73.9Q722.6 74.2 722.3 74.4L722.3 74.4L721.7 74.8L723.4 76.9Q723.5 76.8 723.5 76.6L723.5 76.6Q723.7 76.1 723.7 75.5L723.7 75.5L724.6 75.5Q724.6 76.3 724.5 76.8Q724.3 77.3 724.0 77.6L724.0 77.6Q724.0 77.6 724.0 77.6L724.0 77.6L725.1 79L724.0 79L723.4 78.3Q723.0 78.7 722.5 78.9L722.5 78.9Q721.9 79.1 721.3 79.1ZM722.8 77.6L720.9 75.4L720.7 75.6Q720.2 75.9 720.0 76.3Q719.8 76.6 719.8 76.9L719.8 76.9Q719.8 77.3 719.9 77.6Q720.1 77.9 720.5 78.1Q720.8 78.3 721.2 78.3L721.2 78.3Q721.7 78.3 722.2 78.1L722.2 78.1Q722.5 77.9 722.8 77.6L722.8 77.6ZM721.1 74.1L721.1 74.1L721.6 73.7Q721.8 73.6 721.9 73.5Q722.1 73.3 722.2 73.1Q722.3 72.9 722.3 72.6L722.3 72.6Q722.3 72.2 722.1 72.0Q721.8 71.8 721.4 71.8L721.4 71.8Q721.1 71.8 720.9 71.9Q720.6 72.0 720.5 72.2Q720.4 72.4 720.4 72.7L720.4 72.7Q720.4 73.0 720.5 73.3Q720.7 73.6 720.9 73.9L720.9 73.9Q721.0 74.0 721.1 74.1Z M729.3 71.0L730.4 71.0L730.4 79L729.3 79L729.3 71.0ZM733.2 75.4L733.2 75.4L733.2 79L732.2 79L732.2 73.0L733.1 73.0L733.1 74.1Q733.4 73.5 733.8 73.3L733.8 73.3Q734.3 72.9 735.0 72.9L735.0 72.9Q735.6 72.9 736.0 73.2Q736.5 73.4 736.7 73.9Q737.0 74.4 737.0 75.2L737.0 75.2L737.0 79L736.0 79L736.0 75.3Q736.0 74.6 735.7 74.2Q735.3 73.8 734.7 73.8L734.7 73.8Q734.2 73.8 733.9 74.0Q733.5 74.2 733.3 74.5Q733.2 74.9 733.2 75.4ZM740.1 73.0L741.5 73.0L741.5 73.8L740.1 73.8L740.1 79L739.1 79L739.1 73.8L737.9 73.8L737.9 73.0L739.1 73.0L739.1 72.2Q739.1 71.7 739.4 71.3Q739.6 71.0 740.0 70.8Q740.4 70.6 740.8 70.6L740.8 70.6Q741.2 70.6 741.4 70.7Q741.6 70.7 741.7 70.8L741.7 70.8L741.5 71.6Q741.4 71.6 741.3 71.6Q741.1 71.5 740.9 71.5L740.9 71.5Q740.5 71.5 740.3 71.7Q740.1 72.0 740.1 72.4L740.1 72.4L740.1 73.0ZM743.7 79L742.8 79L742.8 73.0L743.7 73.0L743.7 73.9L743.8 73.9Q743.9 73.5 744.3 73.2Q744.8 72.9 745.3 72.9L745.3 72.9Q745.4 72.9 745.6 72.9Q745.7 72.9 745.8 72.9L745.8 72.9L745.8 73.9Q745.8 73.9 745.6 73.9Q745.4 73.8 745.2 73.8L745.2 73.8Q744.8 73.8 744.4 74.0Q744.1 74.2 743.9 74.5Q743.7 74.8 743.7 75.2L743.7 75.2L743.7 79ZM748.6 79.1L748.6 79.1Q748.0 79.1 747.5 78.9Q747.1 78.7 746.8 78.3Q746.5 77.9 746.5 77.3L746.5 77.3Q746.5 76.8 746.7 76.5Q746.9 76.1 747.3 75.9Q747.6 75.8 748.0 75.7Q748.4 75.6 748.9 75.5L748.9 75.5Q749.4 75.5 749.7 75.4Q750.1 75.4 750.2 75.3Q750.4 75.2 750.4 75.0L750.4 75.0L750.4 74.9Q750.4 74.6 750.3 74.3Q750.1 74.0 749.8 73.9Q749.6 73.8 749.2 73.8L749.2 73.8Q748.7 73.8 748.4 73.9Q748.1 74.0 747.9 74.2Q747.7 74.4 747.6 74.6L747.6 74.6L746.7 74.3Q746.9 73.8 747.3 73.5Q747.7 73.2 748.2 73.0Q748.7 72.9 749.1 72.9L749.1 72.9Q749.4 72.9 749.8 73.0Q750.2 73.1 750.6 73.3Q750.9 73.5 751.1 73.9Q751.4 74.3 751.4 75.0L751.4 75.0L751.4 79L750.4 79L750.4 78.2L750.4 78.2Q750.3 78.4 750.0 78.6Q749.8 78.8 749.4 79.0Q749.1 79.1 748.6 79.1ZM748.7 78.3L748.7 78.3Q749.3 78.3 749.7 78.1Q750.0 77.9 750.2 77.5Q750.4 77.2 750.4 76.8L750.4 76.8L750.4 76.0Q750.3 76.1 750.2 76.1Q750.0 76.2 749.7 76.2Q749.4 76.3 749.2 76.3Q749.0 76.3 748.8 76.3L748.8 76.3Q748.5 76.4 748.2 76.5Q747.9 76.6 747.7 76.8Q747.5 77.0 747.5 77.3L747.5 77.3Q747.5 77.7 747.7 77.9Q747.8 78.1 748.1 78.2Q748.4 78.3 748.7 78.3ZM755.1 79.1L755.1 79.1Q754.5 79.1 754.0 78.9Q753.5 78.8 753.2 78.4Q752.9 78.1 752.8 77.5L752.8 77.5L753.7 77.3Q753.9 77.8 754.2 78.0Q754.6 78.3 755.1 78.3L755.1 78.3Q755.7 78.3 756.1 78.0Q756.5 77.7 756.5 77.4L756.5 77.4Q756.5 77.1 756.3 76.9Q756.0 76.6 755.6 76.5L755.6 76.5L754.6 76.3Q753.8 76.1 753.4 75.7Q753.0 75.3 753.0 74.7L753.0 74.7Q753.0 74.2 753.3 73.8Q753.6 73.4 754.1 73.1Q754.6 72.9 755.2 72.9L755.2 72.9Q755.8 72.9 756.3 73.1Q756.7 73.3 757.0 73.6Q757.2 73.9 757.4 74.4L757.4 74.4L756.5 74.6Q756.4 74.3 756.1 74.0Q755.8 73.7 755.2 73.7L755.2 73.7Q754.7 73.7 754.3 74.0Q754.0 74.2 754.0 74.6L754.0 74.6Q754.0 74.9 754.2 75.1Q754.4 75.3 755.0 75.5L755.0 75.5L755.9 75.7Q756.7 75.9 757.1 76.3Q757.5 76.7 757.5 77.3L757.5 77.3Q757.5 77.8 757.2 78.2Q756.9 78.7 756.4 78.9Q755.8 79.1 755.1 79.1ZM760.0 73.0L761.2 73.0L761.2 73.8L760.0 73.8L760.0 77.4Q760.0 77.8 760.2 78.0Q760.3 78.2 760.7 78.2L760.7 78.2Q760.8 78.2 760.9 78.2Q761.1 78.2 761.2 78.2L761.2 78.2L761.4 79.0Q761.3 79.0 761.1 79.0Q760.9 79.1 760.7 79.1L760.7 79.1Q759.9 79.1 759.5 78.7Q759.0 78.3 759.0 77.5L759.0 77.5L759.0 73.8L758.1 73.8L758.1 73.0L759.0 73.0L759.0 71.6L760.0 71.6L760.0 73.0ZM763.4 79L762.5 79L762.5 73.0L763.4 73.0L763.4 73.9L763.5 73.9Q763.6 73.5 764.1 73.2Q764.5 72.9 765.0 72.9L765.0 72.9Q765.1 72.9 765.3 72.9Q765.4 72.9 765.5 72.9L765.5 72.9L765.5 73.9Q765.5 73.9 765.3 73.9Q765.1 73.8 764.9 73.8L764.9 73.8Q764.5 73.8 764.2 74.0Q763.8 74.2 763.6 74.5Q763.4 74.8 763.4 75.2L763.4 75.2L763.4 79ZM768.7 79.1L768.7 79.1Q768.0 79.1 767.6 78.8Q767.1 78.6 766.9 78.1Q766.6 77.6 766.6 76.8L766.6 76.8L766.6 73.0L767.6 73.0L767.6 76.7Q767.6 77.4 768.0 77.8Q768.3 78.2 768.9 78.2L768.9 78.2Q769.4 78.2 769.7 78.0Q770.1 77.8 770.3 77.5Q770.5 77.1 770.5 76.6L770.5 76.6L770.5 73.0L771.4 73.0L771.4 79L770.5 79L770.5 77.9Q770.2 78.5 769.8 78.7L769.8 78.7Q769.3 79.1 768.7 79.1ZM775.6 79.1L775.6 79.1Q774.8 79.1 774.1 78.7Q773.5 78.4 773.2 77.7Q772.8 77.0 772.8 76.0L772.8 76.0Q772.8 75.1 773.2 74.4Q773.5 73.7 774.1 73.3Q774.8 72.9 775.6 72.9L775.6 72.9Q776.0 72.9 776.4 73.0Q776.8 73.1 777.1 73.4Q777.4 73.6 777.6 73.9Q777.9 74.2 778.0 74.6L778.0 74.6L777.1 74.8Q777.0 74.6 776.9 74.4Q776.7 74.2 776.5 74.1Q776.4 73.9 776.1 73.9Q775.9 73.8 775.6 73.8L775.6 73.8Q775.0 73.8 774.6 74.1Q774.2 74.4 774.0 74.9Q773.8 75.4 773.8 76.0L773.8 76.0Q773.8 76.6 774.0 77.1Q774.2 77.6 774.6 78.0Q775.0 78.3 775.6 78.3L775.6 78.3Q775.9 78.3 776.1 78.2Q776.4 78.1 776.6 78.0Q776.8 77.8 776.9 77.6Q777.0 77.4 777.1 77.2L777.1 77.2L778.0 77.4Q777.9 77.8 777.7 78.1Q777.4 78.5 777.1 78.7Q776.8 78.9 776.4 79.0Q776.0 79.1 775.6 79.1ZM780.5 73.0L781.8 73.0L781.8 73.8L780.5 73.8L780.5 77.4Q780.5 77.8 780.7 78.0Q780.9 78.2 781.2 78.2L781.2 78.2Q781.3 78.2 781.5 78.2Q781.6 78.2 781.7 78.2L781.7 78.2L781.9 79.0Q781.8 79.0 781.6 79.0Q781.4 79.1 781.2 79.1L781.2 79.1Q780.4 79.1 780.0 78.7Q779.6 78.3 779.6 77.5L779.6 77.5L779.6 73.8L778.7 73.8L778.7 73.0L779.6 73.0L779.6 71.6L780.5 71.6L780.5 73.0ZM785.0 79.1L785.0 79.1Q784.4 79.1 784.0 78.8Q783.5 78.6 783.3 78.1Q783.0 77.6 783.0 76.8L783.0 76.8L783.0 73.0L784.0 73.0L784.0 76.7Q784.0 77.4 784.3 77.8Q784.7 78.2 785.3 78.2L785.3 78.2Q785.8 78.2 786.1 78.0Q786.4 77.8 786.6 77.5Q786.8 77.1 786.8 76.6L786.8 76.6L786.8 73.0L787.8 73.0L787.8 79L786.9 79L786.9 77.9Q786.6 78.5 786.2 78.7L786.2 78.7Q785.7 79.1 785.0 79.1ZM790.5 79L789.5 79L789.5 73.0L790.4 73.0L790.4 73.9L790.5 73.9Q790.7 73.5 791.1 73.2Q791.5 72.9 792.1 72.9L792.1 72.9Q792.2 72.9 792.3 72.9Q792.5 72.9 792.6 72.9L792.6 72.9L792.6 73.9Q792.5 73.9 792.3 73.9Q792.2 73.8 792.0 73.8L792.0 73.8Q791.5 73.8 791.2 74.0Q790.9 74.2 790.7 74.5Q790.5 74.8 790.5 75.2L790.5 75.2L790.5 79ZM796.2 79.1L796.2 79.1Q795.3 79.1 794.7 78.7Q794.0 78.4 793.7 77.7Q793.4 77.0 793.4 76.0Q793.4 75.1 793.7 74.4Q794.0 73.7 794.6 73.3Q795.2 72.9 796.1 72.9L796.1 72.9Q796.5 72.9 797.0 73.1Q797.5 73.2 797.8 73.6Q798.2 73.9 798.5 74.5Q798.7 75.1 798.7 75.9L798.7 75.9L798.7 76.3L794.3 76.3Q794.4 76.9 794.6 77.3L794.6 77.3Q794.8 77.8 795.2 78.0Q795.6 78.3 796.2 78.3L796.2 78.3Q796.5 78.3 796.8 78.2Q797.1 78.1 797.3 77.9Q797.5 77.7 797.6 77.3L797.6 77.3L798.6 77.6Q798.4 78.1 798.1 78.4Q797.8 78.7 797.3 78.9Q796.8 79.1 796.2 79.1ZM794.3 75.5L794.3 75.5L797.7 75.5Q797.7 75.1 797.5 74.8L797.5 74.8Q797.3 74.3 797.0 74.0Q796.6 73.8 796.1 73.8Q795.5 73.8 795.1 74.0Q794.7 74.3 794.5 74.7L794.5 74.7Q794.4 75.1 794.3 75.5Z "/></g></svg>